<?xml version="1.0" standalone="no"?><!DOCTYPE svg PUBLIC "-//W3C//DTD SVG 1.1//EN" "http://www.w3.org/Graphics/SVG/1.1/DTD/svg11.dtd"><svg class="icon" height="512" viewBox="0 0 1024 1024" version="1.1" xmlns="http://www.w3.org/2000/svg"><path d="M342.382904 704.052061c21.767769 0 43.211151-2.185782 64.140833-6.231935-45.396933-37.117362-82.652442-84.654029-107.909685-140.189879-7.721869-1.768273-15.349593-3.906983-22.931269-6.65149-103.21271-36.790928-157.445892-150.655232-120.654964-253.960039 28.186969-79.165014 103.538121-132.281769 187.353039-132.281769 22.651906 0 45.071522 3.906983 66.653049 11.534707 103.304807 36.838 157.399843 150.794401 120.701013 254.099209-2.836605 7.861038-6.092765 15.349593-9.813506 22.651906 0.13917 0.233314 0.233314 0.325411 0.233314 0.558725 20.466124 46.978964 63.443961 79.117942 113.026216 86.653569 11.860119-19.488867 21.86089-40.419572 29.674856-62.373583 62.932308-176.841637-29.581736-371.777375-206.377324-434.70866C419.686525 29.941939 381.266493 23.337521 342.381881 23.337521c-143.585209 0-272.379551 90.885963-320.613088 226.192625C-34.092469 406.650627 32.791847 578.095347 172.470073 658.423861l-41.720194 117.258611-14.233166-29.954219c-14.512529-30.465872-50.978045-43.536562-81.537038-29.071106-30.511921 14.465456-43.581588 51.071166-28.976962 81.58411l79.443353 167.492712c10.558473 22.093181 32.466436 34.977629 55.443753 34.977629 8.7902 0 17.628496-1.860371 26.093285-5.906523l159.306262-75.630515c30.465872-14.512529 43.442418-50.978045 28.930913-81.443917-14.465456-30.606065-50.930973-43.675732-81.537038-29.071106l-29.814026 14.187117 43.861974-123.258255C305.824267 702.517101 324.010465 704.052061 342.382904 704.052061M1018.201947 740.392734c-13.489222-31.023574-49.396014-45.302789-80.46666-31.768541l-67.396993 29.163203-26.001187-60.001559c57.164954-38.09462 101.491509-92.281753 127.259382-157.492964 33.44267-84.467787 32.04688-177.027879-4.093225-260.425288C913.454278 135.352711 790.893918 54.79293 655.1677 54.79293c-26.140357 0-45.953611 1.954515-71.117734 7.813966 49.350988 31.489178 85.024465 74.792427 109.770056 137.723711 65.164139 11.44261 117.02632 53.67548 143.910621 115.816772 21.069875 48.698119 21.86089 102.793154 2.372024 152.09707-19.488867 49.396014-57.164954 88.280626-105.910145 109.398596-25.163099 10.883885-51.723012 16.372899-78.839603 16.372899-11.860119 0-23.39585-1.023306-34.791387-3.069919-65.024969-11.534707-120.980375-54.79293-147.771555-116.79403-20.373003-46.931892-21.86089-98.653881-4.557806-146.562007 0.650823-1.813299 1.442862-3.720741 2.046612-5.628184 3.954055-9.721409 8.745175-18.977213 13.953803-27.907607-23.535019-39.815821-59.862389-70.00233-103.95563-85.769432-2.605338-0.884137-5.349845-1.301645-7.953136-2.046612-13.163811 19.768229-24.512277 41.023322-33.44267 63.676252-0.511653 1.209548-0.976234 2.372024-1.39579 3.489474-32.000831 83.58365-30.04734 174.702927 5.581112 256.890788 40.372499 93.397157 119.491465 162.097842 213.773781 190.609199 31.44313 9.488095 64.559365 14.512529 98.513688 14.512529 26.001187 0 51.489698-3.25616 76.653821-9.023514l26.001187 59.954487-67.396993 29.303396c-30.977525 13.349029-45.257763 49.396014-31.860638 80.420611 9.999748 23.11751 32.558533 36.931121 56.141648 36.931121 8.18645 0 16.464997-1.674129 24.279986-5.116531l67.396993-29.210275 24.930809 57.490366c9.999748 23.070438 32.466436 36.931121 56.186673 36.931121 8.18645 0 16.325827-1.674129 24.279986-5.163603 31.023574-13.349029 45.302789-49.396014 31.768541-80.420611L918.943292 850.022597l67.396993-29.163203C1017.45698 807.463292 1031.736195 771.416308 1018.201947 740.392734" /></svg>