<?xml version="1.0" encoding="UTF-8" standalone="no"?>
<!-- Created with Inkscape (http://www.inkscape.org/) -->

<svg
   xmlns:dc="http://purl.org/dc/elements/1.1/"
   xmlns:cc="http://creativecommons.org/ns#"
   xmlns:rdf="http://www.w3.org/1999/02/22-rdf-syntax-ns#"
   xmlns:svg="http://www.w3.org/2000/svg"
   xmlns="http://www.w3.org/2000/svg"
   xmlns:sodipodi="http://sodipodi.sourceforge.net/DTD/sodipodi-0.dtd"
   xmlns:inkscape="http://www.inkscape.org/namespaces/inkscape"
   version="1.1"
   id="svg869"
   width="770"
   height="590"
   viewBox="0 0 770 590"
   sodipodi:docname="logo-texto-bw.svg"
   inkscape:version="0.92.2 (5c3e80d, 2017-08-06)">
  <metadata
     id="metadata875">
    <rdf:RDF>
      <cc:Work
         rdf:about="">
        <dc:format>image/svg+xml</dc:format>
        <dc:type
           rdf:resource="http://purl.org/dc/dcmitype/StillImage" />
        <dc:title></dc:title>
      </cc:Work>
    </rdf:RDF>
  </metadata>
  <defs
     id="defs873" />
  <sodipodi:namedview
     pagecolor="#ffffff"
     bordercolor="#666666"
     borderopacity="1"
     objecttolerance="10"
     gridtolerance="10"
     guidetolerance="10"
     inkscape:pageopacity="0"
     inkscape:pageshadow="2"
     inkscape:window-width="1680"
     inkscape:window-height="925"
     id="namedview871"
     showgrid="false"
     inkscape:zoom="1"
     inkscape:cx="230.82178"
     inkscape:cy="283.60723"
     inkscape:window-x="0"
     inkscape:window-y="23"
     inkscape:window-maximized="0"
     inkscape:current-layer="svg869" />
  <path
     inkscape:connector-curvature="0"
     id="path4572"
     d="M 7.5480305,271.32131 V 111.98313 H 129.63833 251.72862 V 271.32131 430.65949 H 129.63833 7.5480305 Z"
     style="fill:#fdfdfd;stroke-width:0.41386542" />
  <path
     inkscape:connector-curvature="0"
     id="path4570"
     d="m 177.05323,390.69499 c -2.7041,-1.42408 -7.23036,-5.08567 -12.10749,-9.79459 -7.93928,-7.66546 -10.96828,-12.59964 -18.34108,-29.87739 -2.66286,-6.24024 -5.38171,-12.41559 -6.04191,-13.72299 -0.6602,-1.30743 -8.80981,-13.07582 -18.11025,-26.152 l -16.90988,-23.7749 -7.081993,0.25539 c -10.311877,0.37186 -9.814042,0.10344 -6.436018,3.47012 3.50621,3.49445 7.1479,8.33226 8.589601,11.41093 0.60462,1.29109 1.91052,5.16432 2.90206,8.60722 1.18494,4.11447 2.7902,8.42286 4.68393,12.57132 4.33804,9.50304 6.10976,14.97921 5.48407,16.95061 -0.42653,1.34379 -2.18679,1.00492 -4.75484,-0.91538 C 103.04811,335.32549 95.819358,326.3288 91.22272,317.68606 84.813483,305.63528 81.93295,301.79202 75.980631,297.34984 57.846749,283.81661 52.450803,278.67918 52.450803,274.94729 c 0,-1.3855 0.742321,-2.8579 1.938218,-3.84443 2.35753,-1.9448 8.02144,-3.97686 13.86022,-4.97267 4.461914,-0.76099 6.066155,-0.7535 11.783598,0.055 2.582149,0.36508 5.185197,0.53988 5.78455,0.38846 1.50308,-0.37974 1.867961,-1.55037 2.274052,-7.29572 0.190114,-2.68975 0.523356,-5.73542 0.740536,-6.76812 0.515589,-2.45161 0.512032,-22.63259 -0.0046,-25.35609 -0.759445,-4.0046 -2.325503,-6.56385 -7.087283,-11.58203 -4.43166,-4.67029 -4.470333,-4.7278 -11.936962,-17.755 -25.847538,-45.09676 -25.363434,-44.03154 -27.542285,-60.60493 -0.867838,-6.60122 -0.771187,-8.99293 0.469765,-11.62457 1.282911,-2.72062 4.884607,-4.3285 6.834316,-3.05099 1.968591,1.28989 2.263691,2.78291 2.282035,11.54565 l 0.01679,8.02038 2.531446,5.86855 c 2.304696,5.34291 2.955917,6.42929 7.270307,12.12837 2.606373,3.44289 7.345714,9.95699 10.531871,14.4758 7.608975,10.79148 7.307279,10.4321 12.410131,14.78312 5.143381,4.38558 5.691611,5.03246 8.692065,10.25608 1.236,2.15179 2.798231,4.48647 3.471618,5.18812 2.469406,2.57312 6.512469,3.64216 8.031079,2.12354 0.38979,-0.38977 1.55134,-2.06064 2.58121,-3.71304 l 1.8725,-3.00434 -0.4635,-9.09018 c -0.25491,-4.99961 -0.34514,-10.06292 -0.20049,-11.25179 0.54536,-4.48251 2.42265,-7.02366 6.69596,-9.06377 5.90159,-2.8175 10.76534,-2.02727 14.74139,2.39508 2.18797,2.43357 3.1921,5.16608 3.17869,8.65019 -0.0151,3.93311 -1.36563,6.35818 -5.48318,9.84613 -1.80099,1.52559 -3.71747,3.41299 -4.25887,4.19423 -1.8903,2.72771 -0.89521,6.32359 2.45763,8.88086 3.39437,2.58901 5.62692,2.52324 11.62132,-0.34229 l 3.52031,-1.68284 4.69482,2.1e-4 c 3.7898,1.7e-4 5.59983,0.21396 9.38963,1.10906 4.39697,1.03853 16.30361,4.75165 23.54288,7.34194 4.73299,1.69353 9.68073,2.30284 18.72072,2.3055 12.74027,0.004 22.87696,1.67898 22.87696,3.78074 0,1.04066 -2.58742,3.15003 -4.98502,4.06397 -1.93174,0.73638 -3.43811,0.90343 -10.56944,1.1722 -4.57413,0.17239 -9.41563,0.42938 -10.75895,0.57109 -4.0729,0.42969 -20.64979,-0.87734 -32.763,-2.58323 -7.91387,-1.11451 -14.8559,-1.113 -19.17051,0.004 -4.23546,1.09667 -9.07478,3.42349 -11.42773,5.49466 -2.28983,2.01561 -3.7314,4.54181 -5.592,9.79927 -0.79958,2.2594 -2.60334,6.39673 -4.00834,9.19407 -3.37772,6.72498 -3.84028,8.18716 -4.63746,14.65896 l -0.67562,5.48513 4.09607,4.20813 c 7.19955,7.39651 13.1352,15.66161 17.27288,24.05164 2.78001,5.63708 4.0338,9.27417 6.96454,20.20355 1.30635,4.8717 2.99314,10.53017 3.7484,12.57439 1.97941,5.35756 7.07956,15.50779 13.66257,27.191 3.15237,5.5947 7.32671,13.34121 9.27635,17.21445 1.94962,3.87326 4.84532,9.12155 6.43489,11.66285 3.09202,4.94336 4.28585,7.59108 3.88906,8.62513 -0.34287,0.89356 -2.10875,0.81492 -3.9939,-0.17786 z"
     style="fill:#010101;stroke-width:0.39123607" />
  <flowRoot
     xml:space="preserve"
     id="flowRoot4656"
     style="fill:black;fill-opacity:1;stroke:none;font-family:Despeinada;font-style:normal;font-weight:normal;font-size:74.66666666999999791px;line-height:1.25;letter-spacing:0px;word-spacing:0px;-inkscape-font-specification:'Despeinada, Normal';font-stretch:normal;font-variant:normal;text-anchor:start;text-align:start;writing-mode:lr;font-variant-ligatures:normal;font-variant-caps:normal;font-variant-numeric:normal"><flowRegion
       id="flowRegion4658"><rect
         id="rect4660"
         width="376.75534"
         height="268.47961"
         x="303.83496"
         y="109.38836" /></flowRegion><flowPara
       id="flowPara4662" /></flowRoot>  <g
     id="g891"
     transform="translate(0,11.964225)">
    <text
       id="text4666"
       y="277.32623"
       x="237.54369"
       style="font-style:normal;font-variant:normal;font-weight:normal;font-stretch:normal;font-size:74.66666412px;line-height:1.25;font-family:Despeinada;-inkscape-font-specification:'Despeinada, Normal';font-variant-ligatures:normal;font-variant-caps:normal;font-variant-numeric:normal;text-align:start;letter-spacing:0px;word-spacing:0px;writing-mode:lr-tb;text-anchor:start;fill:#000000;fill-opacity:1;stroke:none"
       xml:space="preserve"><tspan
         style="font-style:normal;font-variant:normal;font-weight:normal;font-stretch:normal;font-size:266.66665649px;font-family:Despeinada;-inkscape-font-specification:'Despeinada, Normal';font-variant-ligatures:normal;font-variant-caps:normal;font-variant-numeric:normal;font-feature-settings:normal;text-align:start;writing-mode:lr-tb;text-anchor:start"
         y="277.32623"
         x="237.54369"
         id="tspan4664"
         sodipodi:role="line">Somatic</tspan></text>
    <flowRoot
       transform="matrix(1.1139338,0,0,0.95457013,-37.29832,-34.436378)"
       style="font-style:normal;font-variant:normal;font-weight:500;font-stretch:normal;font-size:96px;line-height:1.25;font-family:'Bw Modelica SS02';-inkscape-font-specification:'Bw Modelica SS02, Medium';font-variant-ligatures:normal;font-variant-caps:normal;font-variant-numeric:normal;font-feature-settings:normal;text-align:start;letter-spacing:0px;word-spacing:0px;writing-mode:lr-tb;text-anchor:start;fill:#000000;fill-opacity:1;stroke:none"
       id="flowRoot4670"
       xml:space="preserve"><flowRegion
         style="font-style:normal;font-variant:normal;font-weight:500;font-stretch:normal;font-size:96px;font-family:'Bw Modelica SS02';-inkscape-font-specification:'Bw Modelica SS02, Medium';font-variant-ligatures:normal;font-variant-caps:normal;font-variant-numeric:normal;font-feature-settings:normal;text-align:start;writing-mode:lr-tb;text-anchor:start"
         id="flowRegion4672"><rect
           style="font-style:normal;font-variant:normal;font-weight:500;font-stretch:normal;font-size:96px;font-family:'Bw Modelica SS02';-inkscape-font-specification:'Bw Modelica SS02, Medium';font-variant-ligatures:normal;font-variant-caps:normal;font-variant-numeric:normal;font-feature-settings:normal;text-align:start;writing-mode:lr-tb;text-anchor:start"
           y="345.82718"
           x="240.85825"
           height="145.84077"
           width="472.87766"
           id="rect4674" /></flowRegion><flowPara
         id="flowPara4676">BALANCE</flowPara></flowRoot>  </g>
</svg>
