<?xml version="1.0" encoding="UTF-8" standalone="no"?>
<svg
   xmlns:dc="http://purl.org/dc/elements/1.1/"
   xmlns:cc="http://creativecommons.org/ns#"
   xmlns:rdf="http://www.w3.org/1999/02/22-rdf-syntax-ns#"
   xmlns:svg="http://www.w3.org/2000/svg"
   xmlns="http://www.w3.org/2000/svg"
   viewBox="0 0 590 770"
   height="770"
   width="590"
   id="svg869"
   version="1.1">
  <metadata
     id="metadata875">
    <rdf:RDF>
      <cc:Work
         rdf:about="">
        <dc:format>image/svg+xml</dc:format>
        <dc:type
           rdf:resource="http://purl.org/dc/dcmitype/StillImage" />
        <dc:title></dc:title>
      </cc:Work>
    </rdf:RDF>
  </metadata>
  <defs
     id="defs873" />
  <path
     style="fill:#fdfdfd"
     d="M 0.91890439,385.86337 V 0.86337441 H 295.9189 h 295 V 385.86337 v 385 h -295 H 0.91890439 Z"
     id="path4572" />
  <path
     style="fill:#010101"
     d="m 429.40409,727.76464 c -6.91171,-3.63992 -18.48086,-12.99895 -30.94685,-25.03491 -20.2929,-19.59285 -28.03503,-32.20458 -46.88003,-76.36636 -6.80629,-15.95 -13.75572,-31.73414 -15.44319,-35.07587 -1.68746,-3.34173 -22.51795,-33.42166 -46.28998,-66.8443 l -43.22186,-60.76843 -18.10164,0.65277 c -26.35728,0.95048 -25.08482,0.26441 -16.45055,8.86961 8.96193,8.93175 18.27012,21.29719 21.95513,29.16622 1.54537,3.3 4.88333,13.2 7.41768,22 3.02872,10.51654 7.13177,21.52876 11.97218,32.13219 11.08809,24.28966 15.61661,38.28669 14.01731,43.32564 -1.09015,3.43473 -5.58942,2.56856 -12.15338,-2.33971 C 240.2462,586.24064 221.76941,563.24513 210.02035,541.15442 193.63828,510.35269 186.2756,500.52936 171.06141,489.17517 124.711,454.58435 110.9189,441.45311 110.9189,431.91443 c 0,-3.54134 1.89738,-7.30473 4.95411,-9.82631 6.02587,-4.9709 20.50289,-10.16483 35.42688,-12.7101 11.4047,-1.94507 15.50516,-1.92597 30.11901,0.14024 6.6,0.93316 13.25342,1.37998 14.78537,0.99295 3.8419,-0.97062 4.77454,-3.96276 5.81251,-18.64784 0.48593,-6.875 1.3377,-14.65965 1.89282,-17.29922 1.31784,-6.26632 1.30876,-57.84873 -0.0114,-64.80996 -1.94116,-10.23575 -5.94402,-16.77716 -18.11518,-29.60361 C 174.45572,268.21343 174.35687,268.0664 155.27208,234.769 89.205554,119.50211 90.442927,122.22484 84.873758,79.863374 82.655551,62.990744 82.902596,56.877535 86.074483,50.151083 c 3.279136,-6.953887 12.48511,-11.063609 17.468587,-7.798309 5.03174,3.296926 5.78602,7.113089 5.83291,29.5106 l 0.0429,20.5 6.4704,14.999996 c 5.89083,13.65641 7.55536,16.43317 18.58299,31 6.66192,8.8 18.77573,25.45 26.91958,37 19.44863,27.58297 18.67749,26.66438 31.72044,37.78557 13.14654,11.20951 14.54781,12.86291 22.21701,26.21443 3.15924,5.5 7.15231,11.46738 8.8735,13.26084 6.31183,6.57687 16.64591,9.30933 20.52751,5.42773 0.99629,-0.99629 3.9652,-5.26701 6.59758,-9.4905 l 4.78616,-7.67907 -1.18471,-23.23444 c -0.65158,-12.77894 -0.8822,-25.72071 -0.51248,-28.7595 1.39396,-11.45723 6.19235,-17.95236 17.11496,-23.16692 15.08451,-7.20149 27.51633,-5.18166 37.67914,6.12183 5.59249,6.22019 8.15905,13.2045 8.12479,22.10978 -0.0387,10.05302 -3.49055,16.25147 -14.01512,25.16664 -4.6033,3.89937 -9.50186,8.72357 -10.88569,10.72044 -4.8316,6.972 -2.28813,16.163 6.28172,22.69944 8.67606,6.61746 14.38251,6.44937 29.70425,-0.87493 l 8.99799,-4.30134 12,5.4e-4 c 9.68675,4.4e-4 14.31325,0.5469 24,2.83478 11.23871,2.65444 41.67221,12.14517 60.17586,18.76593 12.09759,4.32862 24.74407,5.88605 47.85037,5.89285 32.56427,0.01 58.47377,4.29145 58.47377,9.6635 0,2.65994 -6.6135,8.05149 -12.74175,10.3875 -4.93758,1.88214 -8.78787,2.30916 -27.01559,2.99613 -11.69153,0.44063 -24.06653,1.09751 -27.5,1.45973 -10.4104,1.09826 -52.78112,-2.24249 -83.74266,-6.60275 -20.22789,-2.84867 -37.9718,-2.84482 -49,0.0106 -10.8259,2.80305 -23.19525,8.75042 -29.20945,14.04433 -5.85279,5.15184 -9.5375,11.60879 -14.29317,25.04684 -2.04375,5.775 -6.65418,16.35 -10.2454,23.5 -8.63346,17.18895 -9.81579,20.92626 -11.85336,37.46816 l -1.72692,14.01996 10.46961,10.75594 c 18.40215,18.90543 33.57375,40.03096 44.14969,61.4758 7.10576,14.40834 10.31041,23.70471 17.80142,51.64013 3.33907,12.452 7.65049,26.91501 9.58095,32.14001 5.05941,13.69388 18.09546,39.6378 34.92167,69.5 8.0575,14.3 18.72721,34.1 23.71047,44 4.98325,9.9 12.38469,23.31457 16.44765,29.81016 7.90323,12.63516 10.95474,19.40269 9.94051,22.04573 -0.87642,2.28393 -5.39003,2.08293 -10.20848,-0.45462 z"
     id="path4570" />
</svg>
