<svg height="14" viewBox="0 0 15 14" width="15" xmlns="http://www.w3.org/2000/svg"><path d="m5 11q0-.414-.293-.707t-.707-.293-.707.293-.293.707.293.707.707.293.707-.293.293-.707zm-3-4h3v-2h-1.234q-.109.016-.172.07l-1.523 1.523q-.055.094-.07.172v.234zm10 4q0-.414-.293-.707t-.707-.293-.707.293-.293.707.293.707.707.293.707-.293.293-.707zm1-5.25v-1.5q0-.109-.07-.18t-.18-.07h-1.75v-1.75q0-.109-.07-.18t-.18-.07h-1.5q-.109 0-.18.07t-.07.18v1.75h-1.75q-.109 0-.18.07t-.07.18v1.5q0 .109.07.18t.18.07h1.75v1.75q0 .109.07.18t.18.07h1.5q.109 0 .18-.07t.07-.18v-1.75h1.75q.109 0 .18-.07t.07-.18zm2-4.25v9q0 .203-.148.352t-.352.148h-1.5q0 .828-.586 1.414t-1.414.586-1.414-.586-.586-1.414h-3q0 .828-.586 1.414t-1.414.586-1.414-.586-.586-1.414h-1q-.203 0-.352-.148t-.148-.352.148-.352.352-.148v-3.25q0-.203.102-.453t.25-.398l1.547-1.547q.148-.148.398-.25t.453-.102h1.25v-2.5q0-.203.148-.352t.352-.148h9q.203 0 .352.148t.148.352z" fill="#444"/></svg>