<svg height="14" viewBox="0 0 13 14" width="13" xmlns="http://www.w3.org/2000/svg"><path d="m1 13h2.25v-2.25h-2.25zm2.75 0h2.5v-2.25h-2.5zm-2.75-2.75h2.25v-2.5h-2.25zm2.75 0h2.5v-2.5h-2.5zm-2.75-3h2.25v-2.25h-2.25zm5.75 5.75h2.5v-2.25h-2.5zm-3-5.75h2.5v-2.25h-2.5zm6 5.75h2.25v-2.25h-2.25zm-3-2.75h2.5v-2.5h-2.5zm-2.75-6.75v-2.25q0-.102-.074-.176t-.176-.074h-.5q-.102 0-.176.074t-.074.176v2.25q0 .102.074.176t.176.074h.5q.102 0 .176-.074t.074-.176zm5.75 6.75h2.25v-2.5h-2.25zm-3-3h2.5v-2.25h-2.5zm3 0h2.25v-2.25h-2.25zm.25-3.75v-2.25q0-.102-.074-.176t-.176-.074h-.5q-.102 0-.176.074t-.074.176v2.25q0 .102.074.176t.176.074h.5q.102 0 .176-.074t.074-.176zm3-.5v10q0 .406-.297.703t-.703.297h-11q-.406 0-.703-.297t-.297-.703v-10q0-.406.297-.703t.703-.297h1v-.75q0-.516.367-.883t.883-.367h.5q.516 0 .883.367t.367.883v.75h3v-.75q0-.516.367-.883t.883-.367h.5q.516 0 .883.367t.367.883v.75h1q.406 0 .703.297t.297.703z" fill="#444"/></svg>