<svg height="14" viewBox="0 0 13 14" width="13" xmlns="http://www.w3.org/2000/svg"><path d="m11.375 9.5q0-.312-.219-.531l-1.625-1.625q-.219-.219-.531-.219-.328 0-.563.25.023.023.148.145t.168.168.117.148.102.199.027.215q0 .312-.219.531t-.531.219q-.117 0-.215-.027t-.199-.102-.148-.117-.168-.168-.145-.148q-.258.242-.258.57 0 .312.219.531l1.609 1.617q.211.211.531.211.312 0 .531-.203l1.148-1.141q.219-.219.219-.523zm-5.492-5.508q0-.312-.219-.531l-1.609-1.617q-.219-.219-.531-.219-.305 0-.531.211l-1.148 1.141q-.219.219-.219.523 0 .312.219.531l1.625 1.625q.211.211.531.211.328 0 .563-.242-.023-.023-.148-.145t-.168-.168-.117-.148-.102-.199-.027-.215q0-.312.219-.531t.531-.219q.117 0 .215.027t.199.102.148.117.168.168.145.148q.258-.242.258-.57zm6.992 5.508q0 .937-.664 1.586l-1.148 1.141q-.648.648-1.586.648-.945 0-1.594-.664l-1.609-1.617q-.648-.648-.648-1.586 0-.961.688-1.633l-.688-.688q-.672.688-1.625.688-.937 0-1.594-.656l-1.625-1.625q-.656-.656-.656-1.594t.664-1.586l1.148-1.141q.648-.648 1.586-.648.945 0 1.594.664l1.609 1.617q.648.648.648 1.586 0 .961-.688 1.633l.688.688q.672-.688 1.625-.688.937 0 1.594.656l1.625 1.625q.656.656.656 1.594z" fill="#444"/></svg>