<svg height="14" viewBox="0 0 12 14" width="12" xmlns="http://www.w3.org/2000/svg"><path d="m7 4.25v3.5q0 .109-.07.18t-.18.07h-2.5q-.109 0-.18-.07t-.07-.18v-.5q0-.109.07-.18t.18-.07h1.75v-2.75q0-.109.07-.18t.18-.07h.5q.109 0 .18.07t.07.18zm3.25 2.75q0-1.156-.57-2.133t-1.547-1.547-2.133-.57-2.133.57-1.547 1.547-.57 2.133.57 2.133 1.547 1.547 2.133.57 2.133-.57 1.547-1.547.57-2.133zm1.75 0q0 1.633-.805 3.012t-2.184 2.184-3.012.805-3.012-.805-2.184-2.184-.805-3.012.805-3.012 2.184-2.184 3.012-.805 3.012.805 2.184 2.184.805 3.012z" fill="#444"/></svg>