<svg height="14" viewBox="0 0 14 14" width="14" xmlns="http://www.w3.org/2000/svg"><path d="m5 7q0 .414-.293.707t-.707.293-.707-.293-.293-.707.293-.707.707-.293.707.293.293.707zm3 0q0 .414-.293.707t-.707.293-.707-.293-.293-.707.293-.707.707-.293.707.293.293.707zm3 0q0 .414-.293.707t-.707.293-.707-.293-.293-.707.293-.707.707-.293.707.293.293.707zm-4-4q-1.594 0-2.98.543t-2.203 1.465-.816 1.992q0 .875.559 1.668t1.574 1.371l.68.391-.211.75q-.187.711-.547 1.344 1.187-.492 2.148-1.336l.336-.297.445.047q.539.062 1.016.062 1.594 0 2.98-.543t2.203-1.465.816-1.992-.816-1.992-2.203-1.465-2.98-.543zm7 4q0 1.359-.937 2.512t-2.547 1.82-3.516.668q-.547 0-1.133-.062-1.547 1.367-3.594 1.891-.383.109-.891.172h-.039q-.117 0-.211-.082t-.125-.215v-.008q-.023-.031-.004-.094t.016-.078.035-.074l.047-.07t.055-.066.062-.07q.055-.062.242-.27t.27-.297.242-.309.254-.398.211-.461.203-.594q-1.227-.695-1.934-1.719t-.707-2.195q0-1.016.555-1.941t1.492-1.598 2.234-1.066 2.719-.395 2.719.395 2.234 1.066 1.492 1.598.555 1.941z" fill="#444"/></svg>