<svg height="14" viewBox="0 0 14 14" width="14" xmlns="http://www.w3.org/2000/svg"><path d="m5 7q0-.414-.293-.707t-.707-.293-.707.293-.293.707.293.707.707.293.707-.293.293-.707zm3 0q0-.414-.293-.707t-.707-.293-.707.293-.293.707.293.707.707.293.707-.293.293-.707zm3 0q0-.414-.293-.707t-.707-.293-.707.293-.293.707.293.707.707.293.707-.293.293-.707zm3 0q0 1.359-.937 2.512t-2.547 1.82-3.516.668q-.859 0-1.648-.141-1.352 1.352-3.398 1.789-.406.078-.672.102-.094.008-.172-.047t-.102-.141q-.031-.117.156-.289.039-.039.184-.168t.199-.184.184-.199.187-.246.16-.289.156-.375.113-.449.098-.566q-1.141-.703-1.793-1.691t-.652-2.105q0-1.359.937-2.512t2.547-1.82 3.516-.668 3.516.668 2.547 1.82.937 2.512z" fill="#444"/></svg>