<svg height="14" viewBox="0 0 14 14" width="14" xmlns="http://www.w3.org/2000/svg"><path d="m13 11.75v-6q-.25.281-.539.516-2.094 1.609-3.328 2.641-.398.336-.648.523t-.676.379-.801.191h-.016q-.375 0-.801-.191t-.676-.379-.648-.523q-1.234-1.031-3.328-2.641-.289-.234-.539-.516v6q0 .102.074.176t.176.074h11.5q.102 0 .176-.074t.074-.176zm0-8.211v-.191t-.004-.102-.023-.098-.043-.07-.07-.059-.109-.02h-11.5q-.102 0-.176.074t-.074.176q0 1.312 1.148 2.219 1.508 1.187 3.133 2.477.047.039.273.23t.359.293.348.246.395.215.336.07h.016q.156 0 .336-.07t.395-.215.348-.246.359-.293.273-.23q1.625-1.289 3.133-2.477.422-.336.785-.902t.363-1.027zm1-.289v8.5q0 .516-.367.883t-.883.367h-11.5q-.516 0-.883-.367t-.367-.883v-8.5q0-.516.367-.883t.883-.367h11.5q.516 0 .883.367t.367.883z" fill="#444"/></svg>