<svg height="14" viewBox="0 0 11 14" width="11" xmlns="http://www.w3.org/2000/svg"><path d="m3 10.5q0 .625-.438 1.062t-1.062.438-1.062-.438-.438-1.062.438-1.062 1.062-.438 1.062.438.438 1.062zm4 .961q.016.219-.133.375-.141.164-.367.164h-1.055q-.195 0-.336-.129t-.156-.324q-.172-1.789-1.441-3.059t-3.059-1.441q-.195-.016-.324-.156t-.129-.336v-1.055q0-.227.164-.367.133-.133.336-.133h.039q1.25.102 2.391.629t2.023 1.418q.891.883 1.418 2.023t.629 2.391zm4 .016q.016.211-.141.367-.141.156-.359.156h-1.117q-.203 0-.348-.137t-.152-.332q-.094-1.68-.789-3.191t-1.809-2.625-2.625-1.809-3.191-.797q-.195-.008-.332-.152t-.137-.34v-1.117q0-.219.156-.359.141-.141.344-.141h.023q2.047.102 3.918.937t3.324 2.297q1.461 1.453 2.297 3.324t.937 3.918z" fill="#444"/></svg>