<svg height="14" viewBox="0 0 15 14" width="15" xmlns="http://www.w3.org/2000/svg"><path d="m4.633 7q-1.266.039-2.07 1h-1.047q-.641 0-1.078-.316t-.438-.926q0-2.758.969-2.758.047 0 .34.164t.762.332.93.168q.523 0 1.039-.18-.039.289-.039.516 0 1.086.633 2zm8.367 4.977q0 .937-.57 1.48t-1.516.543h-6.828q-.945 0-1.516-.543t-.57-1.48q0-.414.027-.809t.109-.852.207-.848.336-.762.484-.633.668-.418.871-.156q.078 0 .336.168t.57.375.836.375 1.055.168 1.055-.168.836-.375.57-.375.336-.168q.477 0 .871.156t.668.418.484.633.336.762.207.848.109.852.027.809zm-8-9.977q0 .828-.586 1.414t-1.414.586-1.414-.586-.586-1.414.586-1.414 1.414-.586 1.414.586.586 1.414zm5.5 3q0 1.242-.879 2.121t-2.121.879-2.121-.879-.879-2.121.879-2.121 2.121-.879 2.121.879.879 2.121zm4.5 1.758q0 .609-.438.926t-1.078.316h-1.047q-.805-.961-2.07-1 .633-.914.633-2 0-.227-.039-.516.516.18 1.039.18.461 0 .93-.168t.762-.332.34-.164q.969 0 .969 2.758zm-1-4.758q0 .828-.586 1.414t-1.414.586-1.414-.586-.586-1.414.586-1.414 1.414-.586 1.414.586.586 1.414z" fill="#444"/></svg>