<svg height="14" viewBox="0 0 14 14" width="14" xmlns="http://www.w3.org/2000/svg"><path d="m10 8h2.383q-.039.047-.078.082t-.07.059l-.023.031-4.867 4.687q-.141.141-.344.141t-.344-.141l-4.875-4.703q-.039-.016-.164-.156h2.883q.172 0 .309-.105t.176-.27l.547-2.195 1.484 5.211q.047.156.18.258t.305.102q.164 0 .297-.102t.18-.258l1.141-3.789.438.875q.141.273.445.273zm4-3.344q0 1.133-.805 2.344h-2.883l-.867-1.727q-.062-.133-.199-.211t-.285-.062q-.352.039-.438.359l-1.008 3.359-1.531-5.359q-.047-.156-.184-.258t-.309-.102-.305.105-.172.27l-.906 3.625h-3.305q-.805-1.211-.805-2.344 0-1.719.992-2.687t2.742-.969q.484 0 .988.168t.937.453.746.535.594.531q.281-.281.594-.531t.746-.535.937-.453.988-.168q1.75 0 2.742.969t.992 2.687z" fill="#444"/></svg>