<svg height="14" viewBox="0 0 14 14" width="14" xmlns="http://www.w3.org/2000/svg"><path d="m13 4.656q0-.633-.168-1.117t-.43-.77-.637-.465-.734-.242-.766-.062-.875.199-.863.5-.676.563-.469.48q-.141.172-.383.172t-.383-.172q-.187-.219-.469-.48t-.676-.563-.863-.5-.875-.199-.766.062-.734.242-.637.465-.43.77-.168 1.117q0 1.313 1.461 2.773l4.539 4.375 4.531-4.367q1.469-1.469 1.469-2.781zm1 0q0 1.727-1.789 3.516l-4.867 4.687q-.141.141-.344.141t-.344-.141l-4.875-4.703q-.078-.062-.215-.203t-.434-.512-.531-.762-.418-.945-.184-1.078q0-1.719.992-2.687t2.742-.969q.484 0 .988.168t.937.453.746.535.594.531q.281-.281.594-.531t.746-.535.937-.453.988-.168q1.75 0 2.742.969t.992 2.687z" fill="#444"/></svg>