<svg height="14" viewBox="0 0 11 14" width="11" xmlns="http://www.w3.org/2000/svg"><path d="m3 10.25v.5q0 .102-.074.176t-.176.074h-.5q-.102 0-.176-.074t-.074-.176v-.5q0-.102.074-.176t.176-.074h.5q.102 0 .176.074t.074.176zm0-2v.5q0 .102-.074.176t-.176.074h-.5q-.102 0-.176-.074t-.074-.176v-.5q0-.102.074-.176t.176-.074h.5q.102 0 .176.074t.074.176zm2 0v.5q0 .102-.074.176t-.176.074h-.5q-.102 0-.176-.074t-.074-.176v-.5q0-.102.074-.176t.176-.074h.5q.102 0 .176.074t.074.176zm-2-2v.5q0 .102-.074.176t-.176.074h-.5q-.102 0-.176-.074t-.074-.176v-.5q0-.102.074-.176t.176-.074h.5q.102 0 .176.074t.074.176zm6 4v.5q0 .102-.074.176t-.176.074h-.5q-.102 0-.176-.074t-.074-.176v-.5q0-.102.074-.176t.176-.074h.5q.102 0 .176.074t.074.176zm-2-2v.5q0 .102-.074.176t-.176.074h-.5q-.102 0-.176-.074t-.074-.176v-.5q0-.102.074-.176t.176-.074h.5q.102 0 .176.074t.074.176zm-2-2v.5q0 .102-.074.176t-.176.074h-.5q-.102 0-.176-.074t-.074-.176v-.5q0-.102.074-.176t.176-.074h.5q.102 0 .176.074t.074.176zm4 2v.5q0 .102-.074.176t-.176.074h-.5q-.102 0-.176-.074t-.074-.176v-.5q0-.102.074-.176t.176-.074h.5q.102 0 .176.074t.074.176zm-2-2v.5q0 .102-.074.176t-.176.074h-.5q-.102 0-.176-.074t-.074-.176v-.5q0-.102.074-.176t.176-.074h.5q.102 0 .176.074t.074.176zm2 0v.5q0 .102-.074.176t-.176.074h-.5q-.102 0-.176-.074t-.074-.176v-.5q0-.102.074-.176t.176-.074h.5q.102 0 .176.074t.074.176zm-2 6.75h3v-9h-2v.25q0 .312-.219.531t-.531.219h-3.5q-.312 0-.531-.219t-.219-.531v-.25h-2v9h3v-1.75q0-.102.074-.176t.176-.074h2.5q.102 0 .176.074t.074.176zm0-9.25v-2.5q0-.102-.074-.176t-.176-.074h-.5q-.102 0-.176.074t-.074.176v.75h-1v-.75q0-.102-.074-.176t-.176-.074h-.5q-.102 0-.176.074t-.074.176v2.5q0 .102.074.176t.176.074h.5q.102 0 .176-.074t.074-.176v-.75h1v.75q0 .102.074.176t.176.074h.5q.102 0 .176-.074t.074-.176zm4-.25v10q0 .203-.148.352t-.352.148h-10q-.203 0-.352-.148t-.148-.352v-10q0-.203.148-.352t.352-.148h2.5v-2.25q0-.312.219-.531t.531-.219h3.5q.312 0 .531.219t.219.531v2.25h2.5q.203 0 .352.148t.148.352z" fill="#444"/></svg>