<svg height="14" viewBox="0 0 12 14" width="12" xmlns="http://www.w3.org/2000/svg"><path d="m10.641 11.141v-5.063h-1.055q.156.492.156 1.023 0 .984-.5 1.816t-1.359 1.316-1.875.484q-1.539 0-2.633-1.059t-1.094-2.559q0-.531.156-1.023h-1.102v5.063q0 .203.137.34t.34.137h8.352q.195 0 .336-.137t.141-.34zm-2.219-4.164q0-.969-.707-1.652t-1.707-.684q-.992 0-1.699.684t-.707 1.652.707 1.652 1.699.684q1 0 1.707-.684t.707-1.652zm2.219-2.813v-1.289q0-.219-.156-.379t-.383-.16h-1.359q-.227 0-.383.16t-.156.379v1.289q0 .227.156.383t.383.156h1.359q.227 0 .383-.156t.156-.383zm1.359-1.625v8.922q0 .633-.453 1.086t-1.086.453h-8.922q-.633 0-1.086-.453t-.453-1.086v-8.922q0-.633.453-1.086t1.086-.453h8.922q.633 0 1.086.453t.453 1.086z" fill="#444"/></svg>