<svg height="590" viewBox="0 0 770 590" width="770" xmlns="http://www.w3.org/2000/svg"><path d="m84.927635 390.69499c2.7041-1.42408 7.23036-5.08567 12.10749-9.79459 7.939285-7.66546 10.968285-12.59964 18.341085-29.87739 2.66286-6.24024 5.38171-12.41559 6.04191-13.72299.6602-1.30743 8.80981-13.07582 18.11025-26.152l16.90988-23.7749 7.08199.25539c10.31188.37186 9.81404.10344 6.43602 3.47012-3.50621 3.49445-7.1479 8.33226-8.5896 11.41093-.60462 1.29109-1.91052 5.16432-2.90206 8.60722-1.18494 4.11447-2.7902 8.42286-4.68393 12.57132-4.33804 9.50304-6.10976 14.97921-5.48407 16.95061.42653 1.34379 2.18679 1.00492 4.75484-.91538 5.88132-4.39784 13.11007-13.39453 17.70671-22.03727 6.40923-12.05078 9.28977-15.89404 15.24208-20.33622 18.13389-13.53323 23.52983-18.67066 23.52983-22.40255 0-1.3855-.74232-2.8579-1.93822-3.84443-2.35753-1.9448-8.02144-3.97686-13.86022-4.97267-4.46191-.76099-6.06615-.7535-11.78359.055-2.58215.36508-5.1852.53988-5.78455.38846-1.50308-.37974-1.86796-1.55037-2.27406-7.29572-.19011-2.68975-.52335-5.73542-.74053-6.76812-.51559-2.45161-.51203-22.63259.005-25.35609.75944-4.0046 2.3255-6.56385 7.08728-11.58203 4.43166-4.67029 4.47033-4.7278 11.93696-17.755 25.84754-45.09676 25.36344-44.03154 27.54229-60.60493.86784-6.60122.77119-8.99293-.46977-11.62457-1.28291-2.72062-4.8846-4.3285-6.83431-3.05099-1.96859 1.28989-2.26369 2.78291-2.28204 11.54565l-.0168 8.02038-2.53144 5.86855c-2.3047 5.34291-2.95592 6.42929-7.27031 12.12837-2.60637 3.44289-7.34571 9.95699-10.53187 14.4758-7.60898 10.79148-7.30728 10.4321-12.41013 14.78312-5.14338 4.38558-5.69161 5.03246-8.69207 10.25608-1.236 2.15179-2.79823 4.48647-3.47162 5.18812-2.4694 2.57312-6.51246 3.64216-8.03107 2.12354-.38979-.38977-1.55134-2.06064-2.58121-3.71304l-1.8725-3.00434.4635-9.09018c.25491-4.99961.34514-10.06292.20049-11.25179-.54536-4.48251-2.42265-7.02366-6.69596-9.06377-5.90159-2.8175-10.76534-2.02727-14.74139 2.39508-2.18797 2.43357-3.1921 5.16608-3.17869 8.65019.0151 3.93311 1.36563 6.35818 5.48318 9.84613 1.80099 1.52559 3.71747 3.41299 4.25887 4.19423 1.8903 2.72771.89521 6.32359-2.45763 8.88086-3.39437 2.58901-5.62692 2.52324-11.62132-.34229l-3.52031-1.68284-4.69482.00021c-3.7898.00017-5.59983.21396-9.38963 1.10906-4.39697 1.03853-16.303615 4.75165-23.542885 7.34194-4.73299 1.69353-9.68073 2.30284-18.72072 2.3055-12.74027.004-22.87696 1.67898-22.87696 3.78074 0 1.04066 2.58742 3.15003 4.98502 4.06397 1.93174.73638 3.43811.90343 10.56944 1.1722 4.57413.17239 9.41563.42938 10.75895.57109 4.0729.42969 20.64979-.87734 32.763005-2.58323 7.91387-1.11451 14.8559-1.113 19.17051.004 4.23546 1.09667 9.07478 3.42349 11.42773 5.49466 2.28983 2.01561 3.7314 4.54181 5.592 9.79927.79958 2.2594 2.60334 6.39673 4.00834 9.19407 3.37772 6.72498 3.84028 8.18716 4.63746 14.65896l.67562 5.48513-4.09607 4.20813c-7.19955 7.39651-13.1352 15.66161-17.27288 24.05164-2.78001 5.63708-4.0338 9.27417-6.96454 20.20355-1.30635 4.8717-2.99314 10.53017-3.7484 12.57439-1.97941 5.35756-7.07956 15.50779-13.66257 27.191-3.152375 5.5947-7.326715 13.34121-9.276355 17.21445-1.94962 3.87326-4.84532 9.12155-6.43489 11.66285-3.09202 4.94336-4.28585 7.59108-3.88906 8.62513.34287.89356 2.10875.81492 3.9939-.17786z" fill="#5dabb0" stroke-width=".391236"/><text fill="#df5454" font-family="Despeinada" font-size="74.666664" letter-spacing="0" word-spacing="0" x="237.54369" y="289.29047"><tspan fill="#df5454" font-family="Despeinada" font-size="266.666656" x="237.54369" y="289.29047">Somatic</tspan></text></svg>