<svg height="14" viewBox="0 0 14 14" width="14" xmlns="http://www.w3.org/2000/svg"><path d="m10 8.75v-1.5q0-.109-.07-.18t-.18-.07h-1.75v-1.75q0-.109-.07-.18t-.18-.07h-1.5q-.109 0-.18.07t-.07.18v1.75h-1.75q-.109 0-.18.07t-.07.18v1.5q0 .109.07.18t.18.07h1.75v1.75q0 .109.07.18t.18.07h1.5q.109 0 .18-.07t.07-.18v-1.75h1.75q.109 0 .18-.07t.07-.18zm-5-5.75h4v-1h-4zm-3 0v10h-.25q-.719 0-1.234-.516t-.516-1.234v-6.5q0-.719.516-1.234t1.234-.516zm9.25 0v10h-8.5v-10h1.25v-1.25q0-.312.219-.531t.531-.219h4.5q.312 0 .531.219t.219.531v1.25zm2.75 1.75v6.5q0 .719-.516 1.234t-1.234.516h-.25v-10h.25q.719 0 1.234.516t.516 1.234z" fill="#444"/></svg>