<svg height="367" width="356" xmlns="http://www.w3.org/2000/svg"><path d="m90.456847 353.9498c-38.6595-13.81495-66.730127-48.19141-77.84436-95.3314-5.0440603-21.39519-6.4703473-56.74856-2.288893-56.74856 1.38924 0 5.099626 9.70072 8.245378 21.55716 6.88392 25.94452 18.625388 50.34155 29.967016 62.26707 18.838729 19.80835 65.499612 27.56622 92.385072 15.35987 20.94303-9.5085 29.43591-32.10791 20.32889-54.09463-7.03753-16.98988-23.00294-22.67095-52.74161-18.76734 0 0-18.225506-19.61799-24.031923-54.45649l18.680963 1.69391c22.49993 2.04023 39.48794-2.93334 48.30498-14.14211 8.28529-10.53309 8.10614-14.60682-1.11395-25.32571-13.30445-15.46729-37.1933-11.54909-85.561833 14.03365l-24.404945-40.91004 10.231505-7.80398c25.64025-19.556861 70.160433-29.333871 95.496973-20.972031 23.0783 7.61648 40.01713 37.838381 35.49236 63.323811-3.0592 17.22988-16.87495 41.36226-27.54878 48.12041l-9.20507 5.82823 12.71489 5.7336c21.60667 9.74311 34.7971 2.29512 50.5565-28.54673 21.80948-42.68159 35.95449-53.73069 68.84657-53.77798 15.31518-.02204 20.7661 1.58448 31.93654 9.41259 27.87901 19.53706 43.05908 59.99383 39.72492 105.86962-4.2233 58.10163-31.7443 93.34329-72.89389 93.34329-22.58329 0-37.13964-7.92075-48.72686-26.51445-10.17753-16.33229-14.76395-48.67868-8.91924-62.90787 2.80403-6.82637 3.31087-7.05791 3.49418-1.59683.33693 10.04003 11.75936 26.35863 22.24604 31.78149 25.72967 13.30534 62.66652-3.41142 77.28005-34.97515 11.09507-23.9638 5.14273-70.18664-10.08748-78.33768-3.18631-1.70528-11.05995-3.1005-17.49644-3.1005-13.68226 0-24.42731 9.83653-39.49177 36.15272-5.20821 9.09839-13.9732 20.85401-19.47777 26.12354-8.94352 8.56184-12.13717 9.58097-30.02419 9.58097h-20.01655l6.47003 14.37144c9.26095 20.57068 8.82279 53.99335-.97439 74.33978-8.65704 17.97905-28.67358 36.18122-44.67602 40.62666-15.57802 4.32747-40.94585 3.76797-54.876893-1.21033zm75.376953-278.026061c-8.85472-15.10934-14.30406-43.317581-8.36834-43.317581 6.97229 15.126161 21.26491 28.620943 36.56863 38.037101 27.48682 13.30607 55.35848 7.93527 85.80838-16.53502 6.70348-5.38696 12.63984-9.195101 13.19203-8.462541 7.4352 11.538535 20.2965 20.967563 24.54769 34.375751 0 5.65728-24.35352 21.938881-43.57005 29.128621-47.6295 13.72053-80.04616 8.29297-108.17834-33.226331zm24.00223-34.926511 31.00911-34.3834792 34.46079 31.9006692c-11.78717 9.708131-20.29599 24.7747-33.76202 32.415591-10.64019-7.843736-26.52083-17.092193-31.70788-29.932781z" fill="#444"/></svg>