<svg height="297mm" viewBox="40 50 130 185" width="210mm" xmlns="http://www.w3.org/2000/svg"><path d="m71.65841 231.07249c1.82873-.96306 4.88973-3.43931 8.18802-6.62382 5.36917-5.18394 7.4176-8.5208 12.40368-20.20527 1.80083-4.2201 3.63953-8.39632 4.08601-9.28049.44647-.88416 5.95787-8.84281 12.24756-17.68589l11.43578-16.07831 4.78939.17271c6.9737.25148 6.63703.07 4.35254 2.34675-2.37117 2.3632-4.83397 5.63489-5.80896 7.7169-.40888.87312-1.29205 3.4925-1.96259 5.82083-.80135 2.7825-1.88695 5.69615-3.16764 8.50165-2.93373 6.42663-4.1319 10.13002-3.70875 11.46324.28844.90877 1.47887.6796 3.21558-.61905 3.97741-2.97414 8.86606-9.05837 11.97466-14.9032 4.33443-8.14963 6.28247-10.74872 10.30789-13.75285 12.26355-9.15215 15.91271-12.62646 15.91271-15.15024 0-.93698-.50202-1.93271-1.31077-2.59987-1.59435-1.31522-5.42473-2.68945-9.37337-3.36288-3.01749-.51464-4.10241-.50958-7.96899.0371-1.74625.2469-3.50663.36512-3.91196.26272-1.0165-.25681-1.26327-1.04848-1.5379-4.93391-.12856-1.81901-.35393-3.8787-.5008-4.57709-.34868-1.65796-.34628-15.30581.003-17.14763.51359-2.70821 1.57269-4.43896 4.79297-7.83262 2.99702-3.15838 3.02317-3.19728 8.07269-12.00721 17.4801-30.497705 17.15271-29.777315 18.62622-40.985455.5869-4.46421.52154-6.08167-.31769-7.86138-.86761-1.83988-3.30335-2.92724-4.6219-2.0633-1.33131.87231-1.53088 1.88201-1.54329 7.80802l-.0113 5.42395-1.71196 3.96875c-1.55862 3.61326-1.99902 4.34795-4.91675 8.20209-1.76263 2.32833-4.96774 6.73364-7.12247 9.78958-5.14579 7.297995-4.94175 7.054951-8.3927 9.997433-3.47836 2.965849-3.84911 3.403311-5.87825 6.935902-.83588 1.45521-1.89238 3.03408-2.34778 3.5086-1.67001 1.74013-4.40423 2.46309-5.43124 1.43608-.2636-.2636-1.04913-1.39356-1.74561-2.51102l-1.26634-2.03176.31346-6.147444c.17239-3.381095.23341-6.805272.13559-7.609281-.36882-3.0314-1.63839-4.7499-4.52833-6.12959-3.99111-1.90539-7.28036-1.37098-9.96927 1.61974-1.47968 1.64576-2.15875 3.49369-2.14969 5.849879.0102 2.659861.92354 4.299868 3.70817 6.658673 1.21795 1.031709 2.51403 2.308112 2.88017 2.83645 1.27836 1.844673.6054 4.276463-1.66204 6.005893-2.29554 1.75087-3.80537 1.7064-7.85925-.23149l-2.38072-1.13806-3.175.00014c-2.56295.00012-3.78704.1447-6.35.75003-2.97357.70233-11.02577 3.21341-15.92153 4.96516-3.20082 1.14528-6.54686 1.55735-12.6604 1.55915-8.616.003-15.47122 1.13545-15.47122 2.5568 0 .70378 1.74982 2.13029 3.37125 2.74836 1.3064.49799 2.32512.61097 7.14788.79273 3.09338.11658 6.3676.29038 7.27604.38622 2.75442.29058 13.965-.59333 22.15691-1.74698 5.35196-.75371 10.0467-.75269 12.96458.003 2.86435.74164 6.13708 2.31522 7.72834 3.7159 1.54855 1.36309 2.52346 3.07149 3.78173 6.62697.54074 1.52797 1.76059 4.32594 2.71076 6.21771 2.28427 4.54791 2.5971 5.53674 3.1362 9.91345l.45692 3.70945-2.77009 2.84584c-4.8689 5.00206-8.88305 10.59152-11.68127 16.26547-1.88006 3.8122-2.72796 6.27187-4.70996 13.66312-.88346 3.29459-2.02419 7.12126-2.53496 8.50371-1.33863 3.62317-4.78775 10.48751-9.23969 18.38855-2.13188 3.78353-4.95491 9.02228-6.27339 11.64166-1.31849 2.61938-3.27679 6.16865-4.35178 7.88728-2.09106 3.34305-2.89844 5.13362-2.63009 5.83293.23188.60429 1.42611.55111 2.70099-.1203z" fill="#010101" stroke-width=".264583"/></svg>