<svg height="14" viewBox="0 0 13 14" width="13" xmlns="http://www.w3.org/2000/svg"><path d="m8.883 7.844 2.391-2.32-3.297-.484-1.477-2.984-1.477 2.984-3.297.484 2.391 2.32-.57 3.289 2.953-1.555 2.945 1.555zm4.117-2.789q0 .172-.203.375l-2.836 2.766.672 3.906q.008.055.008.156 0 .391-.32.391-.148 0-.312-.094l-3.508-1.844-3.508 1.844q-.172.094-.312.094-.164 0-.246-.113t-.082-.277q0-.047.016-.156l.672-3.906-2.844-2.766q-.195-.211-.195-.375 0-.289.438-.359l3.922-.57 1.758-3.555q.148-.32.383-.32t.383.32l1.758 3.555 3.922.57q.438.07.438.359z" fill="#444"/></svg>