<svg height="14" viewBox="0 0 8 14" width="8" xmlns="http://www.w3.org/2000/svg"><path d="m4 9q0-.281-.156-.539-.008-.008-.121-.176t-.199-.297-.195-.344-.164-.395q-.031-.125-.164-.125t-.164.125q-.055.18-.164.395t-.195.344-.199.297-.121.176q-.156.258-.156.539 0 .414.293.707t.707.293.707-.293.293-.707zm4-1q0 1.656-1.172 2.828t-2.828 1.172-2.828-1.172-1.172-2.828q0-1.133.633-2.148.047-.07.488-.707t.789-1.18.777-1.391.648-1.574q.07-.234.266-.367t.398-.133.402.133.262.367q.219.727.648 1.574t.777 1.391.789 1.18.488.707q.633.992.633 2.148z" fill="#444"/></svg>