<svg height="14" viewBox="0 0 11 14" width="11" xmlns="http://www.w3.org/2000/svg"><path d="m11 10.977q0 .937-.57 1.48t-1.516.543h-6.828q-.945 0-1.516-.543t-.57-1.48q0-.414.027-.809t.109-.852.207-.848.336-.762.484-.633.668-.418.871-.156q.07 0 .328.168t.582.375.844.375 1.043.168 1.043-.168.844-.375.582-.375.328-.168q.477 0 .871.156t.668.418.484.633.336.762.207.848.109.852.027.809zm-2.5-6.977q0 1.242-.879 2.121t-2.121.879-2.121-.879-.879-2.121.879-2.121 2.121-.879 2.121.879.879 2.121z" fill="#444"/></svg>