<svg height="14" viewBox="0 0 11 14" width="11" xmlns="http://www.w3.org/2000/svg"><path d="m3 10.5q0 .203-.148.352t-.352.148-.352-.148-.148-.352.148-.352.352-.148.352.148.148.352zm8 .477q0 .945-.57 1.484t-1.516.539h-6.828q-.945 0-1.516-.539t-.57-1.484q0-.531.043-1.023t.187-1.078.371-1.035.633-.805.937-.473q-.172.406-.172.937v1.586q-.453.156-.727.547t-.273.867q0 .625.438 1.062t1.062.438 1.062-.438.438-1.062q0-.477-.277-.867t-.723-.547v-1.586q0-.484.195-.727 1.031.813 2.305.813t2.305-.813q.195.242.195.727v.5q-.828 0-1.414.586t-.586 1.414v.695q-.25.227-.25.555 0 .312.219.531t.531.219.531-.219.219-.531q0-.328-.25-.555v-.695q0-.406.297-.703t.703-.297.703.297.297.703v.695q-.25.227-.25.555 0 .312.219.531t.531.219.531-.219.219-.531q0-.328-.25-.555v-.695q0-.531-.27-.996t-.73-.73q0-.078.004-.332t0-.375-.02-.324-.055-.367-.102-.312q.531.117.937.473t.633.805.371 1.035.187 1.078.043 1.023zm-2.5-6.977q0 1.242-.879 2.121t-2.121.879-2.121-.879-.879-2.121.879-2.121 2.121-.879 2.121.879.879 2.121z" fill="#444"/></svg>