<svg height="14" viewBox="0 0 12 14" width="12" xmlns="http://www.w3.org/2000/svg"><path d="m7.586 9.719v1.648q0 .523-.305.523-.18 0-.352-.172v-2.352q.172-.172.352-.172.305 0 .305.523zm2.641.008v.359h-.703v-.359q0-.531.352-.531t.352.531zm-7.547-1.704h.836v-.734h-2.438v.734h.82v4.445h.781v-4.445zm2.25 4.446h.695v-3.859h-.695v2.953q-.234.328-.445.328-.141 0-.164-.164-.008-.023-.008-.273v-2.844h-.695v3.055q0 .383.062.57.094.289.453.289.375 0 .797-.477zm3.351-1.156v-1.539q0-.57-.07-.773-.133-.438-.555-.438-.391 0-.727.422v-1.695h-.695v5.18h.695v-.375q.352.43.727.43.422 0 .555-.43.07-.211.07-.781zm2.641-.079v-.102h-.711q0 .398-.016.477-.055.281-.312.281-.359 0-.359-.539v-.68h1.398v-.805q0-.617-.211-.906-.305-.398-.828-.398-.531 0-.836.398-.219.289-.219.906v1.352q0 .617.227.906.305.398.844.398.563 0 .844-.414.141-.211.164-.422.016-.07.016-.453zm-4.75-7.132v-1.641q0-.539-.336-.539t-.336.539v1.641q0 .547.336.547t.336-.547zm5.617 5.867q0 1.828-.203 2.734-.109.461-.453.773t-.797.359q-1.438.164-4.336.164t-4.336-.164q-.453-.047-.801-.359t-.449-.773q-.203-.875-.203-2.734 0-1.828.203-2.734.109-.461.453-.773t.805-.367q1.43-.156 4.328-.156t4.336.156q.453.055.801.367t.449.773q.203.875.203 2.734zm-7.797-9.969h.797l-.945 3.117v2.117h-.781v-2.117q-.109-.578-.477-1.656-.289-.805-.508-1.461h.828l.555 2.055zm2.891 2.602v1.367q0 .633-.219.922-.289.398-.828.398-.523 0-.82-.398-.219-.297-.219-.922v-1.367q0-.625.219-.914.297-.398.82-.398.539 0 .828.398.219.289.219.914zm2.617-1.266v3.898h-.711v-.43q-.414.484-.805.484-.359 0-.461-.289-.062-.187-.062-.586v-3.078h.711v2.867q0 .258.008.273.023.172.164.172.211 0 .445-.336v-2.977h.711z" fill="#444"/></svg>