<svg style="display: none;"><symbol viewBox="0 0 14 14" id="icon-briefcase"><title>briefcase</title> <path d="M5 2h4v-1h-4v1zM14 7v3.75q0 0.516-0.367 0.883t-0.883 0.367h-11.5q-0.516 0-0.883-0.367t-0.367-0.883v-3.75h5.25v1.25q0 0.203 0.148 0.352t0.352 0.148h2.5q0.203 0 0.352-0.148t0.148-0.352v-1.25h5.25zM8 7v1h-2v-1h2zM14 3.25v3h-14v-3q0-0.516 0.367-0.883t0.883-0.367h2.75v-1.25q0-0.312 0.219-0.531t0.531-0.219h4.5q0.312 0 0.531 0.219t0.219 0.531v1.25h2.75q0.516 0 0.883 0.367t0.367 0.883z"/> </symbol><symbol viewBox="0 0 10 14" id="icon-chevron-right"><title>chevron-right</title> <path d="M8.648 6.852l-5.797 5.797q-0.148 0.148-0.352 0.148t-0.352-0.148l-1.297-1.297q-0.148-0.148-0.148-0.352t0.148-0.352l4.148-4.148-4.148-4.148q-0.148-0.148-0.148-0.352t0.148-0.352l1.297-1.297q0.148-0.148 0.352-0.148t0.352 0.148l5.797 5.797q0.148 0.148 0.148 0.352t-0.148 0.352z"/> </symbol><symbol viewBox="0 0 14 14" id="icon-envelope-o"><title>envelope-o</title> <path d="M13 11.75v-6q-0.25 0.281-0.539 0.516-2.094 1.609-3.328 2.641-0.398 0.336-0.648 0.523t-0.676 0.379-0.801 0.191h-0.016q-0.375 0-0.801-0.191t-0.676-0.379-0.648-0.523q-1.234-1.031-3.328-2.641-0.289-0.234-0.539-0.516v6q0 0.102 0.074 0.176t0.176 0.074h11.5q0.102 0 0.176-0.074t0.074-0.176zM13 3.539v-0.191t-0.004-0.102-0.023-0.098-0.043-0.070-0.070-0.059-0.109-0.020h-11.5q-0.102 0-0.176 0.074t-0.074 0.176q0 1.312 1.148 2.219 1.508 1.187 3.133 2.477 0.047 0.039 0.273 0.23t0.359 0.293 0.348 0.246 0.395 0.215 0.336 0.070h0.016q0.156 0 0.336-0.070t0.395-0.215 0.348-0.246 0.359-0.293 0.273-0.23q1.625-1.289 3.133-2.477 0.422-0.336 0.785-0.902t0.363-1.027zM14 3.25v8.5q0 0.516-0.367 0.883t-0.883 0.367h-11.5q-0.516 0-0.883-0.367t-0.367-0.883v-8.5q0-0.516 0.367-0.883t0.883-0.367h11.5q0.516 0 0.883 0.367t0.367 0.883z"/> </symbol><symbol viewBox="0 0 14 14" id="icon-envelope"><title>envelope</title> <path d="M14 5.547v6.203q0 0.516-0.367 0.883t-0.883 0.367h-11.5q-0.516 0-0.883-0.367t-0.367-0.883v-6.203q0.344 0.383 0.789 0.68 2.828 1.922 3.883 2.695 0.445 0.328 0.723 0.512t0.738 0.375 0.859 0.191h0.016q0.398 0 0.859-0.191t0.738-0.375 0.723-0.512q1.328-0.961 3.891-2.695 0.445-0.305 0.781-0.68zM14 3.25q0 0.617-0.383 1.18t-0.953 0.961q-2.937 2.039-3.656 2.539-0.078 0.055-0.332 0.238t-0.422 0.297-0.406 0.254-0.449 0.211-0.391 0.070h-0.016q-0.18 0-0.391-0.070t-0.449-0.211-0.406-0.254-0.422-0.297-0.332-0.238q-0.711-0.5-2.047-1.426t-1.602-1.113q-0.484-0.328-0.914-0.902t-0.43-1.066q0-0.609 0.324-1.016t0.926-0.406h11.5q0.508 0 0.879 0.367t0.371 0.883z"/> </symbol><symbol viewBox="10 16 27 17" id="icon-expand"><title>expand</title> <path d="M33.17 17.17l-9.17 9.17-9.17-9.17-2.83 2.83 12 12 12-12z"/> </symbol><symbol viewBox="0 0 8 14" id="icon-map-marker"><title>map-marker</title> <path d="M6 5q0-0.828-0.586-1.414t-1.414-0.586-1.414 0.586-0.586 1.414 0.586 1.414 1.414 0.586 1.414-0.586 0.586-1.414zM8 5q0 0.852-0.258 1.398l-2.844 6.047q-0.125 0.258-0.371 0.406t-0.527 0.148-0.527-0.148-0.363-0.406l-2.852-6.047q-0.258-0.547-0.258-1.398 0-1.656 1.172-2.828t2.828-1.172 2.828 1.172 1.172 2.828z"/> </symbol><symbol viewBox="0 0 360 365" id="icon-om"><title>om</title> <metadata id="om-metadata823"> <rdf:RDF> <cc:Work rdf:about=""> <dc:format>image/svg+xml</dc:format> <dc:type rdf:resource="http://purl.org/dc/dcmitype/StillImage"/> <dc:title/> </cc:Work> </rdf:RDF> </metadata>  <sodipodi:namedview pagecolor="#ffffff" bordercolor="#666666" borderopacity="1" objecttolerance="10" gridtolerance="10" guidetolerance="10" inkscape:pageopacity="0" inkscape:pageshadow="2" inkscape:window-width="1440" inkscape:window-height="924" id="om-namedview819" showgrid="false" inkscape:zoom="1.5940054" inkscape:cx="178" inkscape:cy="183.5" inkscape:window-x="0" inkscape:window-y="23" inkscape:window-maximized="0" inkscape:current-layer="svg817"/> <path d="M 90.456847,353.9498 C 51.797347,340.13485 23.72672,305.75839 12.612487,258.6184 C 7.5684267,237.22321 6.1421397,201.86984 10.323594,201.86984 C 11.712834,201.86984 15.42322,211.57056 18.568972,223.427 C 25.452892,249.37152 37.19436,273.76855 48.535988,285.69407 C 67.374717,305.50242 114.0356,313.26029 140.92106,301.05394 C 161.86409,291.54544 170.35697,268.94603 161.24995,246.95931 C 154.21242,229.96943 138.24701,224.28836 108.50834,228.19197 C 108.50834,228.19197 90.282834,208.57398 84.476417,173.73548 L 103.15738,175.42939 C 125.65731,177.46962 142.64532,172.49605 151.46236,161.28728 C 159.74765,150.75419 159.5685,146.68046 150.34841,135.96157 C 137.04396,120.49428 113.15511,124.41248 64.786577,149.99522 L 40.381632,109.08518 L 50.613137,101.2812 C 76.253387,81.724339 120.77357,71.947329 146.11011,80.309169 C 169.18841,87.925649 186.12724,118.14755 181.60247,143.63298 C 178.54327,160.86286 164.72752,184.99524 154.05369,191.75339 L 144.84862,197.58162 L 157.56351,203.31522 C 179.17018,213.05833 192.36061,205.61034 208.12001,174.76849 C 229.92949,132.0869 244.0745,121.0378 276.96658,120.99051 C 292.28176,120.96847 297.73268,122.57499 308.90312,130.4031 C 336.78213,149.94016 351.9622,190.39693 348.62804,236.27272 C 344.40474,294.37435 316.88374,329.61601 275.73415,329.61601 C 253.15086,329.61601 238.59451,321.69526 227.00729,303.10156 C 216.82976,286.76927 212.24334,254.42288 218.08805,240.19369 C 220.89208,233.36732 221.39892,233.13578 221.58223,238.59686 C 221.91916,248.63689 233.34159,264.95549 243.82827,270.37835 C 269.55794,283.68369 306.49479,266.96693 321.10832,235.4032 C 332.20339,211.4394 326.25105,165.21656 311.02084,157.06552 C 307.83453,155.36024 299.96089,153.96502 293.5244,153.96502 C 279.84214,153.96502 269.09709,163.80155 254.03263,190.11774 C 248.82442,199.21613 240.05943,210.97175 234.55486,216.24128 C 225.61134,224.80312 222.41769,225.82225 204.53067,225.82225 L 184.51412,225.82225 L 190.98415,240.19369 C 200.2451,260.76437 199.80694,294.18704 190.00976,314.53347 C 181.35272,332.51252 161.33618,350.71469 145.33374,355.16013 C 129.75572,359.4876 104.38789,358.9281 90.456847,353.9498 z M 165.8338,75.923739 C 156.97908,60.814399 151.52974,32.606158 157.46546,32.606158 C 164.43775,47.732319 178.73037,61.227101 194.03409,70.643259 C 221.52091,83.949329 249.39257,78.578529 279.84247,54.108239 C 286.54595,48.721279 292.48231,44.913138 293.0345,45.645698 C 300.4697,57.184233 313.331,66.613261 317.58219,80.021449 C 317.58219,85.678729 293.22867,101.96033 274.01214,109.15007 C 226.38264,122.8706 193.96598,117.44304 165.8338,75.923739 z M 189.83603,40.997228 L 220.84514,6.6137488 L 255.30593,38.514418 C 243.51876,48.222549 235.00994,63.289118 221.54391,70.930009 C 210.90372,63.086273 195.02308,53.837816 189.83603,40.997228 z" id="om-path815"/> </symbol><symbol viewBox="0 0 11 14" id="icon-phone"><title>phone</title> <path d="M11 9.687q0 0.211-0.078 0.551t-0.164 0.535q-0.164 0.391-0.953 0.828-0.734 0.398-1.453 0.398-0.211 0-0.41-0.027t-0.449-0.098-0.371-0.113-0.434-0.16-0.383-0.141q-0.766-0.273-1.367-0.648-1-0.617-2.066-1.684t-1.684-2.066q-0.375-0.602-0.648-1.367-0.023-0.070-0.141-0.383t-0.16-0.434-0.113-0.371-0.098-0.449-0.027-0.41q0-0.719 0.398-1.453 0.438-0.789 0.828-0.953 0.195-0.086 0.535-0.164t0.551-0.078q0.109 0 0.164 0.023 0.141 0.047 0.414 0.594 0.086 0.148 0.234 0.422t0.273 0.496 0.242 0.418q0.023 0.031 0.137 0.195t0.168 0.277 0.055 0.223q0 0.156-0.223 0.391t-0.484 0.43-0.484 0.414-0.223 0.359q0 0.070 0.039 0.176t0.066 0.16 0.109 0.187 0.090 0.148q0.594 1.070 1.359 1.836t1.836 1.359q0.016 0.008 0.148 0.090t0.187 0.109 0.16 0.066 0.176 0.039q0.141 0 0.359-0.223t0.414-0.484 0.43-0.484 0.391-0.223q0.109 0 0.223 0.055t0.277 0.168 0.195 0.137q0.195 0.117 0.418 0.242t0.496 0.273 0.422 0.234q0.547 0.273 0.594 0.414 0.023 0.055 0.023 0.164z"/> </symbol><symbol viewBox="0 0 13 14" id="icon-quote-left"><title>quote-left</title> <path d="M6 7.5v3q0 0.625-0.438 1.062t-1.062 0.438h-3q-0.625 0-1.062-0.438t-0.438-1.062v-5.5q0-0.813 0.316-1.551t0.855-1.277 1.277-0.855 1.551-0.316h0.5q0.203 0 0.352 0.148t0.148 0.352v1q0 0.203-0.148 0.352t-0.352 0.148h-0.5q-0.828 0-1.414 0.586t-0.586 1.414v0.25q0 0.312 0.219 0.531t0.531 0.219h1.75q0.625 0 1.062 0.438t0.438 1.062zM13 7.5v3q0 0.625-0.438 1.062t-1.062 0.438h-3q-0.625 0-1.062-0.438t-0.438-1.062v-5.5q0-0.813 0.316-1.551t0.855-1.277 1.277-0.855 1.551-0.316h0.5q0.203 0 0.352 0.148t0.148 0.352v1q0 0.203-0.148 0.352t-0.352 0.148h-0.5q-0.828 0-1.414 0.586t-0.586 1.414v0.25q0 0.312 0.219 0.531t0.531 0.219h1.75q0.625 0 1.062 0.438t0.438 1.062z"/> </symbol><symbol viewBox="170 185 250 400" id="icon-rolfing"><title>rolfing</title> <g> <g> <path d="M 345.464 258.653C 347.594 250.88 349.408 247.626 346.84 243.895C 341.973 236.823 332.009 231.312 333.382 216.677C 334.101 209.014 339.277 199.353 346.281 194.624C 351.446 191.138 360.14 191.031 367.175 191.883C 374.298 192.745 383.145 194.046 388.382 198.301C 391.444 200.791 393.05 202.192 395.052 206.797C 395.92 208.792 395.682 209.97 395.682 212.524C 395.682 215.125 395.194 217.11 394.926 219.446C 394.418 223.864 394.153 229.651 397.191 233.858C 398.324 235.425 396.549 236.4 394.958 237.507C 393.772 238.332 394.079 239.489 393.888 241.032C 393.535 243.877 392.728 246.754 390.772 248.709C 388.447 251.035 379.977 249.463 375.827 249.463C 370.04 249.463 371.184 255.887 371.659 258.212C 372.36 261.646 380.479 274.49 382.97 278.473C 387.756 286.127 387.474 287.15 391.275 295.386C 393.107 301.341 393.277 301.966 393.542 307.798C 394.486 328.627 387.06 341.35 389.263 361.839C 390.195 370.516 391.543 386.342 390.772 396.78C 390.209 404.435 389.331 412.69 386.242 425.98C 384.103 432.394 381.762 438.858 379.772 445.389C 378.985 447.973 379.54 451.289 378.69 455.081C 377.175 461.842 373.441 467.481 372.272 475.945C 371.453 482.147 370.258 493.451 370.258 500.109C 370.258 505.641 370.572 511.339 370.572 516.975C 370.688 522.021 371.493 525.917 375.269 529.093C 381.69 534.494 389.441 538.181 396.436 539.757C 398.744 540.276 400.024 539.167 399.946 541.196C 399.927 541.721 399.088 542.443 397.778 542.109C 397.155 541.951 396.585 542.559 395.996 542.523C 395.269 542.478 394.471 542.234 393.816 542.376C 392.859 542.584 392.301 543.424 391.263 543.327C 390.445 543.25 389.684 542.593 388.998 542.748C 388.073 542.956 387.931 543.566 386.445 543.596C 385.102 543.623 384.042 542.567 383.109 542.914C 382.596 543.106 381.959 543.486 381.567 543.489C 379.164 543.513 377.106 543.732 375.113 543.495C 371.871 543.11 368.131 541.894 364.816 542.174L 356.949 542.839C 351.242 543.321 349.578 538.662 353.004 533.114C 354.314 530.993 354.963 521.422 354.777 519.743C 354.592 518.066 354.517 517.17 354.4 516.597C 352.261 506.777 350.336 495.26 349.892 484.89C 349.53 476.47 352.123 473.35 352.826 468.8C 354.577 457.476 354.366 439.185 353.897 418.931C 353.785 414.113 352.078 412.298 348.77 408.155C 345.805 404.442 341.964 397.686 341.31 394.734C 339.807 387.94 340.867 378.195 342.211 371.64C 343.317 366.245 343.635 363.611 344.521 360.05C 345.995 354.122 346.723 352.887 346.723 346.594C 346.723 341.957 345.375 335.699 344.866 330.987C 343.748 320.636 340.587 305.992 340.178 301.125C 339.769 296.257 339.519 292.708 340.083 286.045C 341.065 274.461 343.334 266.426 345.464 258.653z"/> <path d="M 364.217 220.453C 360.122 220.768 357.483 224.455 357.483 228.316C 357.483 230.661 358.049 233.926 360.064 236.559C 360.847 237.583 362.954 239.379 363.861 239.865C 364.023 239.952 364.225 235.077 363.838 235.077C 363.352 235.077 358.98 234.936 360.064 227.628C 360.512 224.607 363.546 224.02 363.99 224.199C 364.018 224.21 364.016 221.065 364.217 220.453z"/> <path d="M 365.664 405.84L 365.916 421.007C 366.211 421.894 371.562 424.505 372.964 423.967C 375.217 423.1 377.072 418.899 377.872 416.414C 380.303 408.865 379.414 402.665 378.565 394.829C 377.203 382.258 374.138 365.403 372.146 353.891C 369.249 337.151 369.897 325.056 371.076 311.889C 371.537 306.741 372.385 300.449 372.228 294.068C 371.971 283.614 370.874 273.224 367.489 269.535C 366.024 268.253 364.676 266.051 363.021 265.758C 357.746 264.826 361.488 268.61 364.277 270.025C 365.203 270.495 367.723 274.28 368.457 276.913C 369.94 282.223 370.765 288.763 370.275 298.48C 369.933 305.301 368.658 317.101 368.123 328.767C 367.636 339.388 368.244 339.501 368.811 345.087C 370.534 356.167 372.667 368.203 374.411 378.153C 375.317 383.319 376.921 396.908 377.287 404.702C 377.42 407.528 377.018 412.14 376.866 413.074C 376.628 414.537 373.702 421.64 372.586 421.512C 371.121 421.343 365.974 419.063 367.489 417.546C 368.355 416.68 369.414 415.332 369.251 413.394C 369.022 410.669 368.084 408.24 365.664 405.84z"/> <path d="M 363.371 399.304C 360.327 399.304 356.162 401.091 354.053 403.468C 352.897 404.771 350.793 407.229 349.647 409.441C 351.693 411.891 350.746 410.987 351.366 411.776C 351.935 410.519 352.054 409.846 352.856 408.831C 354.79 406.385 359.753 402.187 363.497 402.081C 363.271 397.542 363.371 403.038 363.371 399.304z"/> <path d="M 347.855 298.61L 344.079 298.736C 347.147 300.28 348.032 312.21 347.697 321.52C 347.44 328.696 348.467 333.201 348.736 337.883L 349.177 345.554C 349.519 351.496 350.758 351.011 346.435 350.956C 346.167 351.864 346.336 351.693 346.193 353.052C 347.248 353.048 347.309 353.044 348.422 353.044C 351.277 353.044 349.933 353.326 351.379 357.449C 354.575 366.556 353.071 362.286 354.903 367.707C 355.911 370.441 357.169 374.9 358.113 377.026C 359.502 380.153 359.966 381.733 361.448 384.698C 362.298 386.4 362.932 388.267 363.459 389.982C 363.459 387.571 363.322 389.697 363.501 381.581C 360.041 374.537 357.206 367.735 354.651 360.281C 352.693 354.567 352.43 351.961 351.739 347.064C 351.083 342.404 350.292 334.34 350.212 328.586C 350.066 318.174 350.379 306.813 347.855 298.61z"/> <path d="M 378.354 394.892C 384.307 393.858 386.013 393.76 391.108 394.263C 390.869 395.546 390.794 396.845 390.794 398.144C 388.614 396.436 382.829 397.158 378.732 397.852C 378.646 397.473 378.609 395.144 378.354 394.892z"/> <path d="M 389.091 350.938L 371.422 350.936L 371.422 352.982L 389.028 352.98L 389.091 350.938z"/> </g> <g> <path d="M 315.258 185.59L 363.987 185.59L 363.976 188.422L 315.258 188.422L 315.258 185.59z"/> <path d="M 317.775 185.59L 318.306 550.471L 315.123 550.488L 314.943 185.606L 317.775 185.59z"/> <path d="M 367.076 185.575L 416.259 185.369L 416.259 188.331L 367.068 188.329L 367.076 185.575z"/> <path d="M 314.978 257.408L 345.817 257.39L 344.995 260.361L 314.98 260.357L 314.978 257.408z"/> <path d="M 371.492 257.332L 416.259 257.368L 416.259 260.435L 372.443 260.357L 371.492 257.332z"/> <path d="M 315.611 296.146L 339.848 296.146L 340.018 299.158L 315.611 299.315L 315.611 296.146z"/> <path d="M 391.548 296.273L 416.259 296.311L 416.259 299.143L 392.397 299.132L 391.548 296.273z"/> <path d="M 315.258 325.293L 344.166 325.411L 344.522 328.127L 315.258 328.124L 315.258 325.293z"/> <path d="M 392.508 325.545L 415.315 325.545L 415.315 328.377L 392.066 328.374L 392.508 325.545z"/> <path d="M 315.887 361.477L 344.184 361.477L 343.606 364.309L 315.887 364.309L 315.887 361.477z"/> <path d="M 389.224 361.477L 415.944 361.477L 415.944 364.309L 389.519 364.309L 389.224 361.477z"/> <path d="M 315.057 415.596L 353.461 415.596L 353.897 418.428L 315.059 418.428L 315.057 415.596z"/> <path d="M 388.415 415.596L 415.001 415.596L 415.001 418.428L 387.874 418.428L 388.415 415.596z"/> <path d="M 315.082 467.04L 353.075 467.04L 352.622 469.872L 315.083 469.872L 315.082 467.04z"/> <path d="M 374.546 467.04L 414.875 467.04L 414.875 469.872L 373.612 469.872L 374.546 467.04z"/> <path d="M 365.916 547.747L 414.56 547.747L 414.56 550.579L 365.916 550.579L 365.916 547.747z"/> <path d="M 416.259 185.369L 416.259 550.579L 413.428 550.579L 413.428 185.369L 416.259 185.369z"/> <path d="M 365.559 155.796L 365.559 186.136"/> <path d="M 345.817 257.39L 371.492 257.332L 372.443 260.357L 344.991 260.378L 345.817 257.39z"/> <path d="M 339.848 296.146L 391.548 296.273L 392.397 299.132L 340.018 299.158L 339.848 296.146z"/> <path d="M 344.182 361.485L 389.224 361.477L 389.519 364.309L 343.606 364.309L 344.182 361.485z"/> <path d="M 353.461 415.596L 388.415 415.596L 387.874 418.428L 353.897 418.428L 353.461 415.596z"/> <path d="M 353.075 467.04L 374.546 467.04L 373.612 469.872L 352.622 469.872L 353.075 467.04z"/> <path d="M 367.076 185.575L 365.916 550.579L 362.832 550.561L 363.987 185.59L 367.076 185.575z"/> <path d="M 315.178 547.747L 362.828 547.767L 362.832 550.559L 315.178 550.579L 315.178 547.747z"/> <path d="M 344.166 325.411L 392.508 325.545L 392.066 328.374L 344.522 328.127L 344.166 325.411z"/> <path d="M 380.308 562.361C 380.308 561.08 380.641 559.84 381.305 558.638C 381.935 557.488 382.829 556.581 383.995 555.914C 385.161 555.247 386.406 554.913 387.73 554.913C 389.055 554.913 390.294 555.241 391.454 555.904C 392.614 556.566 393.521 557.478 394.183 558.638C 394.845 559.797 395.179 561.038 395.179 562.361C 395.179 563.696 394.845 564.942 394.183 566.103C 393.521 567.262 392.62 568.168 391.47 568.83C 390.32 569.493 389.081 569.821 387.757 569.811C 385.711 569.821 383.958 569.106 382.496 567.67C 381.038 566.229 380.308 564.46 380.308 562.361L 380.308 562.361zM 381.409 562.346C 381.4 563.443 381.685 564.501 382.263 565.529C 382.804 566.51 383.566 567.284 384.562 567.856C 385.553 568.423 386.617 568.709 387.746 568.709C 389.493 568.719 390.982 568.1 392.212 566.848C 393.446 565.594 394.066 564.094 394.077 562.346C 394.066 560.608 393.441 559.119 392.206 557.885C 390.967 556.651 389.484 556.026 387.746 556.015C 385.992 556.026 384.504 556.64 383.275 557.864C 382.04 559.082 381.421 560.577 381.409 562.346L 381.409 562.346zM 385.256 558.251L 387.899 558.251C 389.558 558.315 390.383 559.067 390.383 560.518C 390.362 561.365 390.065 561.975 389.499 562.346L 389.081 562.578L 390.478 566.055L 388.99 566.055L 387.746 562.845L 386.421 562.845L 386.421 566.055L 385.256 566.055L 385.256 558.251L 385.256 558.251zM 386.421 559.416L 386.421 561.679L 387.959 561.679C 388.768 561.679 389.185 561.303 389.218 560.545C 389.24 559.803 388.82 559.428 387.959 559.416L 386.421 559.416z"/> <g> <path d="M 364.38 557.853L 364.38 550.543"/> <path d="M 356.697 564.471C 357.502 566.829 363.433 583.117 364.599 583.153C 365.051 583.167 372.181 565.905 373.004 563.902C 373.735 562.122 371.385 563.441 369.474 562.956L 369.161 562.267C 369.161 560.967 369.457 561.144 369.845 560.095C 371.005 556.953 367.017 557.42 364.631 557.483L 364.382 557.483C 361.995 557.42 358.316 556.952 359.478 560.095C 359.866 561.145 360.288 561.282 360.288 562.583L 359.975 562.956C 357.984 563.327 355.892 562.111 356.697 564.471z"/> <path d="M 363.875 564.415C 362.827 564.446 359.926 563.271 360.349 566.308C 360.448 567.022 360.781 569.656 361.923 569.021C 362.394 568.759 362.488 567.943 362.363 567.443C 362.049 566.19 362.432 566.094 364.315 566.308C 365.334 566.424 367.274 566.728 367.274 565.235C 367.274 564.055 365.35 564.372 363.875 564.415z"/> </g> </g> <g> <path d="M 208.278 359.117C 210.412 358.585 214.404 358.787 218.535 358.64C 225.898 358.379 234.047 358.546 235.338 362.421C 237.7 369.511 251.493 402.564 244.62 405.37C 235.36 409.15 222.583 409.791 212.684 411.505C 208.924 412.156 207.331 414.569 205.648 413.963C 203.963 413.357 202.186 409.73 200.57 405.527C 197.767 398.237 197.895 391.133 197.895 382.873C 198.327 377.193 199.099 373.541 200.823 368.258C 201.667 365.674 203.116 363.781 204.042 361.348C 205.204 358.3 206.4 359.461 208.278 359.117z"/> <path d="M 243.676 425.821C 244.884 425.781 245.053 432.146 246.186 437.925C 246.363 442.901 248.754 443.169 245.501 451.935C 245.201 453.28 244.168 458.355 242.144 462.117C 240.414 465.335 238.023 468.476 236.306 471.384C 233.78 475.664 233.02 479.307 232.349 479.404C 231.241 479.246 232.79 472.674 234.604 465.187C 236.085 462.729 237.422 460.597 238.979 458.182C 239.938 455.459 240.067 453.044 240.183 450.993C 240.288 449.136 240.523 447.874 239.79 444.752C 239.436 443.144 239.523 442.507 240.216 438.976C 240.216 437.661 240.828 435.711 241.189 434.133C 242.112 430.101 242.862 425.826 243.676 425.821z"/> <path d="M 233.293 508.888C 232.908 509.324 238.71 517.065 241.756 519.87C 244.706 522.586 243.797 523.347 249.686 522.733C 257.47 521.923 250.109 517.776 246.571 516.219C 243.879 515.034 241.484 514.279 239.02 512.663C 236.995 511.336 234.123 509.374 233.293 508.888z"/> <path d="M 210.481 510.619L 210.795 511.405C 210.331 509.959 209.285 510.921 209.285 511.94C 209.285 512.647 208.423 513.512 208.247 514.111C 207.798 515.639 207.849 516.849 208.121 518.013C 208.291 518.739 209.229 519.759 209.977 518.831C 210.3 518.431 210.417 516.976 210.417 516.408C 210.417 515.732 210.351 515.309 210.607 514.521C 211.173 512.772 211.248 512.924 210.481 510.619z"/> <path d="M 206.233 360.376L 229.045 360.376C 233.162 366.984 242.532 378.782 241.945 389.638C 241.317 401.267 250.095 405.056 233.922 404.583C 226.485 404.804 216.691 407.46 211.11 410.248C 206.921 413.697 206.617 413.193 204.867 413.374C 204.576 413.585 203.52 410.296 202.3 406.688C 199.664 398.887 198.751 395.709 198.556 386.246C 198.45 381.141 199.013 376.414 200.822 371.957C 202.68 367.379 203.966 365.133 206.233 360.376z"/> <path d="M 256.112 386.349C 258.141 392.522 258.942 397.881 258.938 402.635C 258.934 406.575 258.647 410.158 256.797 414.495C 255.623 417.248 253.218 416 251.868 413.301C 251.657 412.88 251.949 412.477 251.775 412.222C 250.773 410.756 251.112 411.189 250.056 411.141C 249.358 411.11 249.271 409.962 248.575 410.133C 248.208 410.223 248.015 409.211 247.584 409.428C 246.933 409.757 246.688 409.019 246.414 409.208C 245.98 409.507 245.178 409.919 245.56 410.327C 245.843 410.63 244.834 410.784 245.215 411.161C 245.519 411.46 244.91 411.669 244.634 412.25C 244.321 412.909 244.078 413.798 243.898 414.41C 242.113 420.443 240.212 427.538 238.831 431.801C 236.938 437.642 238.677 448.656 237.667 454.173C 232.942 463.637 229.535 469.842 228.825 481.767C 228.683 484.155 228.462 488.427 228.571 493.196C 228.703 498.953 229.88 505.372 231.121 510.21C 232.711 515.089 238.957 520.532 242.47 524.107C 242.796 524.438 243.077 523.677 244.018 525.008C 244.391 525.536 244.456 525.042 244.845 525.274C 245.344 525.571 245.979 526.323 246.227 526.481C 247.31 527.164 246.674 527.812 248.026 528.211C 252.241 529.456 256.585 531.859 250.944 533.934C 245.444 534.81 240.419 536.401 235.085 535.454C 232.819 534.365 231.716 532.632 228.656 532.313C 220.52 531.465 218.757 529.182 213.532 528.776C 208.699 528.574 210.984 521.503 211.739 519.083C 213.613 513.078 210.716 494.984 210.135 489.38C 209.237 480.717 208.152 473.71 208.907 464.716C 209.705 460.033 212.337 455.171 212.337 450.648C 210.746 444.272 209.317 439.67 208.278 431.65C 208.12 428.86 205.438 419.174 204.534 416.529C 201.131 406.572 195.376 400.245 196.794 386.491C 197.61 378.572 197.337 372.353 201.796 364.687C 204.02 360.864 205.442 356.833 207.456 354.934C 209.575 353.974 208.588 353.229 207.895 351.292C 207.443 350.026 207.363 349.262 208.458 347.981C 210.946 345.076 210.137 339.141 208.631 333.069C 207.695 329.292 205.436 323.22 204.439 320.187C 202.652 314.753 201.215 311.012 199.784 307.525C 198.439 304.249 197.406 301.197 196.26 297.172C 193.838 291.971 194.758 284.042 195.02 276.327C 195.375 273.404 195.634 270.253 196.382 267.368C 197.511 263.013 199.433 258.943 201.923 254.624C 204.734 249.744 204.874 246.697 202.748 242.856C 200.838 239.406 198.242 234.536 196.874 229.633C 195.896 226.126 195.285 222.316 195.196 218.791C 195.161 217.412 195.472 216.077 195.472 214.821C 195.472 211.12 196.702 208.198 197.744 205.526C 198.723 203.015 199.598 200.637 201.011 198.77C 204.685 193.916 207.399 190.89 214.524 190.153C 216.654 189.933 218.717 189.226 220.963 189.24C 225.563 189.268 230.295 189.64 234.924 190.921C 243.453 193.282 251.517 197.546 256.511 202.379C 259.561 205.332 262.124 207.106 262.011 214.474C 261.905 221.341 259.807 227.65 260.84 232.952C 261.206 234.833 262.648 237.1 262.514 238.2C 262.361 239.457 260.829 239.95 259.522 240.397C 258.102 240.883 257.566 241.901 257.529 242.459C 257.276 246.349 255.111 248.98 253.083 251.099C 251.984 252.248 250.932 252.894 248.679 253.26C 246.133 253.673 241.98 252.409 239.054 253.316C 236.083 254.236 235.49 255.285 235.161 259.095C 235.031 260.598 236.292 263.815 237.604 266.144C 243.669 273.82 249.902 290.074 253.042 301.769C 253.783 304.526 255.546 311.976 256.325 316.723C 259.02 333.128 261.831 341.259 261.831 358.802C 261.327 361.51 259.849 363.697 259.849 366.858C 259.849 369.268 260.235 370.227 260.326 371.106C 260.417 371.985 260.401 372.533 259.22 374.625C 258.748 375.46 257.441 375.189 256.918 376.265C 256.177 377.793 254.445 378.709 254.745 380.765C 254.99 382.451 255.791 385.061 256.112 386.349L 256.112 386.349zM 206.233 360.376C 203.966 365.133 202.68 367.379 200.822 371.957C 199.013 376.414 198.45 381.141 198.556 386.246C 198.751 395.709 199.664 398.887 202.3 406.688C 203.52 410.296 204.576 413.585 204.867 413.374C 206.617 413.193 206.921 413.697 211.11 410.248C 216.691 407.46 226.485 404.804 233.922 404.583C 250.095 405.056 241.317 401.267 241.945 389.638C 242.532 378.782 233.162 366.984 229.045 360.376L 206.233 360.376z"/> <path d="M 252.906 377.667C 249.989 371.565 243.567 359.75 240.276 349.491C 239.712 347.732 238.599 342.816 237.545 337.572C 236.274 331.242 235.125 324.61 235.18 321.735C 235.294 315.874 233.858 305.972 234.865 303.958L 235.275 294.835C 235.344 293.299 235.664 284.257 235.37 284.159C 234.633 279.068 233.117 276.629 230.771 272.869C 230.225 271.993 226.173 268.044 227.592 266.76C 227.893 266.488 228.895 266.61 229.89 267.443C 232.395 270.15 234.833 274.251 236.384 279.238C 238.796 289.82 237.949 303.634 237.949 309.273C 238.095 315.648 237.448 326.32 239.792 335.895C 241.645 348.08 243.423 351.613 245.882 357.223C 247.799 361.739 248.45 362.839 249.22 364.415C 250.427 367.205 255.814 367.144 255.642 370.598C 255.611 371.985 254.381 372.43 254.193 373.248C 253.711 375.347 256.984 371.544 257.908 371.544C 259.233 371.544 259.481 372.738 258.837 373.768C 257.076 374.757 255.642 376.038 255.642 376.844C 255.39 377.916 255.592 377.266 256.46 377.475C 256.272 378.295 256.35 382.362 255.26 382.75C 255.078 382.815 253.296 378.483 252.906 377.667z"/> <path d="M 216.081 308.05C 215.843 304.937 215.361 303.596 216.352 303.432C 217.059 303.316 218.458 306.154 218.63 308.836L 219.889 328.501C 220.342 335.58 223.049 344.057 224.86 350.432C 226.317 354.701 228.689 357.926 227.196 357.944C 224.283 357.981 216.249 358.173 210.795 358.173C 207.204 358.173 209.997 353.101 209.348 351.595C 209.196 351.242 206.963 349.175 210.167 347.475C 213.864 345.613 219.058 351.271 223.256 352.165C 223.595 351.04 221.668 348.173 220.953 345.036C 219.838 340.143 218.85 335.834 218.221 332.341C 217.04 325.793 215.924 314.596 216.081 308.05z"/> </g> <g> <path d="M 278.287 414.967L 288.198 409.303L 288.198 455.713L 277.972 463.579L 278.287 414.967z"/> <path d="M 272.938 466.726L 277.808 465.695L 280.51 462.64L 282.71 465.277L 282.221 543.323L 273.589 547.582L 272.938 466.726z"/> <path d="M 182.635 250.564L 173.195 250.564L 173.038 282.343L 188.77 293.63L 188.77 256.385L 182.477 256.543L 182.635 250.564z"/> <path d="M 196.951 352.667L 178.072 352.667L 178.072 405.842L 191.183 415.293L 196.007 415.281L 196.007 412.764L 194.12 412.764L 191.602 409.461L 191.602 361.162L 192.861 359.746L 196.951 359.746L 196.951 352.667z"/> <path d="M 268.691 414.131L 271.837 414.131L 271.837 358.645L 268.691 358.645L 268.691 414.131z"/> <path d="M 271.365 408.359L 287.254 408.988L 289.677 406.943L 271.365 405.999L 271.365 408.359z"/> <path d="M 257.977 326.929L 284.853 329.719L 286.31 327.338L 257.327 324.585L 257.977 326.929z"/> <path d="M 284.58 359.903L 295.435 352.195L 294.648 320.73L 284.266 328.124L 284.58 359.903z"/> <path d="M 182.477 317.899L 192.788 322.692L 192.704 298.548L 182.005 292.569L 182.477 317.899z"/> <path d="M 196.48 358.488L 199.626 358.488L 199.626 323.531L 196.48 323.531L 196.48 358.488z"/> <path d="M 269.32 294.457L 271.68 294.457L 271.68 256.857L 269.32 256.857L 269.32 294.457z"/> <path d="M 281.906 324.349L 284.266 324.349L 284.266 294.3L 281.906 294.3L 281.906 324.349z"/> <path d="M 195.177 293.671L 195.176 296.267L 192.704 296.306L 190.973 298.862L 186.725 296.03L 188.77 293.63L 195.177 293.671z"/> <path d="M 284.338 294.08L 251.238 294.143L 251.227 296.612L 284.266 296.612L 284.338 294.08z"/> <path d="M 283.514 322.146L 257.718 322.146L 257.726 324.623L 284.266 324.349L 283.514 322.146z"/> <path d="M 204.997 321.832L 191.37 321.832L 194.784 324.036L 205.012 324.036L 204.997 321.832z"/> <path d="M 257.842 323.873L 257.847 325.765L 270.893 326.709L 267.52 322.933L 257.842 323.873z"/> <path d="M 294.648 320.73L 283.007 320.73L 283.007 322.146L 294.02 322.461L 294.648 320.73z"/> <path d="M 284.558 357.662L 258.622 357.701L 258.744 359.903L 284.58 359.903L 284.558 357.662z"/> <path d="M 206.949 357.701L 192.074 357.701L 192.145 359.746L 207.02 359.746L 206.949 357.701z"/> <path d="M 190.013 414.047L 242.26 365.406"/> <path d="M 199.415 414.467L 246.036 371.066"/> <path d="M 261.093 367.14L 270.458 358.421"/> <path d="M 250.038 387.756L 270.327 368.868"/> <path d="M 254.193 392.935L 270.201 378.033"/> <path d="M 252.745 404.271L 270.452 387.785"/> <path d="M 252.545 415.18L 270.552 398.416"/> <path d="M 261.984 414.677L 270.578 406.676"/> <path d="M 191.036 368.235L 200.833 359.115"/> <path d="M 190.922 377.021L 209.659 359.577"/> <path d="M 190.194 386.963L 219.387 359.786"/> <path d="M 190.637 396.654L 229.922 360.081"/> <path d="M 189.937 405.59L 239.362 359.577"/> <path d="M 211.84 413.963L 246.154 382.017"/> <path d="M 222.502 413.879L 248.999 389.21"/> <path d="M 231.904 414.299L 253.186 394.486"/> <path d="M 195.378 466.959L 198.525 466.959L 198.525 414.338L 195.378 414.338L 195.378 466.959z"/> <path d="M 276.242 465.624L 279.389 465.624L 279.389 414.023L 276.242 414.023L 276.242 465.624z"/> <path d="M 187.197 546.803L 189.715 546.803L 189.715 464.365L 187.197 464.365L 187.197 546.803z"/> <path d="M 271.208 547.549L 273.725 547.549L 273.725 465.31L 271.208 465.31L 271.208 547.549z"/> <path d="M 208.734 464.366L 187.512 464.366L 187.526 467.128L 208.745 467.129L 208.734 464.366z"/> <path d="M 278.699 465.063L 240.414 464.983L 240.375 467.398L 278.715 467.639L 278.699 465.063z"/> <path d="M 272.603 545.026L 187.219 545.026L 187.207 547.549L 273.011 547.549L 272.603 545.026z"/> <path d="M 203.674 412.799L 191.775 412.799L 191.784 415.309L 203.634 415.309L 203.674 412.799z"/> <path d="M 182.477 185.59L 279.231 185.59L 279.231 256.942L 236.006 256.942L 236.001 254.379L 271.365 254.34L 271.365 187.95L 185.309 187.95L 185.309 254.34L 201.572 254.34L 201.546 256.858L 182.477 256.857L 182.477 185.59z"/> <path d="M 195.177 293.671L 251.238 294.143L 251.227 296.612L 195.176 296.267L 195.177 293.671z"/> <path d="M 203.674 412.799L 246.523 413.638L 246.442 416.107L 203.634 415.309L 203.674 412.799z"/> <path d="M 208.773 464.366L 240.414 464.983L 240.395 467.398L 208.745 467.129L 208.773 464.366z"/> <path d="M 279.553 413.575L 244.14 413.591L 244.132 416.064L 279.48 416.107L 279.553 413.575z"/> <path d="M 201.572 254.34L 236.001 254.379L 236.006 256.942L 201.546 256.858L 201.572 254.34z"/> </g> </g> </symbol><symbol viewBox="40 50 130 185" id="icon-somatic-person"><title>somatic-person</title>  <metadata id="somatic-person-metadata1503"> <rdf:RDF> <cc:Work rdf:about=""> <dc:format>image/svg+xml</dc:format> <dc:type rdf:resource="http://purl.org/dc/dcmitype/StillImage"/> <dc:title/> </cc:Work> </rdf:RDF> </metadata> <g id="somatic-person-layer1"> <path id="somatic-person-path4570" d="m 71.65841,231.07249 c 1.82873,-0.96306 4.88973,-3.43931 8.18802,-6.62382 5.36917,-5.18394 7.4176,-8.5208 12.40368,-20.20527 1.80083,-4.2201 3.63953,-8.39632 4.08601,-9.28049 0.44647,-0.88416 5.95787,-8.84281 12.24756,-17.68589 l 11.43578,-16.07831 4.78939,0.17271 c 6.9737,0.25148 6.63703,0.07 4.35254,2.34675 -2.37117,2.3632 -4.83397,5.63489 -5.80896,7.7169 -0.40888,0.87312 -1.29205,3.4925 -1.96259,5.82083 -0.80135,2.7825 -1.88695,5.69615 -3.16764,8.50165 -2.93373,6.42663 -4.1319,10.13002 -3.70875,11.46324 0.28844,0.90877 1.47887,0.6796 3.21558,-0.61905 3.97741,-2.97414 8.86606,-9.05837 11.97466,-14.9032 4.33443,-8.14963 6.28247,-10.74872 10.30789,-13.75285 12.26355,-9.15215 15.91271,-12.62646 15.91271,-15.15024 0,-0.93698 -0.50202,-1.93271 -1.31077,-2.59987 -1.59435,-1.31522 -5.42473,-2.68945 -9.37337,-3.36288 -3.01749,-0.51464 -4.10241,-0.50958 -7.96899,0.0371 -1.74625,0.2469 -3.50663,0.36512 -3.91196,0.26272 -1.0165,-0.25681 -1.26327,-1.04848 -1.5379,-4.93391 -0.12856,-1.81901 -0.35393,-3.8787 -0.5008,-4.57709 -0.34868,-1.65796 -0.34628,-15.30581 0.003,-17.14763 0.51359,-2.70821 1.57269,-4.43896 4.79297,-7.83262 2.99702,-3.15838 3.02317,-3.19728 8.07269,-12.00721 17.4801,-30.497705 17.15271,-29.777315 18.62622,-40.985455 0.5869,-4.46421 0.52154,-6.08167 -0.31769,-7.86138 -0.86761,-1.83988 -3.30335,-2.92724 -4.6219,-2.0633 -1.33131,0.87231 -1.53088,1.88201 -1.54329,7.80802 l -0.0113,5.42395 -1.71196,3.96875 c -1.55862,3.61326 -1.99902,4.34795 -4.91675,8.20209 -1.76263,2.32833 -4.96774,6.73364 -7.12247,9.78958 -5.14579,7.297995 -4.94175,7.054951 -8.3927,9.997433 -3.47836,2.965849 -3.84911,3.403311 -5.87825,6.935902 -0.83588,1.45521 -1.89238,3.03408 -2.34778,3.5086 -1.67001,1.74013 -4.40423,2.46309 -5.43124,1.43608 -0.2636,-0.2636 -1.04913,-1.39356 -1.74561,-2.51102 l -1.26634,-2.03176 0.31346,-6.147444 c 0.17239,-3.381095 0.23341,-6.805272 0.13559,-7.609281 -0.36882,-3.0314 -1.63839,-4.7499 -4.52833,-6.12959 -3.99111,-1.90539 -7.28036,-1.37098 -9.96927,1.61974 -1.47968,1.64576 -2.15875,3.49369 -2.14969,5.849879 0.0102,2.659861 0.92354,4.299868 3.70817,6.658673 1.21795,1.031709 2.51403,2.308112 2.88017,2.83645 1.27836,1.844673 0.6054,4.276463 -1.66204,6.005893 -2.29554,1.75087 -3.80537,1.7064 -7.85925,-0.23149 l -2.38072,-1.13806 -3.175,1.4e-4 c -2.56295,1.2e-4 -3.78704,0.1447 -6.35,0.75003 -2.97357,0.70233 -11.02577,3.21341 -15.92153,4.96516 -3.20082,1.14528 -6.54686,1.55735 -12.6604,1.55915 -8.616,0.003 -15.47122,1.13545 -15.47122,2.5568 0,0.70378 1.74982,2.13029 3.37125,2.74836 1.3064,0.49799 2.32512,0.61097 7.14788,0.79273 3.09338,0.11658 6.3676,0.29038 7.27604,0.38622 2.75442,0.29058 13.965,-0.59333 22.15691,-1.74698 5.35196,-0.75371 10.0467,-0.75269 12.96458,0.003 2.86435,0.74164 6.13708,2.31522 7.72834,3.7159 1.54855,1.36309 2.52346,3.07149 3.78173,6.62697 0.54074,1.52797 1.76059,4.32594 2.71076,6.21771 2.28427,4.54791 2.5971,5.53674 3.1362,9.91345 l 0.45692,3.70945 -2.77009,2.84584 c -4.8689,5.00206 -8.88305,10.59152 -11.68127,16.26547 -1.88006,3.8122 -2.72796,6.27187 -4.70996,13.66312 -0.88346,3.29459 -2.02419,7.12126 -2.53496,8.50371 -1.33863,3.62317 -4.78775,10.48751 -9.23969,18.38855 -2.13188,3.78353 -4.95491,9.02228 -6.27339,11.64166 -1.31849,2.61938 -3.27679,6.16865 -4.35178,7.88728 -2.09106,3.34305 -2.89844,5.13362 -2.63009,5.83293 0.23188,0.60429 1.42611,0.55111 2.70099,-0.1203 z"/> </g> </symbol></svg>