<svg height="821.333" viewBox="0 0 616 616" width="821.333" xmlns="http://www.w3.org/2000/svg"><path d="m390.5 22.3-2.9 2.4-.6 19.9-.6 19.9-4.1 9c-6 13.2-6.9 14.7-26 41-9.6 13.2-20 27.6-23.1 31.9-3.1 4.4-9.7 11.5-14.7 15.9-12.1 10.8-13.6 12.6-20.6 24-6.2 10.1-11.3 15-16.9 16.2-4.9 1.1-6.9-.3-12-8.2-4.9-7.4-4.9-7.5-4.4-13.9.3-3.5.6-14.2.7-23.6.2-15.4 0-17.7-1.8-21.3-4.3-8.7-15.9-15-26.8-14.6-12.2.4-23 12.2-23.6 25.6-.3 8.5 3 14.5 12.9 23.5 11.6 10.5 12.7 16.2 4.7 24.5-7.2 7.4-14 7.8-26.9 1.4-5.5-2.7-7.5-3.1-15.3-3.3-14.8-.4-28.6 2.9-63.8 15-19.2 6.6-22.4 7.1-50.7 8-21.8.6-28 1.1-36 2.7-6 1.2-11 3.6-11 5.3 0 2.2 7.3 7.4 12.5 9 11.1 3.3 64.9 3.9 87 .9 1.7-.2 5.8-.6 9.1-.9 3.4-.3 7.7-.8 9.5-1.1 22.4-3.2 37.7-3.5 48.2-1.1 8.5 2 20 7.4 25.4 12 4.2 3.6 7.9 10.3 12.6 22.6 1.4 3.6 4.9 11.4 7.7 17.5 2.9 6 5.6 12.1 6.2 13.5 1.5 3.9 3.6 14.9 4.3 22.8l.7 7.2-8.9 9.3c-18.7 19.6-33.8 42.4-42.1 63.7-1.2 3-5.1 15.8-8.7 28.5-3.6 12.6-7.7 26.1-9.1 30-2.7 7.6-18.6 39-30.8 60.9-4.2 7.6-10.9 20-14.8 27.5s-9.8 18.3-13.2 24.1c-12.8 22.2-14 26-8.1 26 3.9 0 16.5-9.3 29.3-21.6 18-17.3 25.7-29.8 41.7-67.4 12.6-29.5 11-27 70.3-110.6l16.4-23.1 8.6.4c24.9 1.1 24.2 1 24.2 2.5 0 .7-2.4 3.8-5.4 6.8-7.1 7.3-15.8 19.6-17.8 25.1-.9 2.4-3.5 10.2-5.8 17.4-2.4 7.1-6.9 19.1-10.1 26.6-7.5 17.6-9.7 23.4-10.8 29.2-1.7 9.1 2.3 9.8 11.8 2.3 11.9-9.5 25.6-27.1 37.2-48.1 9-16 15.8-26.4 21.3-32 2.2-2.4 11.1-9.6 19.6-16.1 16.8-12.9 28.6-22.7 33.8-28.3 13.1-14.2 6.4-23.4-21.8-30-8.8-2.1-22.5-2.3-36.7-.6-4.3.5-6.7.4-7.7-.4-1.5-1.3-2.3-5.5-3.2-16.4-.3-4-1-9.2-1.4-11.7-.5-2.5-.9-15.6-.8-29.1 0-33.1.5-34.9 18.6-54 6.4-6.8 10.4-13.2 28.4-44.9 1.4-2.5 7.9-14 14.5-25.5 26.8-47.3 33.4-61.2 35.8-75.5.4-2.5.9-5.4 1.1-6.5 1.1-5.7 2.7-20.7 2.8-25.5.1-10.3-4.4-17.5-11.8-18.7-2.5-.4-3.9.1-6.1 2zm127.5.7c-6.2 4.1-7.1 6-7.7 15.8-.8 14.9-1 15.3-7.1 16.8-30.3 7.8-55.4 23.8-72.5 46.3-15.5 20.4-20.1 46.4-11.6 64.7 4.4 9.2 15.3 18.5 29.1 24.8 6 2.7 17.8 6.4 32.3 10 5.5 1.3 13.4 3.4 17.5 4.5 4.1 1.2 9.3 2.5 11.5 3.1 12.7 3 28.5 11.9 36.3 20.4 10.2 11.2 12.4 21.2 9.2 41.9-1.5 10-3.6 16.2-9.9 28.7-14.1 28.2-29.7 49.7-52.5 72.6-19.5 19.5-32.3 27.3-47.2 29-7.3.8-11.6-1.4-14.6-7.4-1.9-4.1-2.3-6.3-2.3-16.2 0-13.2.3-15.6 3.9-26.5 8.5-26.1 33.8-61.8 59.1-83.2 8.5-7.2 21.1-14.6 32.1-18.9 9.3-3.6 12-5.3 9-5.5-.9-.1-2.2-.2-2.8-.3-3.5-.5-18.4 4.3-29.3 9.4-35.9 16.7-69.4 60.7-78 102.5-1.5 7-1.4 24.1.1 30.5 7.8 33.4 46.2 36.6 90.5 7.7 20.5-13.4 41.2-32.8 51.2-48 8.6-13 21.2-44.3 24.8-61.2 2.2-10.4 1.9-26.3-.6-35.8-1.6-6.3-9.2-18.2-15.3-23.8-15.4-14.4-42.7-27.4-58.6-27.8-4.2-.1-8.6-.4-9.8-.7-2.2-.5-21.7-3.9-28.8-5-11.8-1.9-30.9-8.4-38-13-10.2-6.4-15-15.7-15.5-29.5-.9-24.8 10-45 35.9-66.7 10.3-8.7 32.3-18.9 46.5-21.6l3.3-.6-.6 6.3c-2.7 25.8-2.7 69.9 0 79.4.8 2.8 3 3 3.9.3.3-1.1 1-2 1.5-2s1.3-1.5 2-3.4c1.3-3.9 5-7.8 5.7-5.9s4.1 1.6 5.1-.5c.5-.9 1.3-3.9 1.7-6.7.9-6.5 2.2-8.9 8.5-15.5 8-8.4 11.8-18.1 11.4-29-.7-19.2-1.5-35.7-2-42.5-1.1-16.1-3.3-18.9-15.6-19.7-7.2-.5-8-.3-11.8 2.2zm-92.2 426.7c-.2.4-.4 33-.4 72.3l.1 71.5 41.5-.1h41.5l7.6-2.6c13.5-4.5 22.8-12.1 27.8-22.8 2.1-4.5 2.6-7 2.6-14 0-7.3-.4-9.3-2.8-14.1-4.6-9.5-14.8-17.2-26.7-20.2l-5-1.3 6.2-3c13.8-6.5 21.4-18.3 20.6-31.9-1.1-16.9-13.2-28.3-35.2-33-6.7-1.5-77.1-2.2-77.8-.8zm71.5 13.2c17.6 4.2 26.7 16.8 22.7 31.3-2.5 8.9-13 16.4-25.5 18.4-3.2.5-45 .9-50.2.5-1-.1-1.3-6-1.3-25.9v-25.9l24.8.2c14.4.2 26.7.7 29.5 1.4zm7.4 64.7c16 4.2 24.8 14.4 23.8 27.8-.9 12.4-10.2 21.6-25.5 25.2-1.4.3-15.4.7-31.2.9l-28.8.3v-55.9l28 .1c21.2.1 29.4.5 33.7 1.6z"/></svg>