<svg fill-rule="evenodd" height="841.89pt" viewBox="170 185 250 400" width="595.276pt" xmlns="http://www.w3.org/2000/svg"><path d="m345.464 258.653c2.13-7.773 3.944-11.027 1.376-14.758-4.867-7.072-14.831-12.583-13.458-27.218.719-7.663 5.895-17.324 12.899-22.053 5.165-3.486 13.859-3.593 20.894-2.741 7.123.862 15.97 2.163 21.207 6.418 3.062 2.49 4.668 3.891 6.67 8.496.868 1.995.63 3.173.63 5.727 0 2.601-.488 4.586-.756 6.922-.508 4.418-.773 10.205 2.265 14.412 1.133 1.567-.642 2.542-2.233 3.649-1.186.825-.879 1.982-1.07 3.525-.353 2.845-1.16 5.722-3.116 7.677-2.325 2.326-10.795.754-14.945.754-5.787 0-4.643 6.424-4.168 8.749.701 3.434 8.82 16.278 11.311 20.261 4.786 7.654 4.504 8.677 8.305 16.913 1.832 5.955 2.002 6.58 2.267 12.412.944 20.829-6.482 33.552-4.279 54.041.932 8.677 2.28 24.503 1.509 34.941-.563 7.655-1.441 15.91-4.53 29.2-2.139 6.414-4.48 12.878-6.47 19.409-.787 2.584-.232 5.9-1.082 9.692-1.515 6.761-5.249 12.4-6.418 20.864-.819 6.202-2.014 17.506-2.014 24.164 0 5.532.314 11.23.314 16.866.116 5.046.921 8.942 4.697 12.118 6.421 5.401 14.172 9.088 21.167 10.664 2.308.519 3.588-.59 3.51 1.439-.019.525-.858 1.247-2.168.913-.623-.158-1.193.45-1.782.414-.727-.045-1.525-.289-2.18-.147-.957.208-1.515 1.048-2.553.951-.818-.077-1.579-.734-2.265-.579-.925.208-1.067.818-2.553.848-1.343.027-2.403-1.029-3.336-.682-.513.192-1.15.572-1.542.575-2.403.024-4.461.243-6.454.006-3.242-.385-6.982-1.601-10.297-1.321l-7.867.665c-5.707.482-7.371-4.177-3.945-9.725 1.31-2.121 1.959-11.692 1.773-13.371-.185-1.677-.26-2.573-.377-3.146-2.139-9.82-4.064-21.337-4.508-31.707-.362-8.42 2.231-11.54 2.934-16.09 1.751-11.324 1.54-29.615 1.071-49.869-.112-4.818-1.819-6.633-5.127-10.776-2.965-3.713-6.806-10.469-7.46-13.421-1.503-6.794-.443-16.539.901-23.094 1.106-5.395 1.424-8.029 2.31-11.59 1.474-5.928 2.202-7.163 2.202-13.456 0-4.637-1.348-10.895-1.857-15.607-1.118-10.351-4.279-24.995-4.688-29.862-.409-4.868-.659-8.417-.095-15.08.982-11.584 3.251-19.619 5.381-27.392z" fill="#2c2c2b"/><path d="m364.217 220.453c-4.095.315-6.734 4.002-6.734 7.863 0 2.345.566 5.61 2.581 8.243.783 1.024 2.89 2.82 3.797 3.306.162.087.364-4.788-.023-4.788-.486 0-4.858-.141-3.774-7.449.448-3.021 3.482-3.608 3.926-3.429.028.011.026-3.134.227-3.746z" fill="#fff" stroke="#fff" stroke-width=".216"/><path d="m365.664 405.84.252 15.167c.295.887 5.646 3.498 7.048 2.96 2.253-.867 4.108-5.068 4.908-7.553 2.431-7.549 1.542-13.749.693-21.585-1.362-12.571-4.427-29.426-6.419-40.938-2.897-16.74-2.249-28.835-1.07-42.002.461-5.148 1.309-11.44 1.152-17.821-.257-10.454-1.354-20.844-4.739-24.533-1.465-1.282-2.813-3.484-4.468-3.777-5.275-.932-1.533 2.852 1.256 4.267.926.47 3.446 4.255 4.18 6.888 1.483 5.31 2.308 11.85 1.818 21.567-.342 6.821-1.617 18.621-2.152 30.287-.487 10.621.121 10.734.688 16.32 1.723 11.08 3.856 23.116 5.6 33.066.906 5.166 2.51 18.755 2.876 26.549.133 2.826-.269 7.438-.421 8.372-.238 1.463-3.164 8.566-4.28 8.438-1.465-.169-6.612-2.449-5.097-3.966.866-.866 1.925-2.214 1.762-4.152-.229-2.725-1.167-5.154-3.587-7.554z" fill="#fff"/><path d="m363.371 399.304c-3.044 0-7.209 1.787-9.318 4.164-1.156 1.303-3.26 3.761-4.406 5.973 2.046 2.45 1.099 1.546 1.719 2.335.569-1.257.688-1.93 1.49-2.945 1.934-2.446 6.897-6.644 10.641-6.75-.226-4.539-.126.957-.126-2.777z" fill="#fff"/><path d="m347.855 298.61-3.776.126c3.068 1.544 3.953 13.474 3.618 22.784-.257 7.176.77 11.681 1.039 16.363l.441 7.671c.342 5.942 1.581 5.457-2.742 5.402-.268.908-.099.737-.242 2.096 1.055-.004 1.116-.008 2.229-.008 2.855 0 1.511.282 2.957 4.405 3.196 9.107 1.692 4.837 3.524 10.258 1.008 2.734 2.266 7.193 3.21 9.319 1.389 3.127 1.853 4.707 3.335 7.672.85 1.702 1.484 3.569 2.011 5.284 0-2.411-.137-.285.042-8.401-3.46-7.044-6.295-13.846-8.85-21.3-1.958-5.714-2.221-8.32-2.912-13.217-.656-4.66-1.447-12.724-1.527-18.478-.146-10.412.167-21.773-2.357-29.976z" fill="#fff"/><path d="m378.354 394.892c5.953-1.034 7.659-1.132 12.754-.629-.239 1.283-.314 2.582-.314 3.881-2.18-1.708-7.965-.986-12.062-.292-.086-.379-.123-2.708-.378-2.96z" fill="#fff"/><path d="m389.091 350.938-17.669-.002v2.046l17.606-.002z" fill="#fff"/><path d="m315.258 185.59h48.729l-.011 2.832h-48.718z" fill="#2c2c2b"/><path d="m317.775 185.59.531 364.881-3.183.017-.18-364.882z" fill="#2c2c2b"/><path d="m367.076 185.575 49.183-.206v2.962l-49.191-.002z" fill="#2c2c2b"/><path d="m314.978 257.408 30.839-.018-.822 2.971-30.015-.004z" fill="#2c2c2b"/><path d="m371.492 257.332 44.767.036v3.067l-43.816-.078z" fill="#2c2c2b"/><path d="m315.611 296.146h24.237l.17 3.012-24.407.157z" fill="#2c2c2b"/><path d="m391.548 296.273 24.711.038v2.832l-23.862-.011z" fill="#2c2c2b"/><path d="m315.258 325.293 28.908.118.356 2.716-29.264-.003z" fill="#2c2c2b"/><path d="m392.508 325.545h22.807v2.832l-23.249-.003z" fill="#2c2c2b"/><path d="m315.887 361.477h28.297l-.578 2.832h-27.719z" fill="#2c2c2b"/><path d="m389.224 361.477h26.72v2.832h-26.425z" fill="#2c2c2b"/><path d="m315.057 415.596h38.404l.436 2.832h-38.838z" fill="#2c2c2b"/><path d="m388.415 415.596h26.586v2.832h-27.127z" fill="#2c2c2b"/><path d="m315.082 467.04h37.993l-.453 2.832h-37.539z" fill="#2c2c2b"/><path d="m374.546 467.04h40.329v2.832h-41.263z" fill="#2c2c2b"/><path d="m365.916 547.747h48.644v2.832h-48.644z" fill="#2c2c2b"/><path d="m416.259 185.369v365.21h-2.831v-365.21z" fill="#2c2c2b"/><path d="m365.559 155.796v30.34" fill="none" stroke="#2c2c2b" stroke-linecap="round" stroke-width="3.1201"/><path d="m345.817 257.39 25.675-.058.951 3.025-27.452.021z" fill="#fff"/><path d="m339.848 296.146 51.7.127.849 2.859-52.379.026z" fill="#fff"/><path d="m344.182 361.485 45.042-.008.295 2.832h-45.913z" fill="#fff"/><path d="m353.461 415.596h34.954l-.541 2.832h-33.977z" fill="#fff"/><path d="m353.075 467.04h21.471l-.934 2.832h-20.99z" fill="#fff"/><path d="m367.076 185.575-1.16 365.004-3.084-.018 1.155-364.971z" fill="#fff"/><path d="m315.178 547.747 47.65.02.004 2.792-47.654.02z" fill="#2c2c2b"/><path d="m344.166 325.411 48.342.134-.442 2.829-47.544-.247z" fill="#fff"/><path d="m380.308 562.361c0-1.281.333-2.521.997-3.723.63-1.15 1.524-2.057 2.69-2.724s2.411-1.001 3.735-1.001c1.325 0 2.564.328 3.724.991 1.16.662 2.067 1.574 2.729 2.734.662 1.159.996 2.4.996 3.723 0 1.335-.334 2.581-.996 3.742-.662 1.159-1.563 2.065-2.713 2.727-1.15.663-2.389.991-3.713.981-2.046.01-3.799-.705-5.261-2.141-1.458-1.441-2.188-3.21-2.188-5.309zm1.101-.015c-.009 1.097.276 2.155.854 3.183.541.981 1.303 1.755 2.299 2.327.991.567 2.055.853 3.184.853 1.747.01 3.236-.609 4.466-1.861 1.234-1.254 1.854-2.754 1.865-4.502-.011-1.738-.636-3.227-1.871-4.461-1.239-1.234-2.722-1.859-4.46-1.87-1.754.011-3.242.625-4.471 1.849-1.235 1.218-1.854 2.713-1.866 4.482zm3.847-4.095h2.643c1.659.064 2.484.816 2.484 2.267-.021.847-.318 1.457-.884 1.828l-.418.232 1.397 3.477h-1.488l-1.244-3.21h-1.325v3.21h-1.165zm1.165 1.165v2.263h1.538c.809 0 1.226-.376 1.259-1.134.022-.742-.398-1.117-1.259-1.129z" fill="#2c2c2b"/><path d="m364.38 557.853v-7.31" fill="none" stroke="#2c2c2b" stroke-width="3.1201"/><path d="m356.697 564.471c.805 2.358 6.736 18.646 7.902 18.682.452.014 7.582-17.248 8.405-19.251.731-1.78-1.619-.461-3.53-.946l-.313-.689c0-1.3.296-1.123.684-2.172 1.16-3.142-2.828-2.675-5.214-2.612h-.249c-2.387-.063-6.066-.531-4.904 2.612.388 1.05.81 1.187.81 2.488l-.313.373c-1.991.371-4.083-.845-3.278 1.515z" fill="#2c2c2b"/><path d="m363.875 564.415c-1.048.031-3.949-1.144-3.526 1.893.099.714.432 3.348 1.574 2.713.471-.262.565-1.078.44-1.578-.314-1.253.069-1.349 1.952-1.135 1.019.116 2.959.42 2.959-1.073 0-1.18-1.924-.863-3.399-.82z" fill="#fff"/><path d="m208.278 359.117c2.134-.532 6.126-.33 10.257-.477 7.363-.261 15.512-.094 16.803 3.781 2.362 7.09 16.155 40.143 9.282 42.949-9.26 3.78-22.037 4.421-31.936 6.135-3.76.651-5.353 3.064-7.036 2.458-1.685-.606-3.462-4.233-5.078-8.436-2.803-7.29-2.675-14.394-2.675-22.654.432-5.68 1.204-9.332 2.928-14.615.844-2.584 2.293-4.477 3.219-6.91 1.162-3.048 2.358-1.887 4.236-2.231z" fill="#fff" stroke="#ef7e20" stroke-width=".216"/><path d="m243.676 425.821c1.208-.04 1.377 6.325 2.51 12.104.177 4.976 2.568 5.244-.685 14.01-.3 1.345-1.333 6.42-3.357 10.182-1.73 3.218-4.121 6.359-5.838 9.267-2.526 4.28-3.286 7.923-3.957 8.02-1.108-.158.441-6.73 2.255-14.217 1.481-2.458 2.818-4.59 4.375-7.005.959-2.723 1.088-5.138 1.204-7.189.105-1.857.34-3.119-.393-6.241-.354-1.608-.267-2.245.426-5.776 0-1.315.612-3.265.973-4.843.923-4.032 1.673-8.307 2.487-8.312z" fill="#2c2c2b"/><path d="m233.293 508.888c-.385.436 5.417 8.177 8.463 10.982 2.95 2.716 2.041 3.477 7.93 2.863 7.784-.81.423-4.957-3.115-6.514-2.692-1.185-5.087-1.94-7.551-3.556-2.025-1.327-4.897-3.289-5.727-3.775z" fill="#2c2c2b"/><path d="m210.481 510.619.314.786c-.464-1.446-1.51-.484-1.51.535 0 .707-.862 1.572-1.038 2.171-.449 1.528-.398 2.738-.126 3.902.17.726 1.108 1.746 1.856.818.323-.4.44-1.855.44-2.423 0-.676-.066-1.099.19-1.887.566-1.749.641-1.597-.126-3.902z" fill="#2c2c2b"/><path d="m206.233 360.376h22.812c4.117 6.608 13.487 18.406 12.9 29.262-.628 11.629 8.15 15.418-8.023 14.945-7.437.221-17.231 2.877-22.812 5.665-4.189 3.449-4.493 2.945-6.243 3.126-.291.211-1.347-3.078-2.567-6.686-2.636-7.801-3.549-10.979-3.744-20.442-.106-5.105.457-9.832 2.266-14.289 1.858-4.578 3.144-6.824 5.411-11.581z" fill="none" stroke="#2c2c2b" stroke-width=".216"/><path d="m256.112 386.349c2.029 6.173 2.83 11.532 2.826 16.286-.004 3.94-.291 7.523-2.141 11.86-1.174 2.753-3.579 1.505-4.929-1.194-.211-.421.081-.824-.093-1.079-1.002-1.466-.663-1.033-1.719-1.081-.698-.031-.785-1.179-1.481-1.008-.367.09-.56-.922-.991-.705-.651.329-.896-.409-1.17-.22-.434.299-1.236.711-.854 1.119.283.303-.726.457-.345.834.304.299-.305.508-.581 1.089-.313.659-.556 1.548-.736 2.16-1.785 6.033-3.686 13.128-5.067 17.391-1.893 5.841-.154 16.855-1.164 22.372-4.725 9.464-8.132 15.669-8.842 27.594-.142 2.388-.363 6.66-.254 11.429.132 5.757 1.309 12.176 2.55 17.014 1.59 4.879 7.836 10.322 11.349 13.897.326.331.607-.43 1.548.901.373.528.438.034.827.266.499.297 1.134 1.049 1.382 1.207 1.083.683.447 1.331 1.799 1.73 4.215 1.245 8.559 3.648 2.918 5.723-5.5.876-10.525 2.467-15.859 1.52-2.266-1.089-3.369-2.822-6.429-3.141-8.136-.848-9.899-3.131-15.124-3.537-4.833-.202-2.548-7.273-1.793-9.693 1.874-6.005-1.023-24.099-1.604-29.703-.898-8.663-1.983-15.67-1.228-24.664.798-4.683 3.43-9.545 3.43-14.068-1.591-6.376-3.02-10.978-4.059-18.998-.158-2.79-2.84-12.476-3.744-15.121-3.403-9.957-9.158-16.284-7.74-30.038.816-7.919.543-14.138 5.002-21.804 2.224-3.823 3.646-7.854 5.66-9.753 2.119-.96 1.132-1.705.439-3.642-.452-1.266-.532-2.03.563-3.311 2.488-2.905 1.679-8.84.173-14.912-.936-3.777-3.195-9.849-4.192-12.882-1.787-5.434-3.224-9.175-4.655-12.662-1.345-3.276-2.378-6.328-3.524-10.353-2.422-5.201-1.502-13.13-1.24-20.845.355-2.923.614-6.074 1.362-8.959 1.129-4.355 3.051-8.425 5.541-12.744 2.811-4.88 2.951-7.927.825-11.768-1.91-3.45-4.506-8.32-5.874-13.223-.978-3.507-1.589-7.317-1.678-10.842-.035-1.379.276-2.714.276-3.97 0-3.701 1.23-6.623 2.272-9.295.979-2.511 1.854-4.889 3.267-6.756 3.674-4.854 6.388-7.88 13.513-8.617 2.13-.22 4.193-.927 6.439-.913 4.6.028 9.332.4 13.961 1.681 8.529 2.361 16.593 6.625 21.587 11.458 3.05 2.953 5.613 4.727 5.5 12.095-.106 6.867-2.204 13.176-1.171 18.478.366 1.881 1.808 4.148 1.674 5.248-.153 1.257-1.685 1.75-2.992 2.197-1.42.486-1.956 1.504-1.993 2.062-.253 3.89-2.418 6.521-4.446 8.64-1.099 1.149-2.151 1.795-4.404 2.161-2.546.413-6.699-.851-9.625.056-2.971.92-3.564 1.969-3.893 5.779-.13 1.503 1.131 4.72 2.443 7.049 6.065 7.676 12.298 23.93 15.438 35.625.741 2.757 2.504 10.207 3.283 14.954 2.695 16.405 5.506 24.536 5.506 42.079-.504 2.708-1.982 4.895-1.982 8.056 0 2.41.386 3.369.477 4.248s.075 1.427-1.106 3.519c-.472.835-1.779.564-2.302 1.64-.741 1.528-2.473 2.444-2.173 4.5.245 1.686 1.046 4.296 1.367 5.584zm-49.879-25.973c-2.267 4.757-3.553 7.003-5.411 11.581-1.809 4.457-2.372 9.184-2.266 14.289.195 9.463 1.108 12.641 3.744 20.442 1.22 3.608 2.276 6.897 2.567 6.686 1.75-.181 2.054.323 6.243-3.126 5.581-2.788 15.375-5.444 22.812-5.665 16.173.473 7.395-3.316 8.023-14.945.587-10.856-8.783-22.654-12.9-29.262z" fill="#2c2c2b"/><path d="m252.906 377.667c-2.917-6.102-9.339-17.917-12.63-28.176-.564-1.759-1.677-6.675-2.731-11.919-1.271-6.33-2.42-12.962-2.365-15.837.114-5.861-1.322-15.763-.315-17.777l.41-9.123c.069-1.536.389-10.578.095-10.676-.737-5.091-2.253-7.53-4.599-11.29-.546-.876-4.598-4.825-3.179-6.109.301-.272 1.303-.15 2.298.683 2.505 2.707 4.943 6.808 6.494 11.795 2.412 10.582 1.565 24.396 1.565 30.035.146 6.375-.501 17.047 1.843 26.622 1.853 12.185 3.631 15.718 6.09 21.328 1.917 4.516 2.568 5.616 3.338 7.192 1.207 2.79 6.594 2.729 6.422 6.183-.031 1.387-1.261 1.832-1.449 2.65-.482 2.099 2.791-1.704 3.715-1.704 1.325 0 1.573 1.194.929 2.224-1.761.989-3.195 2.27-3.195 3.076-.252 1.072-.05.422.818.631-.188.82-.11 4.887-1.2 5.275-.182.065-1.964-4.267-2.354-5.083z" fill="#fff"/><path d="m216.081 308.05c-.238-3.113-.72-4.454.271-4.618.707-.116 2.106 2.722 2.278 5.404l1.259 19.665c.453 7.079 3.16 15.556 4.971 21.931 1.457 4.269 3.829 7.494 2.336 7.512-2.913.037-10.947.229-16.401.229-3.591 0-.798-5.072-1.447-6.578-.152-.353-2.385-2.42.819-4.12 3.697-1.862 8.891 3.796 13.089 4.69.339-1.125-1.588-3.992-2.303-7.129-1.115-4.893-2.103-9.202-2.732-12.695-1.181-6.548-2.297-17.745-2.14-24.291z" fill="#fff"/><g fill="#2c2c2b"><path d="m278.287 414.967 9.911-5.664v46.41l-10.226 7.866z" stroke="#2c2c2b" stroke-width="2.8346"/><path d="m272.938 466.726 4.87-1.031 2.702-3.055 2.2 2.637-.489 78.046-8.632 4.259z"/><path d="m182.635 250.564h-9.44l-.157 31.779 15.732 11.287v-37.245l-6.293.158z"/><path d="m196.951 352.667h-18.879v53.175l13.111 9.451 4.824-.012v-2.517h-1.887l-2.518-3.303v-48.299l1.259-1.416h4.09z"/><path d="m268.691 414.131h3.146v-55.486h-3.146z"/><path d="m271.365 408.359 15.889.629 2.423-2.045-18.312-.944z"/><path d="m257.977 326.929 26.876 2.79 1.457-2.381-28.983-2.753z"/><path d="m284.58 359.903 10.855-7.708-.787-31.465-10.382 7.394z"/><path d="m182.477 317.899 10.311 4.793-.084-24.144-10.699-5.979z"/><path d="m196.48 358.488h3.146v-34.957h-3.146z"/><path d="m269.32 294.457h2.36v-37.6h-2.36z"/><path d="m281.906 324.349h2.36v-30.049h-2.36z"/><path d="m195.177 293.671-.001 2.596-2.472.039-1.731 2.556-4.248-2.832 2.045-2.4z"/><path d="m284.338 294.08-33.1.063-.011 2.469h33.039z"/><path d="m283.514 322.146h-25.796l.008 2.477 26.54-.274z"/><path d="m204.997 321.832h-13.627l3.414 2.204h10.228z"/><path d="m257.842 323.873.005 1.892 13.046.944-3.373-3.776z"/><path d="m294.648 320.73h-11.641v1.416l11.013.315z"/><path d="m284.558 357.662-25.936.039.122 2.202h25.836z"/><path d="m206.949 357.701h-14.875l.071 2.045h14.875z"/></g><path d="m190.013 414.047 52.247-48.641" fill="none" stroke="#2c2c2b" stroke-width=".9601"/><path d="m199.415 414.467 46.621-43.401" fill="none" stroke="#2c2c2b" stroke-width=".9601"/><path d="m261.093 367.14 9.365-8.719" fill="none" stroke="#2c2c2b" stroke-width=".9601"/><path d="m250.038 387.756 20.289-18.888" fill="none" stroke="#2c2c2b" stroke-width=".9601"/><path d="m254.193 392.935 16.008-14.902" fill="none" stroke="#2c2c2b" stroke-width=".9601"/><path d="m252.745 404.271 17.707-16.486" fill="none" stroke="#2c2c2b" stroke-width=".9601"/><path d="m252.545 415.18 18.007-16.764" fill="none" stroke="#2c2c2b" stroke-width=".9601"/><path d="m261.984 414.677 8.594-8.001" fill="none" stroke="#2c2c2b" stroke-width=".9601"/><path d="m191.036 368.235 9.797-9.12" fill="none" stroke="#2c2c2b" stroke-width=".9601"/><path d="m190.922 377.021 18.737-17.444" fill="none" stroke="#2c2c2b" stroke-width=".9601"/><path d="m190.194 386.963 29.193-27.177" fill="none" stroke="#2c2c2b" stroke-width=".9601"/><path d="m190.637 396.654 39.285-36.573" fill="none" stroke="#2c2c2b" stroke-width=".9601"/><path d="m189.937 405.59 49.425-46.013" fill="none" stroke="#2c2c2b" stroke-width=".9601"/><path d="m211.84 413.963 34.314-31.946" fill="none" stroke="#2c2c2b" stroke-width=".9601"/><path d="m222.502 413.879 26.497-24.669" fill="none" stroke="#2c2c2b" stroke-width=".9601"/><path d="m231.904 414.299 21.282-19.813" fill="none" stroke="#2c2c2b" stroke-width=".9601"/><path d="m195.378 466.959h3.147v-52.621h-3.147z" fill="#2c2c2b"/><path d="m276.242 465.624h3.147v-51.601h-3.147z" fill="#2c2c2b"/><path d="m187.197 546.803h2.518v-82.438h-2.518z" fill="#2c2c2b"/><path d="m271.208 547.549h2.517v-82.239h-2.517z" fill="#2c2c2b"/><path d="m208.734 464.366h-21.222l.014 2.762 21.219.001z" fill="#2c2c2b"/><path d="m278.699 465.063-38.285-.08-.039 2.415 38.34.241z" fill="#2c2c2b"/><path d="m272.603 545.026h-85.384l-.012 2.523h85.804z" fill="#2c2c2b"/><path d="m203.674 412.799h-11.899l.009 2.51h11.85z" fill="#2c2c2b"/><path d="m182.477 185.59h96.754v71.352h-43.225l-.005-2.563 35.364-.039v-66.39h-86.056v66.39h16.263l-.026 2.518-19.069-.001z" fill="#2c2c2b"/><path d="m195.177 293.671 56.061.472-.011 2.469-56.051-.345z" fill="#fff"/><path d="m203.674 412.799 42.849.839-.081 2.469-42.808-.798z" fill="#fff"/><path d="m208.773 464.366 31.641.617-.019 2.415-31.65-.269z" fill="#fff"/><path d="m279.553 413.575-35.413.016-.008 2.473 35.348.043z" fill="#2c2c2b"/><path d="m201.572 254.34 34.429.039.005 2.563-34.46-.084z" fill="#fff"/></svg>