<svg xmlns="http://www.w3.org/2000/svg" width="793.701" height="1122.52" viewBox="170 185 250 400" fill-rule="evenodd"><path d="M345.464 258.653c2.13-7.773 3.944-11.027 1.376-14.758-4.867-7.072-14.83-12.583-13.458-27.218.72-7.663 5.895-17.324 12.9-22.053 5.164-3.486 13.858-3.593 20.893-2.74 7.123.86 15.97 2.162 21.207 6.417 3.062 2.49 4.668 3.892 6.67 8.497.868 1.995.63 3.173.63 5.727 0 2.6-.488 4.586-.756 6.922-.508 4.418-.773 10.205 2.265 14.412 1.134 1.567-.64 2.542-2.232 3.65-1.186.824-.88 1.98-1.07 3.524-.353 2.845-1.16 5.722-3.116 7.677-2.325 2.325-10.795.753-14.945.753-5.787 0-4.643 6.424-4.168 8.75.7 3.433 8.82 16.277 11.31 20.26 4.786 7.654 4.504 8.677 8.305 16.913 1.832 5.955 2.002 6.58 2.267 12.412.944 20.83-6.482 33.552-4.28 54.04.933 8.678 2.28 24.504 1.51 34.942-.563 7.655-1.44 15.91-4.53 29.2-2.14 6.414-4.48 12.878-6.47 19.41-.787 2.583-.232 5.9-1.082 9.69-1.515 6.762-5.25 12.4-6.418 20.865-.82 6.202-2.014 17.506-2.014 24.164 0 5.53.314 11.23.314 16.865.116 5.046.92 8.942 4.697 12.118 6.42 5.4 14.17 9.088 21.166 10.664 2.308.52 3.588-.59 3.51 1.44-.02.524-.858 1.246-2.168.912-.623-.16-1.193.45-1.782.413-.727-.045-1.525-.29-2.18-.147-.957.208-1.515 1.048-2.553.95-.818-.076-1.58-.733-2.265-.578-.925.208-1.067.818-2.553.848-1.343.027-2.403-1.03-3.336-.682-.514.192-1.15.572-1.543.575-2.403.023-4.46.242-6.454.005-3.242-.385-6.982-1.6-10.297-1.32l-7.867.664c-5.708.48-7.372-4.178-3.946-9.726 1.31-2.12 1.96-11.692 1.773-13.37-.185-1.678-.26-2.574-.377-3.147-2.14-9.82-4.064-21.337-4.508-31.707-.362-8.42 2.23-11.54 2.934-16.09 1.75-11.324 1.54-29.615 1.07-49.87-.11-4.817-1.818-6.632-5.126-10.775-2.965-3.713-6.806-10.47-7.46-13.42-1.503-6.795-.443-16.54.9-23.095 1.107-5.395 1.425-8.03 2.31-11.59 1.475-5.928 2.203-7.163 2.203-13.456 0-4.637-1.348-10.895-1.857-15.607-1.118-10.35-4.28-24.995-4.688-29.862-.41-4.868-.66-8.417-.095-15.08.982-11.584 3.25-19.62 5.38-27.392z" fill="#2c2c2b"/><path d="M364.217 220.453c-4.095.315-6.734 4.002-6.734 7.863 0 2.345.566 5.61 2.58 8.243.784 1.023 2.89 2.82 3.798 3.305.163.087.365-4.788-.022-4.788-.486 0-4.858-.14-3.774-7.45.448-3.02 3.482-3.607 3.926-3.428.028.01.026-3.135.227-3.747z" stroke="#fff" stroke-width=".216" fill="#fff"/><path d="M365.664 405.84l.252 15.167c.295.887 5.646 3.498 7.048 2.96 2.253-.867 4.108-5.068 4.908-7.553 2.43-7.55 1.542-13.75.693-21.585-1.362-12.572-4.427-29.427-6.42-40.94-2.896-16.74-2.248-28.834-1.07-42 .462-5.15 1.31-11.44 1.153-17.822-.257-10.454-1.354-20.844-4.74-24.533-1.464-1.282-2.812-3.484-4.467-3.777-5.274-.932-1.532 2.852 1.257 4.267.926.47 3.446 4.255 4.18 6.888 1.483 5.31 2.308 11.85 1.818 21.567-.342 6.82-1.617 18.62-2.152 30.287-.487 10.62.12 10.734.688 16.32 1.724 11.08 3.857 23.116 5.6 33.066.907 5.166 2.51 18.755 2.877 26.55.133 2.825-.27 7.437-.42 8.37-.24 1.464-3.165 8.567-4.28 8.44-1.466-.17-6.613-2.45-5.098-3.967.865-.866 1.924-2.214 1.76-4.152-.228-2.725-1.166-5.154-3.586-7.554zM363.37 399.304c-3.043 0-7.208 1.787-9.317 4.164-1.156 1.303-3.26 3.76-4.406 5.973 2.046 2.45 1.1 1.547 1.72 2.336.568-1.257.687-1.93 1.49-2.945 1.933-2.445 6.896-6.643 10.64-6.75-.226-4.538-.126.958-.126-2.776zM347.855 298.61l-3.776.126c3.067 1.544 3.952 13.474 3.617 22.784-.257 7.176.77 11.68 1.04 16.363l.44 7.67c.342 5.943 1.58 5.458-2.742 5.403-.268.908-.1.737-.242 2.096 1.055-.004 1.116-.008 2.23-.008 2.854 0 1.51.282 2.956 4.405 3.195 9.106 1.69 4.836 3.523 10.257 1.008 2.734 2.266 7.193 3.21 9.32 1.39 3.126 1.853 4.706 3.335 7.67.85 1.703 1.484 3.57 2.01 5.285 0-2.41-.136-.285.043-8.4-3.46-7.045-6.294-13.847-8.85-21.3-1.957-5.715-2.22-8.32-2.91-13.218-.657-4.66-1.448-12.724-1.528-18.478-.146-10.412.167-21.773-2.357-29.976z" fill="#fff"/><path d="M378.354 394.892c5.953-1.034 7.66-1.132 12.754-.63-.24 1.284-.314 2.583-.314 3.882-2.18-1.708-7.965-.986-12.062-.292-.086-.38-.123-2.708-.378-2.96zM389.09 350.938l-17.668-.002v2.046l17.606-.002.063-2.042z" fill="#fff"/><g><path d="M315.258 185.59h48.73l-.012 2.832h-48.718v-2.832z" fill="#2c2c2b"/><path d="M317.775 185.59l.53 364.88-3.182.018-.18-364.882 2.832-.016zM367.076 185.575l49.183-.206v2.96h-49.192l.008-2.755z" fill="#2c2c2b"/><path d="M314.978 257.408l30.84-.018-.823 2.97-30.015-.003-.002-2.95zM371.492 257.332l44.767.036v3.067l-43.817-.078-.95-3.025zM315.61 296.146h24.238l.17 3.012-24.407.157v-3.17zM391.548 296.273l24.71.038v2.833l-23.86-.01-.85-2.86zM315.258 325.293l28.908.118.356 2.717-29.264-.003v-2.83zM392.508 325.545h22.807v2.832l-23.25-.003.443-2.83zM315.887 361.477h28.297l-.578 2.832h-27.72v-2.833zM389.224 361.477h26.72v2.832H389.52l-.296-2.833zM315.057 415.596h38.404l.437 2.832H315.06l-.003-2.832zM388.415 415.596H415v2.832h-27.126l.54-2.832zM315.082 467.04h37.993l-.453 2.832h-37.54v-2.832zM374.546 467.04h40.33v2.832H373.61l.934-2.832zM365.916 547.747h48.644v2.832h-48.644v-2.833z" fill="#2c2c2b"/><path d="M416.26 185.37v365.21h-2.832V185.37h2.83z" fill="#2c2c2b"/><path d="M365.56 155.796v30.34" stroke="#2c2c2b" stroke-width="3.12" stroke-linecap="round" fill="none"/><path d="M345.817 257.39l25.675-.058.95 3.025-27.45.02.825-2.987zM339.848 296.146l51.7.127.85 2.86-52.38.025-.17-3.012zM344.182 361.485l45.042-.008.295 2.832h-45.914l.576-2.825zM353.46 415.596h34.955l-.54 2.832h-33.978l-.436-2.832zM353.075 467.04h21.47l-.933 2.832h-20.99l.453-2.832z" fill="#fff"/><path d="M367.076 185.575l-1.16 365.004-3.084-.02 1.155-364.97 3.09-.015z" fill="#fff"/><path d="M315.178 547.747l47.65.02.004 2.792-47.654.02v-2.833z" fill="#2c2c2b"/><path d="M344.166 325.41l48.342.135-.442 2.83-47.544-.248-.356-2.716z" fill="#fff"/><path d="M380.308 562.36c0-1.28.333-2.52.997-3.722.63-1.15 1.524-2.057 2.69-2.724 1.166-.667 2.41-1 3.735-1 1.325 0 2.564.327 3.724.99 1.16.662 2.067 1.574 2.73 2.734.66 1.16.995 2.4.995 3.723 0 1.336-.335 2.582-.997 3.743-.662 1.16-1.563 2.065-2.713 2.727-1.15.663-2.39.99-3.713.98-2.046.01-3.8-.704-5.26-2.14-1.46-1.44-2.19-3.21-2.19-5.31zm1.1-.014c-.008 1.097.277 2.155.855 3.183.54.98 1.303 1.754 2.3 2.326.99.567 2.054.853 3.183.853 1.747.01 3.236-.61 4.466-1.862 1.234-1.254 1.854-2.754 1.865-4.502-.01-1.738-.636-3.227-1.87-4.46-1.24-1.235-2.723-1.86-4.46-1.87-1.755.01-3.243.624-4.472 1.848-1.235 1.218-1.854 2.713-1.866 4.482zm3.848-4.095h2.643c1.658.065 2.483.817 2.483 2.268-.02.847-.318 1.457-.884 1.828l-.42.232 1.398 3.477h-1.488l-1.244-3.21h-1.325v3.21h-1.164v-7.804zm1.165 1.166v2.263h1.54c.808 0 1.225-.377 1.258-1.135.022-.742-.398-1.117-1.26-1.13h-1.537z" fill="#2c2c2b"/><path d="M364.38 557.853v-7.31" stroke="#2c2c2b" stroke-width="3.12" fill="none"/><path d="M356.697 564.47c.805 2.36 6.736 18.647 7.902 18.683.45.014 7.58-17.248 8.404-19.25.73-1.78-1.62-.462-3.53-.947l-.313-.69c0-1.3.297-1.122.685-2.17 1.16-3.143-2.828-2.676-5.214-2.613h-.248c-2.387-.063-6.066-.53-4.904 2.612.388 1.05.81 1.187.81 2.488l-.313.373c-1.99.37-4.083-.845-3.278 1.515z" fill="#2c2c2b"/><path d="M363.875 564.415c-1.048.03-3.95-1.144-3.526 1.893.098.714.43 3.348 1.573 2.713.47-.26.565-1.077.44-1.577-.314-1.253.07-1.35 1.952-1.135 1.02.116 2.96.42 2.96-1.073 0-1.18-1.925-.863-3.4-.82z" fill="#fff"/></g><g><path d="M208.278 359.117c2.134-.532 6.126-.33 10.257-.477 7.363-.26 15.512-.094 16.803 3.78 2.362 7.09 16.155 40.144 9.282 42.95-9.26 3.78-22.037 4.42-31.936 6.135-3.76.65-5.353 3.064-7.036 2.458-1.685-.606-3.462-4.233-5.078-8.436-2.803-7.29-2.675-14.394-2.675-22.654.432-5.68 1.204-9.332 2.928-14.615.844-2.584 2.293-4.477 3.22-6.91 1.16-3.048 2.357-1.887 4.235-2.23z" stroke="#ef7e20" stroke-width=".216" fill="#fff"/><path d="M243.676 425.82c1.208-.04 1.377 6.326 2.51 12.105.177 4.976 2.568 5.244-.685 14.01-.3 1.345-1.332 6.42-3.356 10.182-1.73 3.218-4.12 6.36-5.838 9.267-2.526 4.28-3.286 7.923-3.957 8.02-1.11-.158.44-6.73 2.254-14.217 1.48-2.458 2.818-4.59 4.375-7.005.958-2.723 1.087-5.138 1.203-7.19.105-1.856.34-3.118-.393-6.24-.354-1.608-.267-2.245.426-5.776 0-1.315.612-3.265.973-4.843.922-4.032 1.672-8.307 2.486-8.312zM233.293 508.888c-.385.436 5.417 8.177 8.463 10.982 2.95 2.716 2.04 3.477 7.93 2.863 7.784-.81.423-4.957-3.115-6.514-2.69-1.186-5.086-1.94-7.55-3.557-2.025-1.327-4.897-3.29-5.727-3.775zM210.48 510.62l.315.785c-.464-1.446-1.51-.484-1.51.535 0 .707-.862 1.572-1.038 2.17-.45 1.53-.398 2.74-.126 3.903.17.726 1.11 1.746 1.857.818.323-.4.44-1.854.44-2.422 0-.676-.066-1.1.19-1.887.566-1.748.64-1.596-.126-3.9z" fill="#2c2c2b"/><path d="M206.233 360.376h22.812c4.117 6.608 13.487 18.406 12.9 29.262-.628 11.63 8.15 15.418-8.023 14.945-7.437.22-17.23 2.877-22.812 5.665-4.19 3.45-4.493 2.945-6.243 3.126-.29.21-1.347-3.078-2.567-6.686-2.636-7.8-3.55-10.98-3.744-20.442-.106-5.105.457-9.832 2.266-14.29 1.858-4.577 3.144-6.823 5.41-11.58z" stroke="#2c2c2b" stroke-width=".216" fill="none"/><path d="M256.112 386.35c2.03 6.172 2.83 11.53 2.826 16.285-.004 3.94-.29 7.523-2.14 11.86-1.175 2.753-3.58 1.505-4.93-1.194-.21-.42.08-.823-.093-1.078-1.002-1.466-.663-1.033-1.72-1.08-.697-.032-.784-1.18-1.48-1.01-.367.09-.56-.92-.99-.704-.652.33-.897-.41-1.17-.22-.435.3-1.237.71-.855 1.12.283.302-.726.456-.345.833.304.3-.305.51-.58 1.09-.314.66-.557 1.548-.737 2.16-1.785 6.033-3.686 13.128-5.067 17.39-1.892 5.842-.153 16.856-1.163 22.373-4.725 9.464-8.132 15.67-8.842 27.594-.142 2.388-.363 6.66-.254 11.43.133 5.756 1.31 12.175 2.55 17.013 1.59 4.88 7.837 10.322 11.35 13.897.326.33.607-.43 1.548.9.373.53.438.035.827.267.5.297 1.134 1.05 1.382 1.207 1.083.684.447 1.332 1.8 1.73 4.214 1.246 8.558 3.65 2.917 5.724-5.5.876-10.525 2.467-15.86 1.52-2.265-1.09-3.368-2.822-6.428-3.14-8.136-.85-9.9-3.132-15.124-3.538-4.833-.202-2.548-7.273-1.793-9.693 1.873-6.005-1.024-24.1-1.605-29.703-.898-8.663-1.983-15.67-1.228-24.664.798-4.683 3.43-9.545 3.43-14.068-1.59-6.376-3.02-10.978-4.06-18.998-.157-2.79-2.84-12.476-3.743-15.12-3.403-9.958-9.158-16.285-7.74-30.04.816-7.918.543-14.137 5.002-21.803 2.224-3.823 3.646-7.854 5.66-9.753 2.12-.96 1.132-1.705.44-3.642-.453-1.266-.533-2.03.562-3.31 2.488-2.906 1.68-8.84.173-14.913-.935-3.778-3.194-9.85-4.19-12.883-1.788-5.434-3.225-9.175-4.656-12.662-1.345-3.276-2.378-6.328-3.524-10.353-2.422-5.2-1.502-13.13-1.24-20.845.355-2.923.614-6.074 1.362-8.96 1.13-4.354 3.05-8.424 5.54-12.743 2.812-4.88 2.952-7.927.826-11.768-1.91-3.45-4.506-8.32-5.874-13.223-.978-3.507-1.59-7.317-1.678-10.842-.035-1.378.276-2.713.276-3.97 0-3.7 1.23-6.622 2.272-9.294.98-2.51 1.854-4.89 3.267-6.756 3.675-4.854 6.39-7.88 13.514-8.617 2.13-.22 4.193-.927 6.44-.913 4.6.028 9.33.4 13.96 1.68 8.53 2.362 16.593 6.626 21.587 11.46 3.05 2.952 5.614 4.726 5.5 12.094-.105 6.867-2.203 13.176-1.17 18.478.366 1.88 1.808 4.148 1.674 5.248-.153 1.257-1.685 1.75-2.992 2.197-1.42.486-1.956 1.504-1.993 2.062-.254 3.89-2.42 6.52-4.447 8.64-1.1 1.148-2.15 1.794-4.404 2.16-2.547.413-6.7-.85-9.626.056-2.97.92-3.564 1.97-3.893 5.78-.13 1.502 1.132 4.72 2.444 7.048 6.065 7.676 12.298 23.93 15.438 35.625.74 2.756 2.504 10.206 3.283 14.953 2.695 16.405 5.506 24.536 5.506 42.08-.503 2.707-1.98 4.894-1.98 8.055 0 2.41.385 3.37.476 4.248.09.88.075 1.427-1.106 3.52-.472.834-1.78.563-2.302 1.64-.74 1.527-2.473 2.443-2.173 4.5.245 1.685 1.046 4.295 1.367 5.583zm-49.88-25.974c-2.266 4.757-3.552 7.003-5.41 11.58-1.81 4.458-2.372 9.185-2.266 14.29.195 9.463 1.108 12.64 3.744 20.442 1.22 3.608 2.276 6.897 2.567 6.686 1.75-.18 2.054.323 6.243-3.126 5.58-2.788 15.375-5.444 22.812-5.665 16.173.473 7.395-3.316 8.023-14.945.587-10.856-8.783-22.654-12.9-29.262h-22.812z" fill="#2c2c2b"/><path d="M252.906 377.667c-2.917-6.102-9.34-17.917-12.63-28.176-.564-1.758-1.677-6.674-2.73-11.918-1.272-6.33-2.42-12.962-2.366-15.837.114-5.86-1.322-15.763-.315-17.777l.41-9.123c.07-1.536.39-10.578.095-10.676-.737-5.092-2.253-7.53-4.6-11.29-.545-.877-4.597-4.826-3.178-6.11.3-.272 1.303-.15 2.298.683 2.505 2.707 4.943 6.808 6.494 11.795 2.412 10.582 1.565 24.396 1.565 30.035.145 6.375-.502 17.047 1.842 26.622 1.853 12.185 3.63 15.718 6.09 21.328 1.917 4.516 2.568 5.616 3.338 7.192 1.207 2.79 6.594 2.73 6.422 6.183-.03 1.387-1.26 1.832-1.45 2.65-.48 2.1 2.792-1.704 3.716-1.704 1.325 0 1.573 1.194.93 2.224-1.762.99-3.196 2.27-3.196 3.076-.252 1.072-.05.422.818.63-.188.82-.11 4.888-1.2 5.276-.182.065-1.964-4.267-2.354-5.083zM216.08 308.05c-.237-3.113-.72-4.454.272-4.618.707-.116 2.106 2.722 2.278 5.404l1.26 19.665c.452 7.08 3.16 15.557 4.97 21.932 1.457 4.27 3.83 7.494 2.336 7.512-2.913.037-10.947.23-16.4.23-3.592 0-.8-5.073-1.448-6.58-.152-.352-2.385-2.42.82-4.12 3.696-1.86 8.89 3.797 13.088 4.69.34-1.124-1.588-3.99-2.303-7.128-1.115-4.893-2.103-9.202-2.732-12.695-1.18-6.547-2.296-17.744-2.14-24.29z" fill="#fff"/></g><g><path d="M278.287 414.967l9.91-5.664v46.41l-10.225 7.866.315-48.613z" stroke="#2c2c2b" stroke-width="2.835" fill="#2c2c2b"/><path d="M272.938 466.726l4.87-1.03 2.702-3.056 2.2 2.637-.49 78.046-8.63 4.26-.652-80.857zM182.635 250.564h-9.44l-.157 31.78 15.732 11.286v-37.245l-6.293.158.158-5.98zM196.95 352.667h-18.878v53.175l13.11 9.45 4.825-.01v-2.518h-1.887l-2.518-3.303v-48.298l1.26-1.416h4.09v-7.08zM268.69 414.13h3.147v-55.485h-3.146v55.486z" fill="#2c2c2b"/><path d="M271.365 408.36l15.89.628 2.422-2.045-18.312-.944v2.36zM257.977 326.93l26.876 2.79 1.457-2.382-28.983-2.753.65 2.344z" fill="#2c2c2b"/><path d="M284.58 359.903l10.855-7.708-.787-31.465-10.382 7.394.314 31.78zM182.477 317.9l10.31 4.792-.083-24.144-10.7-5.98.473 25.33zM196.48 358.488h3.146V323.53h-3.146v34.958zM269.32 294.457h2.36v-37.6h-2.36v37.6zM281.906 324.35h2.36V294.3h-2.36v30.05z" fill="#2c2c2b"/><path d="M195.177 293.67v2.597l-2.473.04-1.73 2.555-4.25-2.832 2.046-2.4 6.407.04zM284.338 294.08l-33.1.063-.01 2.47h33.038l.072-2.533zM283.514 322.146h-25.796l.008 2.477 26.54-.274-.752-2.204zM204.997 321.832H191.37l3.414 2.204h10.228l-.015-2.204z" fill="#2c2c2b"/><path d="M257.842 323.873l.005 1.892 13.046.944-3.373-3.777-9.678.94zM294.648 320.73h-11.64v1.416l11.012.315.628-1.73zM284.558 357.662l-25.936.04.122 2.2h25.836l-.022-2.24zM206.95 357.7h-14.876l.07 2.046h14.876l-.07-2.045z" fill="#2c2c2b"/><path d="M190.013 414.047l52.247-48.64M199.415 414.467l46.62-43.4M261.093 367.14l9.365-8.72M250.038 387.756l20.29-18.888M254.193 392.935l16.008-14.902M252.745 404.27l17.707-16.485M252.545 415.18l18.007-16.764M261.984 414.677l8.594-8M191.036 368.235l9.797-9.12M190.922 377.02l18.737-17.443M190.194 386.963l29.193-27.177M190.637 396.654l39.285-36.573M189.937 405.59l49.425-46.013M211.84 413.963l34.314-31.946M222.502 413.88L249 389.21M231.904 414.3l21.282-19.814" stroke="#2c2c2b" stroke-width=".96" fill="none"/><path d="M195.378 466.96h3.147v-52.622h-3.147v52.62zM276.242 465.624h3.147v-51.6h-3.148v51.6zM187.197 546.803h2.518v-82.438h-2.518v82.438zM271.208 547.55h2.517v-82.24h-2.517v82.24z" fill="#2c2c2b"/><path d="M208.734 464.366h-21.222l.014 2.762h21.22l-.012-2.762zM278.7 465.063l-38.286-.08-.04 2.415 38.34.24-.015-2.575zM272.603 545.026H187.22l-.013 2.523h85.804l-.407-2.524zM203.674 412.8h-11.9l.01 2.51h11.85l.04-2.51zM182.477 185.59h96.754v71.352h-43.224L236 254.38l35.365-.04v-66.39H185.31v66.39h16.262l-.026 2.518h-19.07V185.59z" fill="#2c2c2b"/><path d="M195.177 293.67l56.06.473-.01 2.47-56.05-.346v-2.596zM203.674 412.8l42.85.838-.082 2.47-42.808-.8.04-2.51zM208.773 464.366l31.64.617-.018 2.415-31.65-.27.028-2.762z" fill="#fff"/><path d="M279.553 413.575l-35.413.016-.008 2.474 35.348.043.073-2.532z" fill="#2c2c2b"/><path d="M201.572 254.34l34.43.04.004 2.562-34.46-.084.026-2.518z" fill="#fff"/></g></svg>