<?xml version="1.0" encoding="UTF-8" standalone="no"?>
<svg
   xmlns:dc="http://purl.org/dc/elements/1.1/"
   xmlns:cc="http://creativecommons.org/ns#"
   xmlns:rdf="http://www.w3.org/1999/02/22-rdf-syntax-ns#"
   xmlns:svg="http://www.w3.org/2000/svg"
   xmlns="http://www.w3.org/2000/svg"
   id="svg1506"
   version="1.1"
   viewBox="40 50 130 185"
   height="297mm"
   width="210mm">
  <defs
     id="defs1500" />
  <metadata
     id="metadata1503">
    <rdf:RDF>
      <cc:Work
         rdf:about="">
        <dc:format>image/svg+xml</dc:format>
        <dc:type
           rdf:resource="http://purl.org/dc/dcmitype/StillImage" />
        <dc:title></dc:title>
      </cc:Work>
    </rdf:RDF>
  </metadata>
  <g
     id="layer1">
    <path
       id="path4570"
       d="m 71.65841,231.07249 c 1.82873,-0.96306 4.88973,-3.43931 8.18802,-6.62382 5.36917,-5.18394 7.4176,-8.5208 12.40368,-20.20527 1.80083,-4.2201 3.63953,-8.39632 4.08601,-9.28049 0.44647,-0.88416 5.95787,-8.84281 12.24756,-17.68589 l 11.43578,-16.07831 4.78939,0.17271 c 6.9737,0.25148 6.63703,0.07 4.35254,2.34675 -2.37117,2.3632 -4.83397,5.63489 -5.80896,7.7169 -0.40888,0.87312 -1.29205,3.4925 -1.96259,5.82083 -0.80135,2.7825 -1.88695,5.69615 -3.16764,8.50165 -2.93373,6.42663 -4.1319,10.13002 -3.70875,11.46324 0.28844,0.90877 1.47887,0.6796 3.21558,-0.61905 3.97741,-2.97414 8.86606,-9.05837 11.97466,-14.9032 4.33443,-8.14963 6.28247,-10.74872 10.30789,-13.75285 12.26355,-9.15215 15.91271,-12.62646 15.91271,-15.15024 0,-0.93698 -0.50202,-1.93271 -1.31077,-2.59987 -1.59435,-1.31522 -5.42473,-2.68945 -9.37337,-3.36288 -3.01749,-0.51464 -4.10241,-0.50958 -7.96899,0.0371 -1.74625,0.2469 -3.50663,0.36512 -3.91196,0.26272 -1.0165,-0.25681 -1.26327,-1.04848 -1.5379,-4.93391 -0.12856,-1.81901 -0.35393,-3.8787 -0.5008,-4.57709 -0.34868,-1.65796 -0.34628,-15.30581 0.003,-17.14763 0.51359,-2.70821 1.57269,-4.43896 4.79297,-7.83262 2.99702,-3.15838 3.02317,-3.19728 8.07269,-12.00721 17.4801,-30.497705 17.15271,-29.777315 18.62622,-40.985455 0.5869,-4.46421 0.52154,-6.08167 -0.31769,-7.86138 -0.86761,-1.83988 -3.30335,-2.92724 -4.6219,-2.0633 -1.33131,0.87231 -1.53088,1.88201 -1.54329,7.80802 l -0.0113,5.42395 -1.71196,3.96875 c -1.55862,3.61326 -1.99902,4.34795 -4.91675,8.20209 -1.76263,2.32833 -4.96774,6.73364 -7.12247,9.78958 -5.14579,7.297995 -4.94175,7.054951 -8.3927,9.997433 -3.47836,2.965849 -3.84911,3.403311 -5.87825,6.935902 -0.83588,1.45521 -1.89238,3.03408 -2.34778,3.5086 -1.67001,1.74013 -4.40423,2.46309 -5.43124,1.43608 -0.2636,-0.2636 -1.04913,-1.39356 -1.74561,-2.51102 l -1.26634,-2.03176 0.31346,-6.147444 c 0.17239,-3.381095 0.23341,-6.805272 0.13559,-7.609281 -0.36882,-3.0314 -1.63839,-4.7499 -4.52833,-6.12959 -3.99111,-1.90539 -7.28036,-1.37098 -9.96927,1.61974 -1.47968,1.64576 -2.15875,3.49369 -2.14969,5.849879 0.0102,2.659861 0.92354,4.299868 3.70817,6.658673 1.21795,1.031709 2.51403,2.308112 2.88017,2.83645 1.27836,1.844673 0.6054,4.276463 -1.66204,6.005893 -2.29554,1.75087 -3.80537,1.7064 -7.85925,-0.23149 l -2.38072,-1.13806 -3.175,1.4e-4 c -2.56295,1.2e-4 -3.78704,0.1447 -6.35,0.75003 -2.97357,0.70233 -11.02577,3.21341 -15.92153,4.96516 -3.20082,1.14528 -6.54686,1.55735 -12.6604,1.55915 -8.616,0.003 -15.47122,1.13545 -15.47122,2.5568 0,0.70378 1.74982,2.13029 3.37125,2.74836 1.3064,0.49799 2.32512,0.61097 7.14788,0.79273 3.09338,0.11658 6.3676,0.29038 7.27604,0.38622 2.75442,0.29058 13.965,-0.59333 22.15691,-1.74698 5.35196,-0.75371 10.0467,-0.75269 12.96458,0.003 2.86435,0.74164 6.13708,2.31522 7.72834,3.7159 1.54855,1.36309 2.52346,3.07149 3.78173,6.62697 0.54074,1.52797 1.76059,4.32594 2.71076,6.21771 2.28427,4.54791 2.5971,5.53674 3.1362,9.91345 l 0.45692,3.70945 -2.77009,2.84584 c -4.8689,5.00206 -8.88305,10.59152 -11.68127,16.26547 -1.88006,3.8122 -2.72796,6.27187 -4.70996,13.66312 -0.88346,3.29459 -2.02419,7.12126 -2.53496,8.50371 -1.33863,3.62317 -4.78775,10.48751 -9.23969,18.38855 -2.13188,3.78353 -4.95491,9.02228 -6.27339,11.64166 -1.31849,2.61938 -3.27679,6.16865 -4.35178,7.88728 -2.09106,3.34305 -2.89844,5.13362 -2.63009,5.83293 0.23188,0.60429 1.42611,0.55111 2.70099,-0.1203 z"
       style="opacity:1;fill:#010101;fill-opacity:1;stroke-width:0.26458332;image-rendering:auto" />
  </g>
</svg>
