<svg version="1" xmlns="http://www.w3.org/2000/svg" width="1149.333" height="1149.333" viewBox="0 0 862.000000 862.000000"><path d="M432.7 18.7c-.1.1-3.8.4-8.2.8-4.4.3-9.1.8-10.5 1-1.4.3-5.2.7-8.5 1.1-3.3.3-6.7.8-7.7.9-.9.2-3.8.7-6.5 1-5.9.9-33.8 7-41.3 9.1-48.5 13.7-94.1 35.9-134.5 65.3-8.5 6.2-10.2 7.5-14.5 11.1-.9.8-6.1 5.1-11.4 9.5-5.2 4.4-16.2 14.7-24.3 23-17.2 17.5-19.2 19.7-29.8 33-4.4 5.5-8.4 10.4-8.8 11-5.7 6.9-23.4 34.2-30.9 47.5-16.9 30-34.3 74-41.3 104.5-.2 1.1-.9 3.8-1.4 6-1.1 4.7-1.5 6.4-4.1 21-1 6-2.2 13.7-2.5 17-.4 3.3-.8 7.1-1 8.5-2.3 16.4-2.3 68.3 0 92 .7 6.9 2.5 21.3 2.9 23.5.2 1.1 1.1 6 2 11 2.3 12.5 8.7 36.7 13.5 51.2C83.7 627.1 116.7 682 159 725.5c10.2 10.5 23.2 22.9 29.9 28.5 3 2.5 7 5.9 9 7.6 10.5 9.1 35.4 26.3 51.6 35.8 4.4 2.6 8.7 5.1 9.5 5.6 6.6 3.9 27.1 13.9 39 19 28.6 12.2 65.5 23 94 27.4 1.9.3 4.6.8 5.9 1 1.3.3 4.9.8 8 1.1 3.1.4 6.3.8 7.1 1 .8.2 5.1.7 9.5 1 4.4.4 10 .8 12.5 1.1 5.6.5 39.8.5 46 0 2.5-.2 8.7-.7 13.7-1.1 5.1-.3 10.3-.8 11.5-1 1.3-.2 4.6-.6 7.3-1 7.4-.8 29.8-5.3 38.5-7.6 62.8-16.9 117-48.5 163.4-95.4 33.1-33.5 55.4-66.8 75.6-113 8-18.4 18.7-54.3 21.5-72.5.8-4.6 1.1-6.7 2-11 .4-2.4 1-6.7 1.9-14 2.8-22.6 2.8-56.3.2-76.5-.3-1.7-.7-5-1-7.5-1.2-9.6-2.4-16.9-3.1-20-.1-.3-.5-2.5-.9-5-.5-2.5-1-5.3-1.2-6.4-1-5.6-5.9-23.5-9.1-33.1-10.9-33.7-29.4-70.2-50.1-99-20.5-28.5-49.2-57.7-76.7-78.1-8.3-6.1-28.2-19.4-29-19.4-.3 0-3.1-1.6-6.3-3.6-9-5.8-38.5-19.8-53.2-25.2-13.1-4.9-35-11.6-41.3-12.7-1.7-.3-3.3-.8-3.7-1-.4-.2-2.2-.7-4.1-1-1.9-.3-6.5-1.2-10.4-2-6.6-1.3-9.4-1.7-19-2.9-2.2-.3-5.8-.8-8-1-13.5-1.7-46.2-2.4-58.9-1.1-15.8 1.5-23 2.4-29.1 3.5-2.7.5-6.6 1.2-8.5 1.5-8.2 1.3-31.5 8-44 12.7-91.6 34.1-161.6 113-183.9 207.3-2.9 12-3.6 15.6-4.6 23-.3 2.2-.7 4.9-1 6-.2 1.1-.7 5.1-1 9-.4 3.8-.8 8.6-1.1 10.5-.4 3.9-.4 34.3 0 40.5.6 6.9 1.8 18.8 2.1 20.6.2.9.7 3.9 1 6.6 1.2 8.1 6.2 29.3 9.3 39.3 8.7 27.7 16.5 44.5 34.6 74.3 3.4 5.5 15.6 21.9 21.5 28.7 5.8 6.7 25 26.2 33.5 33.9 18.7 17 53.7 38.7 77.9 48.2 2.8 1.1 6.6 2.7 8.2 3.4 9 4.2 46.1 14.6 57.1 16 2.2.3 4.9.7 6.1.9 7.7 1.6 19 2.1 42.8 2.1 26.7 0 27.4-.1 48.7-4 1.5-.3 8-2.1 14.5-3.9 54.3-15.7 99.4-48.6 130.8-95.7 18.8-28.2 32.8-64.1 36.1-92.9.3-3 .8-6.4 1.1-7.5 1.3-5.4 1.1-48.6-.3-59-7.3-55.1-37.3-110.1-79.4-145.5-3.6-3-6.7-5.7-7-6-1.6-1.7-15.7-11.5-22.7-15.9-23-14.2-52-25.5-76.8-30-3.3-.6-7.1-1.3-8.5-1.6-1.4-.3-5.2-.8-8.5-1.1-3.3-.3-7.1-.8-8.5-1-6.2-1.1-35.9-.4-43 1-1.4.3-4.5.8-7 1.1-11.1 1.5-30.2 7.6-43.5 14-32.1 15.4-62.8 45.5-78.3 76.9-7.6 15.4-15.1 38.6-16.9 52.1-1 7.9-1 41.2 0 49.5 2.4 19.3 11.8 45.1 23.5 64.5 8.3 13.7 23.8 31.6 37.1 42.9 4.1 3.5 25.1 17.8 25.1 17.1 0-.2 2.2.9 4.9 2.5 7.4 4.3 26.3 11.6 37.6 14.4 9.3 2.3 12.5 2.9 23 4.1 5.9.8 28.4.7 33 0 23.9-3.8 42.9-13.2 60.3-30 15.5-14.8 25.4-31.9 30.8-53 2-8 2.2-10.9 2-26.5-.4-19.2-.4-19.7-4.6-32.2-11.7-34.8-38.6-60.7-74.5-71.4-7.8-2.3-11.1-2.7-25.5-3-9.1-.2-18.7.1-21.5.7-2.7.6-6.1 1.2-7.5 1.5-4.2.7-19.2 6.5-25 9.7-20.1 10.7-38.5 30-47.9 50-4.1 8.8-7.7 19.9-8.6 26.2-2.4 17-2.5 22.9-.6 34.6 1.3 7.7 1.4 9.9.3 9.9-1.2 0-12.5-17.4-16.6-25.7-5.5-11.1-10.4-25.1-12.2-34.8-1.8-10.3-2.2-16.1-1.9-29.5.5-23.1 4-37.2 14.5-58.5 9-18.2 20.2-32.1 36.8-45.7 7.8-6.4 21.5-14.9 30.2-18.7 3-1.3 6.3-2.7 7.2-3.2 1.7-.8 12.5-4.1 19.8-6 6.9-1.7 15.8-2.3 34.5-2.2 17.8.1 20.8.4 38.9 3.9 5.2 1 21.2 6.1 30.1 9.6 39.8 15.7 74.4 44.9 97.2 81.8 9.9 16.2 20.2 40.8 23.9 57.5 1.5 6.8 3.5 18.7 4.2 24.4 1.4 13.2.7 44.8-1.3 54.1-.3 1.4-1 5.2-1.6 8.5-1.6 9.5-6.5 25.6-10.9 36.2-19 45.6-53.1 81.9-97.5 103.8-18.9 9.2-36.8 15-56 18-18.5 2.9-43.1 3.2-61.6.8-5.7-.7-11.8-1.5-13.6-1.7-1.8-.3-4-.7-5-1-1-.2-3.4-.7-5.3-1-1.9-.3-9.2-2.1-16.1-4-61.3-16.9-115.6-56.6-150.4-110.1-7.6-11.7-8.1-12.6-15.7-27.7-13.5-27.2-22.4-58.6-25.7-90.3-.9-9.1-.7-48.8.3-53.5.3-1.4.7-4.5 1-7 2.3-18.9 9.8-46.5 17.9-65.5 5-11.9 16.9-35 18.7-36.5.3-.3 2.1-3 3.9-6 12.4-20.4 35.5-45.6 57.2-62.6 11.4-8.8 12.2-9.4 23-16.2 32.7-20.7 75-35.3 112.9-39 14.7-1.4 55-.7 68 1.2 8.2 1.2 12 1.9 16.5 2.8 2.8.5 5.9 1.1 7 1.3 9.6 1.4 46.4 12.4 55.2 16.5 2.4 1.1 4.5 2 4.8 2 .7 0 13.2 5.8 21 9.7 73.6 37.2 130.8 101.5 159.1 179.1 6.7 18.4 13.9 46.8 15.9 62.7.4 2.7.8 6.1 1.1 7.5 1.2 7 1.9 21.7 1.9 41 0 23.3-.8 35.6-3.1 49-1.9 11.2-2 11.3-3.9 20-.9 4.1-1.8 8.5-2.1 9.7-2.7 13.2-14.8 45.9-23.4 63.3-7.5 15.3-21.6 39.1-28.2 47.5-10.5 13.4-15.3 19.4-21.2 26-37 41.5-84.6 73-138.1 91.5-9.8 3.3-32 9.4-39.4 10.6-1.4.3-3.7.7-5.1 1-2.5.5-10.7 1.8-17 2.8-15.3 2.4-75.3 2.5-89 .1-1.4-.2-8.1-1.3-15-2.5-59-10-108.6-29.9-157-62.9-5.2-3.6-9.9-6.9-10.5-7.3-.5-.4-4.8-3.8-9.5-7.4-19.4-15.2-48.2-43.8-63.8-63.3-22.8-28.6-43.1-63.7-57-98.6-7.3-18.4-15.4-44.8-18.7-61-2.7-13.5-5.7-33.5-6.8-46-1.4-15-1.5-56.3-.3-68 .4-3.3.9-8.3 1.2-11 1.1-11.2 5.8-36.9 9.4-51 17.2-67.5 51.7-128.1 101.5-178 27.9-28 58-50.3 94-69.5 5.9-3.1 30.6-14.4 37-17 28.1-10.9 57.6-18.7 89.5-23.5 8.7-1.3 17.7-2.1 34.5-3.1 12.5-.7 16.7-1 17.5-1.2.8-.3 1.1-25.2.4-28.5l-.6-2.9-14 .4c-7.7.2-14 .4-14.1.5zm51.8 406.7c23.4 7.5 42.3 26.3 49.9 49.6 9.8 30.1-.7 64.4-25.6 83.6-10.1 7.8-22.3 13.4-32.8 15-9.4 1.4-25.6 1.1-32.1-.6-27.5-7.2-49.4-28.4-56.4-54.5-2.2-8.1-2.7-26.4-1-35.1 6.1-30.8 30.8-54.6 63-60.7 1.1-.2 7.6-.3 14.5-.2 10.2.3 14 .8 20.5 2.9z"/></svg>