<svg height="590" viewBox="0 0 770 590" width="770" xmlns="http://www.w3.org/2000/svg"><path d="m7.5480305 271.32131v-159.33818h122.0902995 122.09029v159.33818 159.33818h-122.09029-122.0902995z" fill="#fdfdfd" stroke-width=".413865"/><path d="m184.88323 412.82241c-2.86052-1.50643-7.64859-5.37981-12.80783-10.36108-8.39853-8.1088-11.60273-13.32835-19.40202-31.60539-2.81689-6.60116-5.69302-13.13367-6.39141-14.51669-.69838-1.38303-9.3194-13.83207-19.15782-27.66454l-17.88803-25.14996-7.49165.27017c-10.908365.39336-10.381733.10942-6.808307 3.67082 3.709025 3.69654 7.561367 8.81417 9.086467 12.07089.63958 1.36576 2.02104 5.46302 3.06992 9.10504 1.25349 4.35243 2.9516 8.91001 4.95487 13.2984 4.58898 10.05265 6.46318 15.84554 5.80129 17.93098-.45118 1.42152-2.31327 1.06304-5.02987-.96832-6.22153-4.6522-13.868424-14.16924-18.730953-23.31183-6.779975-12.74777-9.827133-16.8133-16.123761-21.51241-19.182831-14.31594-24.890904-19.75051-24.890904-23.69824 0-1.46563.785261-3.02317 2.050335-4.06677 2.4939-2.05728 8.485437-4.20687 14.66196-5.26027 4.720011-.805 6.417049-.79709 12.465216.0581 2.731512.3862 5.485132.57113 6.119154.41095 1.590026-.40171 1.976014-1.64005 2.405594-7.71769.201111-2.84533.553629-6.06713.783372-7.15956.545413-2.59341.54165-23.94158-.0049-26.8226-.803376-4.23621-2.460023-6.94348-7.497245-12.25191-4.688008-4.94039-4.728918-5.00124-12.627452-18.78188-27.34265-47.70497-26.830544-46.57813-29.13543-64.11008-.918039-6.983-.815796-9.51304.496938-12.29689 1.357121-2.87797 5.167156-4.57885 7.229644-3.22745 2.082464 1.36449 2.394634 2.94387 2.41404 12.21341l.01775 8.48425 2.677875 6.20797c2.43801 5.65193 3.126902 6.80113 7.690856 12.82983 2.757139 3.64202 7.770625 10.53288 11.141083 15.31303 8.049115 11.41563 7.729967 11.03546 13.127992 15.63813 5.440897 4.63923 6.02084 5.32352 9.194854 10.84925 1.307497 2.27626 2.960094 4.74595 3.672433 5.4882 2.612249 2.72194 6.889179 3.85281 8.495629 2.24635.41234-.41232 1.64107-2.17983 2.73052-3.92779l1.98082-3.1781-.49031-9.61592c-.26966-5.28877-.36511-10.64492-.2121-11.90257.57692-4.74175 2.5628-7.42986 7.08329-9.58799 6.24296-2.98045 11.38806-2.14451 15.5941 2.53362 2.31454 2.57432 3.37675 5.46488 3.36257 9.15047-.016 4.1606-1.44462 6.72592-5.80037 10.4156-1.90516 1.61382-3.9325 3.61039-4.50522 4.43682-1.99963 2.88547-.94698 6.68931 2.59979 9.39451 3.59072 2.73874 5.95242 2.66917 12.29356-.3621l3.72395-1.78018 4.96639.00023c4.00901.00018 5.92376.22634 9.93277 1.17321 4.65131 1.09859 17.24669 5.02647 24.90471 7.76657 5.00677 1.79147 10.24071 2.43603 19.80361 2.43885 13.47722.004 24.20027 1.77608 24.20027 3.99939 0 1.10085-2.7371 3.33223-5.27337 4.29903-2.04349.77895-3.63699.95568-11.18082 1.23999-4.83872.18236-9.9603.45422-11.3813.60413-4.3085.45453-21.84427-.92809-34.65819-2.73264-8.37162-1.17898-15.71521-1.17738-20.2794.004-4.48047 1.16009-9.59971 3.6215-12.08878 5.81246-2.42227 2.13217-3.94724 4.80448-5.91545 10.36602-.84584 2.39007-2.75393 6.7667-4.24021 9.72584-3.57309 7.11391-4.06243 8.66066-4.90571 15.50678l-.7147 5.80237 4.333 4.45151c7.61602 7.82431 13.89502 16.56743 18.27204 25.44271 2.94082 5.96311 4.26712 9.81055 7.36739 21.37206 1.38192 5.15345 3.16627 11.13919 3.96522 13.30164 2.09392 5.66742 7.48908 16.40471 14.45287 28.76365 3.33473 5.91827 7.75054 14.11281 9.81295 18.21007 2.06239 4.09727 5.12559 9.6491 6.80711 12.33739 3.27087 5.22926 4.53378 8.03011 4.11403 9.12397-.36272.94524-2.23074.86205-4.22494-.18815z" fill="#010101" stroke-width=".413865"/><text font-family="Despeinada" font-size="74.666664" letter-spacing="0" word-spacing="0" x="237.54369" y="277.32623"><tspan font-family="Despeinada" font-size="266.666656" x="237.54369" y="277.32623">Somatic</tspan></text></svg>