<svg height="590" viewBox="0 0 770 590" width="770" xmlns="http://www.w3.org/2000/svg"><path d="m7.5480305 271.32131v-159.33818h122.0902995 122.09029v159.33818 159.33818h-122.09029-122.0902995z" fill="#fdfdfd" stroke-width=".413865"/><path d="m177.05323 390.69499c-2.7041-1.42408-7.23036-5.08567-12.10749-9.79459-7.93928-7.66546-10.96828-12.59964-18.34108-29.87739-2.66286-6.24024-5.38171-12.41559-6.04191-13.72299-.6602-1.30743-8.80981-13.07582-18.11025-26.152l-16.90988-23.7749-7.081993.25539c-10.311877.37186-9.814042.10344-6.436018 3.47012 3.50621 3.49445 7.1479 8.33226 8.589601 11.41093.60462 1.29109 1.91052 5.16432 2.90206 8.60722 1.18494 4.11447 2.7902 8.42286 4.68393 12.57132 4.33804 9.50304 6.10976 14.97921 5.48407 16.95061-.42653 1.34379-2.18679 1.00492-4.75484-.91538-5.88132-4.39784-13.110072-13.39453-17.70671-22.03727-6.409237-12.05078-9.28977-15.89404-15.242089-20.33622-18.133882-13.53323-23.529828-18.67066-23.529828-22.40255 0-1.3855.742321-2.8579 1.938218-3.84443 2.35753-1.9448 8.02144-3.97686 13.86022-4.97267 4.461914-.76099 6.066155-.7535 11.783598.055 2.582149.36508 5.185197.53988 5.78455.38846 1.50308-.37974 1.867961-1.55037 2.274052-7.29572.190114-2.68975.523356-5.73542.740536-6.76812.515589-2.45161.512032-22.63259-.0046-25.35609-.759445-4.0046-2.325503-6.56385-7.087283-11.58203-4.43166-4.67029-4.470333-4.7278-11.936962-17.755-25.847538-45.09676-25.363434-44.03154-27.542285-60.60493-.867838-6.60122-.771187-8.99293.469765-11.62457 1.282911-2.72062 4.884607-4.3285 6.834316-3.05099 1.968591 1.28989 2.263691 2.78291 2.282035 11.54565l.01679 8.02038 2.531446 5.86855c2.304696 5.34291 2.955917 6.42929 7.270307 12.12837 2.606373 3.44289 7.345714 9.95699 10.531871 14.4758 7.608975 10.79148 7.307279 10.4321 12.410131 14.78312 5.143381 4.38558 5.691611 5.03246 8.692065 10.25608 1.236 2.15179 2.798231 4.48647 3.471618 5.18812 2.469406 2.57312 6.512469 3.64216 8.031079 2.12354.38979-.38977 1.55134-2.06064 2.58121-3.71304l1.8725-3.00434-.4635-9.09018c-.25491-4.99961-.34514-10.06292-.20049-11.25179.54536-4.48251 2.42265-7.02366 6.69596-9.06377 5.90159-2.8175 10.76534-2.02727 14.74139 2.39508 2.18797 2.43357 3.1921 5.16608 3.17869 8.65019-.0151 3.93311-1.36563 6.35818-5.48318 9.84613-1.80099 1.52559-3.71747 3.41299-4.25887 4.19423-1.8903 2.72771-.89521 6.32359 2.45763 8.88086 3.39437 2.58901 5.62692 2.52324 11.62132-.34229l3.52031-1.68284 4.69482.00021c3.7898.00017 5.59983.21396 9.38963 1.10906 4.39697 1.03853 16.30361 4.75165 23.54288 7.34194 4.73299 1.69353 9.68073 2.30284 18.72072 2.3055 12.74027.004 22.87696 1.67898 22.87696 3.78074 0 1.04066-2.58742 3.15003-4.98502 4.06397-1.93174.73638-3.43811.90343-10.56944 1.1722-4.57413.17239-9.41563.42938-10.75895.57109-4.0729.42969-20.64979-.87734-32.763-2.58323-7.91387-1.11451-14.8559-1.113-19.17051.004-4.23546 1.09667-9.07478 3.42349-11.42773 5.49466-2.28983 2.01561-3.7314 4.54181-5.592 9.79927-.79958 2.2594-2.60334 6.39673-4.00834 9.19407-3.37772 6.72498-3.84028 8.18716-4.63746 14.65896l-.67562 5.48513 4.09607 4.20813c7.19955 7.39651 13.1352 15.66161 17.27288 24.05164 2.78001 5.63708 4.0338 9.27417 6.96454 20.20355 1.30635 4.8717 2.99314 10.53017 3.7484 12.57439 1.97941 5.35756 7.07956 15.50779 13.66257 27.191 3.15237 5.5947 7.32671 13.34121 9.27635 17.21445 1.94962 3.87326 4.84532 9.12155 6.43489 11.66285 3.09202 4.94336 4.28585 7.59108 3.88906 8.62513-.34287.89356-2.10875.81492-3.9939-.17786z" fill="#010101" stroke-width=".391236"/><text font-family="Despeinada" font-size="74.666664" letter-spacing="0" transform="translate(0 11.964225)" word-spacing="0" x="237.54369" y="277.32623"><tspan font-family="Despeinada" font-size="266.666656" x="237.54369" y="277.32623">Somatic</tspan></text></svg>