<?xml version="1.0" encoding="UTF-8" standalone="no"?>
<!-- Created with Inkscape (http://www.inkscape.org/) -->

<svg
   xmlns:dc="http://purl.org/dc/elements/1.1/"
   xmlns:cc="http://creativecommons.org/ns#"
   xmlns:rdf="http://www.w3.org/1999/02/22-rdf-syntax-ns#"
   xmlns:svg="http://www.w3.org/2000/svg"
   xmlns="http://www.w3.org/2000/svg"
   xmlns:sodipodi="http://sodipodi.sourceforge.net/DTD/sodipodi-0.dtd"
   xmlns:inkscape="http://www.inkscape.org/namespaces/inkscape"
   version="1.1"
   id="svg869"
   width="770"
   height="590"
   viewBox="0 0 770 590"
   sodipodi:docname="logo-texto-color-option3.svg"
   inkscape:version="0.92.2 (5c3e80d, 2017-08-06)"
   inkscape:export-filename="/Users/seba/git/somatic_balance/_resources/logo-texto-color-option2.png"
   inkscape:export-xdpi="155.53"
   inkscape:export-ydpi="155.53">
  <metadata
     id="metadata875">
    <rdf:RDF>
      <cc:Work
         rdf:about="">
        <dc:format>image/svg+xml</dc:format>
        <dc:type
           rdf:resource="http://purl.org/dc/dcmitype/StillImage" />
        <dc:title></dc:title>
      </cc:Work>
    </rdf:RDF>
  </metadata>
  <defs
     id="defs873" />
  <sodipodi:namedview
     pagecolor="#ffffff"
     bordercolor="#666666"
     borderopacity="1"
     objecttolerance="10"
     gridtolerance="10"
     guidetolerance="10"
     inkscape:pageopacity="0"
     inkscape:pageshadow="2"
     inkscape:window-width="1680"
     inkscape:window-height="925"
     id="namedview871"
     showgrid="false"
     inkscape:zoom="0.93303299"
     inkscape:cx="214.70655"
     inkscape:cy="311.49615"
     inkscape:window-x="0"
     inkscape:window-y="23"
     inkscape:window-maximized="0"
     inkscape:current-layer="svg869" />
  <flowRoot
     xml:space="preserve"
     id="flowRoot4656"
     style="fill:black;fill-opacity:1;stroke:none;font-family:Despeinada;font-style:normal;font-weight:normal;font-size:74.66666666999999791px;line-height:1.25;letter-spacing:0px;word-spacing:0px;-inkscape-font-specification:'Despeinada, Normal';font-stretch:normal;font-variant:normal;text-anchor:start;text-align:start;writing-mode:lr;font-variant-ligatures:normal;font-variant-caps:normal;font-variant-numeric:normal"><flowRegion
       id="flowRegion4658"><rect
         id="rect4660"
         width="376.75534"
         height="268.47961"
         x="303.83496"
         y="109.38836" /></flowRegion><flowPara
       id="flowPara4662" /></flowRoot>  <g
     id="g1519"
     inkscape:export-xdpi="29.932741"
     inkscape:export-ydpi="29.932741">
    <path
       style="fill:#5dabb0;fill-opacity:1;stroke-width:0.39123607"
       d="m 84.927635,390.69499 c 2.7041,-1.42408 7.23036,-5.08567 12.10749,-9.79459 7.939285,-7.66546 10.968285,-12.59964 18.341085,-29.87739 2.66286,-6.24024 5.38171,-12.41559 6.04191,-13.72299 0.6602,-1.30743 8.80981,-13.07582 18.11025,-26.152 l 16.90988,-23.7749 7.08199,0.25539 c 10.31188,0.37186 9.81404,0.10344 6.43602,3.47012 -3.50621,3.49445 -7.1479,8.33226 -8.5896,11.41093 -0.60462,1.29109 -1.91052,5.16432 -2.90206,8.60722 -1.18494,4.11447 -2.7902,8.42286 -4.68393,12.57132 -4.33804,9.50304 -6.10976,14.97921 -5.48407,16.95061 0.42653,1.34379 2.18679,1.00492 4.75484,-0.91538 5.88132,-4.39784 13.11007,-13.39453 17.70671,-22.03727 6.40923,-12.05078 9.28977,-15.89404 15.24208,-20.33622 18.13389,-13.53323 23.52983,-18.67066 23.52983,-22.40255 0,-1.3855 -0.74232,-2.8579 -1.93822,-3.84443 -2.35753,-1.9448 -8.02144,-3.97686 -13.86022,-4.97267 -4.46191,-0.76099 -6.06615,-0.7535 -11.78359,0.055 -2.58215,0.36508 -5.1852,0.53988 -5.78455,0.38846 -1.50308,-0.37974 -1.86796,-1.55037 -2.27406,-7.29572 -0.19011,-2.68975 -0.52335,-5.73542 -0.74053,-6.76812 -0.51559,-2.45161 -0.51203,-22.63259 0.005,-25.35609 0.75944,-4.0046 2.3255,-6.56385 7.08728,-11.58203 4.43166,-4.67029 4.47033,-4.7278 11.93696,-17.755 25.84754,-45.09676 25.36344,-44.03154 27.54229,-60.60493 0.86784,-6.60122 0.77119,-8.99293 -0.46977,-11.62457 -1.28291,-2.72062 -4.8846,-4.3285 -6.83431,-3.05099 -1.96859,1.28989 -2.26369,2.78291 -2.28204,11.54565 l -0.0168,8.02038 -2.53144,5.86855 c -2.3047,5.34291 -2.95592,6.42929 -7.27031,12.12837 -2.60637,3.44289 -7.34571,9.95699 -10.53187,14.4758 -7.60898,10.79148 -7.30728,10.4321 -12.41013,14.78312 -5.14338,4.38558 -5.69161,5.03246 -8.69207,10.25608 -1.236,2.15179 -2.79823,4.48647 -3.47162,5.18812 -2.4694,2.57312 -6.51246,3.64216 -8.03107,2.12354 -0.38979,-0.38977 -1.55134,-2.06064 -2.58121,-3.71304 l -1.8725,-3.00434 0.4635,-9.09018 c 0.25491,-4.99961 0.34514,-10.06292 0.20049,-11.25179 -0.54536,-4.48251 -2.42265,-7.02366 -6.69596,-9.06377 -5.90159,-2.8175 -10.76534,-2.02727 -14.74139,2.39508 -2.18797,2.43357 -3.1921,5.16608 -3.17869,8.65019 0.0151,3.93311 1.36563,6.35818 5.48318,9.84613 1.80099,1.52559 3.71747,3.41299 4.25887,4.19423 1.8903,2.72771 0.89521,6.32359 -2.45763,8.88086 -3.39437,2.58901 -5.62692,2.52324 -11.62132,-0.34229 l -3.52031,-1.68284 -4.69482,2.1e-4 c -3.7898,1.7e-4 -5.59983,0.21396 -9.38963,1.10906 -4.39697,1.03853 -16.303615,4.75165 -23.542885,7.34194 -4.73299,1.69353 -9.68073,2.30284 -18.72072,2.3055 -12.74027,0.004 -22.87696,1.67898 -22.87696,3.78074 0,1.04066 2.58742,3.15003 4.98502,4.06397 1.93174,0.73638 3.43811,0.90343 10.56944,1.1722 4.57413,0.17239 9.41563,0.42938 10.75895,0.57109 4.0729,0.42969 20.64979,-0.87734 32.763005,-2.58323 7.91387,-1.11451 14.8559,-1.113 19.17051,0.004 4.23546,1.09667 9.07478,3.42349 11.42773,5.49466 2.28983,2.01561 3.7314,4.54181 5.592,9.79927 0.79958,2.2594 2.60334,6.39673 4.00834,9.19407 3.37772,6.72498 3.84028,8.18716 4.63746,14.65896 l 0.67562,5.48513 -4.09607,4.20813 c -7.19955,7.39651 -13.1352,15.66161 -17.27288,24.05164 -2.78001,5.63708 -4.0338,9.27417 -6.96454,20.20355 -1.30635,4.8717 -2.99314,10.53017 -3.7484,12.57439 -1.97941,5.35756 -7.07956,15.50779 -13.66257,27.191 -3.152375,5.5947 -7.326715,13.34121 -9.276355,17.21445 -1.94962,3.87326 -4.84532,9.12155 -6.43489,11.66285 -3.09202,4.94336 -4.28585,7.59108 -3.88906,8.62513 0.34287,0.89356 2.10875,0.81492 3.9939,-0.17786 z"
       id="path4570"
       inkscape:connector-curvature="0" />
    <text
       id="text4666"
       y="289.29047"
       x="237.54369"
       style="font-style:normal;font-variant:normal;font-weight:normal;font-stretch:normal;font-size:74.66666412px;line-height:1.25;font-family:Despeinada;-inkscape-font-specification:'Despeinada, Normal';font-variant-ligatures:normal;font-variant-caps:normal;font-variant-numeric:normal;text-align:start;letter-spacing:0px;word-spacing:0px;writing-mode:lr-tb;text-anchor:start;fill:#df5454;fill-opacity:1;stroke:none"
       xml:space="preserve"><tspan
         style="font-style:normal;font-variant:normal;font-weight:normal;font-stretch:normal;font-size:266.66665649px;font-family:Despeinada;-inkscape-font-specification:'Despeinada, Normal';font-variant-ligatures:normal;font-variant-caps:normal;font-variant-numeric:normal;font-feature-settings:normal;text-align:start;writing-mode:lr-tb;text-anchor:start;fill:#df5454;fill-opacity:1"
         y="289.29047"
         x="237.54369"
         id="tspan4664"
         sodipodi:role="line">Somatic</tspan></text>
    <flowRoot
       transform="matrix(1.1139338,0,0,0.95457013,-37.29832,-22.472153)"
       style="font-style:normal;font-variant:normal;font-weight:500;font-stretch:normal;font-size:96px;line-height:1.25;font-family:'Bw Modelica SS02';-inkscape-font-specification:'Bw Modelica SS02, Medium';font-variant-ligatures:normal;font-variant-caps:normal;font-variant-numeric:normal;font-feature-settings:normal;text-align:start;letter-spacing:0px;word-spacing:0px;writing-mode:lr-tb;text-anchor:start;fill:#5dabb0;fill-opacity:1;stroke:none"
       id="flowRoot4670"
       xml:space="preserve"><flowRegion
         style="font-style:normal;font-variant:normal;font-weight:500;font-stretch:normal;font-size:96px;font-family:'Bw Modelica SS02';-inkscape-font-specification:'Bw Modelica SS02, Medium';font-variant-ligatures:normal;font-variant-caps:normal;font-variant-numeric:normal;font-feature-settings:normal;text-align:start;writing-mode:lr-tb;text-anchor:start;fill:#5dabb0;fill-opacity:1"
         id="flowRegion4672"><rect
           style="font-style:normal;font-variant:normal;font-weight:500;font-stretch:normal;font-size:96px;font-family:'Bw Modelica SS02';-inkscape-font-specification:'Bw Modelica SS02, Medium';font-variant-ligatures:normal;font-variant-caps:normal;font-variant-numeric:normal;font-feature-settings:normal;text-align:start;writing-mode:lr-tb;text-anchor:start;fill:#5dabb0;fill-opacity:1"
           y="345.82718"
           x="240.85825"
           height="145.84077"
           width="472.87766"
           id="rect4674" /></flowRegion><flowPara
         id="flowPara4676">BALANCE</flowPara></flowRoot>  </g>
</svg>
