<svg xmlns="http://www.w3.org/2000/svg" width="770" height="590" viewBox="0 0 770 590"><path d="M84.928 390.695c2.704-1.424 7.23-5.086 12.107-9.795 7.94-7.665 10.968-12.6 18.34-29.877 2.664-6.24 5.383-12.416 6.043-13.723.66-1.307 8.81-13.076 18.11-26.152l16.91-23.775 7.082.256c10.312.37 9.814.102 6.436 3.47-3.506 3.493-7.148 8.33-8.59 11.41-.604 1.29-1.91 5.164-2.9 8.607-1.186 4.114-2.792 8.423-4.685 12.57-4.337 9.504-6.11 14.98-5.483 16.952.426 1.343 2.186 1.004 4.754-.917 5.883-4.398 13.112-13.394 17.708-22.037 6.41-12.05 9.29-15.894 15.242-20.336 18.134-13.533 23.53-18.67 23.53-22.403 0-1.385-.742-2.858-1.938-3.844-2.358-1.945-8.022-3.977-13.86-4.973-4.462-.76-6.067-.753-11.784.055-2.582.365-5.185.54-5.785.39-1.503-.38-1.867-1.552-2.274-7.297-.19-2.69-.524-5.735-.74-6.768-.517-2.452-.513-22.633.004-25.356.76-4.005 2.325-6.564 7.087-11.582 4.433-4.67 4.47-4.728 11.938-17.755 25.848-45.097 25.364-44.032 27.542-60.605.868-6.6.772-8.993-.47-11.625-1.282-2.72-4.884-4.328-6.834-3.05-1.968 1.29-2.263 2.782-2.282 11.545l-.016 8.02-2.532 5.87c-2.305 5.342-2.956 6.428-7.27 12.127-2.607 3.442-7.346 9.956-10.532 14.475-7.61 10.79-7.307 10.432-12.41 14.783-5.144 4.386-5.692 5.033-8.692 10.256-1.236 2.152-2.8 4.487-3.472 5.188-2.47 2.573-6.512 3.642-8.03 2.124-.39-.39-1.552-2.06-2.582-3.713l-1.873-3.005.464-9.09c.254-5 .344-10.063.2-11.252-.546-4.482-2.423-7.023-6.697-9.063-5.9-2.818-10.765-2.028-14.74 2.395-2.19 2.433-3.193 5.166-3.18 8.65.015 3.933 1.366 6.358 5.483 9.846 1.8 1.526 3.718 3.413 4.26 4.194 1.89 2.728.894 6.324-2.458 8.88-3.395 2.59-5.627 2.524-11.622-.34l-3.52-1.684h-4.695c-3.79 0-5.6.214-9.388 1.11-4.397 1.038-16.304 4.75-23.543 7.34-4.734 1.695-9.682 2.304-18.722 2.307-12.74.005-22.877 1.68-22.877 3.78 0 1.042 2.588 3.152 4.986 4.065 1.932.737 3.438.904 10.57 1.173 4.574.172 9.415.43 10.758.57 4.073.43 20.65-.877 32.763-2.582 7.914-1.115 14.856-1.113 19.17.004 4.236 1.096 9.076 3.423 11.43 5.494 2.288 2.016 3.73 4.542 5.59 9.8.8 2.26 2.604 6.396 4.01 9.194 3.377 6.725 3.84 8.187 4.636 14.658l.676 5.486-4.097 4.208c-7.2 7.396-13.135 15.66-17.273 24.05-2.78 5.638-4.034 9.276-6.964 20.205-1.307 4.872-2.994 10.53-3.75 12.574-1.978 5.357-7.078 15.507-13.66 27.19-3.154 5.595-7.328 13.342-9.278 17.215-1.95 3.873-4.845 9.12-6.435 11.663-3.092 4.943-4.285 7.59-3.89 8.625.344.893 2.11.815 3.995-.178z" fill="#5dabb0"/><text style="line-height:1.25;-inkscape-font-specification:'Despeinada, Normal';font-variant-ligatures:normal;font-variant-caps:normal;font-variant-numeric:normal;text-align:start" x="237.544" y="289.29" font-size="74.667" font-family="Despeinada" letter-spacing="0" word-spacing="0" fill="#df5454"><tspan x="237.544" y="289.29" style="-inkscape-font-specification:'Despeinada, Normal';font-variant-ligatures:normal;font-variant-caps:normal;font-variant-numeric:normal;font-feature-settings:normal;text-align:start" font-size="266.667">Somatic</tspan></text></svg>