<svg xmlns="http://www.w3.org/2000/svg" width="356" height="367" viewBox="0 0 360 365"><path d="M90.457 353.95c-38.66-13.815-66.73-48.192-77.845-95.332-5.044-21.395-6.47-56.748-2.288-56.748 1.39 0 5.1 9.7 8.245 21.557 6.883 25.945 18.624 50.342 29.966 62.267 18.84 19.808 65.5 27.566 92.385 15.36 20.944-9.51 29.437-32.108 20.33-54.095-7.038-16.99-23.003-22.672-52.742-18.768 0 0-18.225-19.618-24.032-54.457l18.68 1.694c22.5 2.04 39.49-2.934 48.306-14.143 8.286-10.533 8.107-14.607-1.114-25.325-13.304-15.468-37.193-11.55-85.56 14.033l-24.406-40.91 10.23-7.804c25.64-19.556 70.162-29.333 95.498-20.97 23.078 7.616 40.017 37.838 35.492 63.323-3.06 17.23-16.874 41.362-27.548 48.12l-9.205 5.83 12.714 5.732c21.606 9.743 34.797 2.295 50.556-28.547 21.81-42.68 35.954-53.73 68.847-53.777 15.315-.022 20.766 1.585 31.936 9.413 27.88 19.537 43.06 59.994 39.725 105.87-4.223 58.1-31.744 93.343-72.894 93.343-22.583 0-37.14-7.92-48.727-26.514-10.177-16.333-14.764-48.68-8.92-62.908 2.805-6.827 3.312-7.058 3.495-1.597.337 10.04 11.76 26.358 22.246 31.78 25.73 13.307 62.667-3.41 77.28-34.974 11.095-23.964 5.143-70.186-10.087-78.337-3.185-1.706-11.06-3.1-17.496-3.1-13.682 0-24.427 9.836-39.49 36.152-5.21 9.098-13.975 20.854-19.48 26.123-8.943 8.563-12.136 9.582-30.023 9.582h-20.016l6.47 14.372c9.26 20.57 8.823 53.993-.974 74.34-8.657 17.98-28.674 36.18-44.676 40.626-15.578 4.328-40.946 3.768-54.877-1.21zm75.377-278.026c-8.855-15.11-14.304-43.318-8.37-43.318 6.974 15.126 21.266 28.62 36.57 38.037 27.487 13.306 55.36 7.936 85.808-16.535 6.704-5.387 12.64-9.195 13.192-8.462 7.436 11.538 20.297 20.967 24.548 34.375 0 5.66-24.353 21.94-43.57 29.13-47.63 13.72-80.046 8.293-108.178-33.226zm24.002-34.927l31.01-34.383 34.46 31.9c-11.787 9.71-20.296 24.775-33.762 32.416-10.64-7.844-26.52-17.092-31.708-29.933z" fill="#444"/></svg>