<svg class="icon" height="512" viewBox="0 0 1024 1024" xmlns="http://www.w3.org/2000/svg"><path d="M342.383 704.052c21.768 0 43.21-2.186 64.14-6.232-45.396-37.117-82.652-84.654-107.91-140.19-7.72-1.768-15.35-3.907-22.93-6.65-103.213-36.792-157.446-150.656-120.655-253.96 28.187-79.166 103.538-132.283 187.353-132.283 22.653 0 45.072 3.907 66.654 11.535 103.305 36.838 157.4 150.794 120.7 254.1-2.836 7.86-6.092 15.348-9.813 22.65.14.234.235.326.235.56 20.466 46.978 63.444 79.117 113.026 86.653 11.86-19.49 21.862-40.42 29.676-62.374 62.932-176.84-29.582-371.776-206.378-434.707-36.79-13.21-75.212-19.815-114.096-19.815-143.585 0-272.38 90.885-320.613 226.192-55.862 157.12 11.022 328.565 150.7 408.894l-41.72 117.258-14.233-29.954c-14.513-30.466-50.978-43.536-81.537-29.07-30.512 14.465-43.582 51.07-28.977 81.583l79.443 167.494c10.56 22.093 32.467 34.978 55.444 34.978 8.79 0 17.628-1.86 26.093-5.907l159.306-75.63c30.465-14.513 43.442-50.978 28.93-81.444-14.465-30.605-50.93-43.675-81.537-29.07l-29.814 14.187 43.86-123.26c18.094 2.93 36.28 4.465 54.653 4.465m675.82 36.34c-13.49-31.023-49.397-45.302-80.468-31.768l-67.397 29.163-26-60c57.164-38.096 101.49-92.283 127.258-157.494 33.443-84.468 32.047-177.028-4.093-260.425-54.05-124.515-176.61-205.075-312.335-205.075-26.14 0-45.954 1.954-71.118 7.814 49.35 31.49 85.024 74.792 109.77 137.724 65.164 11.443 117.026 53.676 143.91 115.817 21.07 48.698 21.862 102.794 2.373 152.097-19.49 49.396-57.165 88.28-105.91 109.4-25.164 10.883-51.723 16.372-78.84 16.372-11.86 0-23.396-1.023-34.79-3.07-65.026-11.535-120.982-54.793-147.773-116.794-20.373-46.932-21.86-98.654-4.558-146.562.65-1.813 1.443-3.72 2.047-5.628 3.953-9.722 8.744-18.977 13.953-27.908-23.535-39.816-59.863-70.002-103.956-85.77-2.605-.883-5.35-1.3-7.953-2.046-13.164 19.768-24.512 41.023-33.443 63.676-.51 1.21-.975 2.372-1.395 3.49-32 83.584-30.047 174.703 5.58 256.89 40.374 93.398 119.493 162.1 213.775 190.61 31.443 9.488 64.56 14.512 98.514 14.512 26 0 51.49-3.256 76.654-9.023l26 59.954-67.396 29.304c-30.978 13.35-45.258 49.397-31.86 80.42 10 23.12 32.558 36.932 56.14 36.932 8.187 0 16.466-1.674 24.28-5.116l67.398-29.21 24.93 57.49c10 23.07 32.467 36.93 56.187 36.93 8.187 0 16.326-1.673 24.28-5.162 31.024-13.35 45.303-49.396 31.77-80.42l-24.794-57.49 67.397-29.165c31.117-13.397 45.396-49.444 31.862-80.467"/></svg>