<svg xmlns="http://www.w3.org/2000/svg" viewBox="40 50 130 185" height="297mm" width="210mm"><path d="M71.658 231.072c1.83-.963 4.89-3.44 8.188-6.623 5.37-5.185 7.418-8.522 12.404-20.207 1.8-4.22 3.64-8.396 4.086-9.28.447-.884 5.958-8.843 12.248-17.686L120.02 161.2l4.79.17c6.973.253 6.636.07 4.35 2.348-2.37 2.363-4.833 5.635-5.808 7.717-.408.873-1.292 3.493-1.962 5.82-.802 2.783-1.887 5.697-3.168 8.503-2.934 6.426-4.132 10.13-3.71 11.463.29.91 1.48.68 3.217-.618 3.976-2.974 8.865-9.06 11.974-14.903 4.334-8.15 6.282-10.75 10.308-13.754 12.263-9.152 15.912-12.627 15.912-15.15 0-.938-.502-1.933-1.31-2.6-1.595-1.316-5.425-2.69-9.374-3.363-3.017-.515-4.102-.51-7.97.037-1.745.247-3.505.365-3.91.263-1.017-.257-1.264-1.05-1.54-4.934-.127-1.82-.353-3.88-.5-4.578-.348-1.658-.346-15.306.004-17.148.513-2.708 1.572-4.44 4.792-7.833 2.997-3.157 3.024-3.196 8.073-12.006 17.48-30.498 17.152-29.777 18.625-40.985.587-4.466.522-6.083-.317-7.863-.868-1.84-3.304-2.927-4.622-2.063-1.332.872-1.53 1.882-1.544 7.808l-.01 5.424-1.713 3.97c-1.56 3.612-2 4.347-4.918 8.2-1.762 2.33-4.967 6.734-7.122 9.79-5.146 7.298-4.942 7.055-8.393 9.998-3.478 2.966-3.85 3.403-5.878 6.936-.837 1.455-1.893 3.034-2.35 3.508-1.67 1.74-4.403 2.463-5.43 1.436-.264-.263-1.05-1.393-1.746-2.51l-1.266-2.032.314-6.148c.172-3.38.233-6.805.135-7.61-.37-3.03-1.638-4.75-4.528-6.13-3.992-1.904-7.282-1.37-9.97 1.62-1.48 1.647-2.16 3.495-2.15 5.85.01 2.66.923 4.3 3.708 6.66 1.218 1.03 2.514 2.308 2.88 2.836 1.28 1.845.606 4.276-1.662 6.006-2.295 1.75-3.805 1.706-7.86-.232l-2.38-1.138H92.82c-2.562 0-3.786.145-6.35.75-2.972.703-11.025 3.214-15.92 4.966-3.2 1.145-6.547 1.557-12.66 1.56-8.617.002-15.472 1.134-15.472 2.556 0 .703 1.75 2.13 3.37 2.748 1.308.498 2.326.61 7.15.793 3.093.115 6.367.29 7.275.385 2.755.29 13.965-.593 22.157-1.747 5.352-.754 10.047-.753 12.965.003 2.864.743 6.137 2.316 7.728 3.717 1.55 1.363 2.523 3.07 3.782 6.627.54 1.528 1.76 4.326 2.71 6.218 2.285 4.547 2.598 5.536 3.137 9.913l.457 3.71-2.77 2.845c-4.87 5.002-8.884 10.592-11.683 16.266-1.88 3.812-2.728 6.272-4.71 13.663-.883 3.293-2.024 7.12-2.535 8.503-1.338 3.623-4.787 10.487-9.24 18.388-2.13 3.785-4.954 9.023-6.273 11.643-1.32 2.62-3.278 6.168-4.352 7.887-2.092 3.343-2.9 5.134-2.63 5.833.23.604 1.426.55 2.7-.12z" fill="#010101"/></svg>